<?xml version="1.0" encoding="utf-8"?>
<!-- Generator: Adobe Illustrator 21.0.2, SVG Export Plug-In . SVG Version: 6.00 Build 0)  -->
<svg version="1.1" id="Layer_1" xmlns="http://www.w3.org/2000/svg" xmlns:xlink="http://www.w3.org/1999/xlink" x="0px" y="0px"
	 viewBox="0 0 313.1 317.1" style="enable-background:new 0 0 313.1 317.1;" xml:space="preserve">
<style type="text/css">
	.st0{fill:#FFFFFF;stroke:#FFFFFF;stroke-miterlimit:10;}
	.st1{fill:#FFFFFF;stroke:#FFFFFF;}
</style>
<g>
	<path class="st0" d="M33.9,265.8h-4.4v1h10v-1H35v-29.6l10.5,30.6h1.3l10.5-30.2v29.3h-4.9v1h14.4v-1h-4.4v-30.1h4.4v-1H56.6
		l-8.3,23.6l-7.9-23.6h-11v1h4.4V265.8L33.9,265.8z M86.7,256.5l3.5,9.4h-4.6v1h14.3v-1h-3.7l-11.4-31.1h-1.5l-12,31.1h-2.5v1h8.5
		v-1h-4.6l3.4-9.4H86.7L86.7,256.5z M86.3,255.5h-9.9l4.9-13.3L86.3,255.5L86.3,255.5z M125.1,234.8h-0.7l-1.8,1.9
		c-2.8-1.6-5.2-2.4-7.8-2.4c-8.4,0-15.4,7.5-15.4,16.5c0,9,6.7,16.5,14.9,16.5c4.3,0,8.8-2.2,11-5.2c1-1.4,1.4-2.9,1.6-5.5h3.4v-1
		h-14.9v1h5.3c0,2.8-0.2,4.3-0.7,5.5c-0.9,2.5-3.4,4.1-6.4,4.1c-3.1,0-5.7-1.4-6.7-3.7c-1-2-1.3-5.5-1.3-11.7c0-6.5,0.7-10.7,2-12.5
		c1.3-1.8,3.8-2.9,6.7-2.9c2.5,0,4.6,0.7,6.3,2.1c2.1,1.6,3.2,3.5,4,6.9h0.8L125.1,234.8L125.1,234.8z M146.9,256.5l3.5,9.4h-4.6v1
		H160v-1h-3.7l-11.4-31.1h-1.5l-12,31.1h-2.5v1h8.5v-1h-4.6l3.4-9.4H146.9L146.9,256.5z M146.6,255.5h-9.9l4.9-13.3L146.6,255.5
		L146.6,255.5z M162,266.8h25.1l1-10.1h-0.7c-1.2,4.5-2,6.2-3.8,7.7c-1.4,1.2-2.3,1.4-6.8,1.4h-9l20.9-31.1h-24.4l-1,9.8h0.7
		c1.6-5.5,2.9-7.5,5.5-8.4c1.1-0.4,1.1-0.4,4-0.4h8.2L162,264.7V266.8L162,266.8z M197.5,265.8h-4.4v1H207v-1h-4.4v-30.1h4.4v-1
		h-13.9v1h4.4V265.8L197.5,265.8z M215.4,265.8H211v1h10v-1h-4.5v-29.2l21.8,30.1h1.1v-31.1h4.4v-1h-10v1h4.6v21.6
		c-1.4-2.2-2.1-3.1-4-5.7c-0.7-0.9-1.4-1.9-2.1-2.8L222,234.8h-11v1h4.4V265.8L215.4,265.8z M251,265.8h-4.4v1h26.2l1-10h-0.7
		c-1.6,5.2-2.5,6.8-4.5,8.1c-1.2,0.8-1.7,0.9-5.3,0.9h-7.1v-14.8h1.8c3.3,0,4.7,0.5,5.5,1.9c0.6,0.9,0.7,1.4,0.9,4.4h0.7v-13.2h-0.7
		c-0.1,5.2-1.2,6-8.2,6v-14.4h4.3c2.6,0,3.3,0,4,0.1c2.1,0.3,3.5,1,4.7,2.3c1.1,1.2,1.8,2.7,2.4,5.5h0.7l-0.4-8.8h-25.3v1h4.4V265.8
		L251,265.8z"/>
	<path class="st0" d="M271.8,109.6c0,4.2-14.8,23.9-44.3,58.9c-23.9,28.7-42.7,43.1-56.4,43.1c-9.3,0-16.9-3.5-22.7-10.5
		c-5.9-7-8.8-15.7-8.8-26.2c0-10.9,3.2-22.7,9.7-35.4c-20.2,28.3-35.6,47.4-46.4,57.3c-10.7,9.9-21.1,14.8-31.2,14.8
		c-10.7,0-19.7-4.6-27-13.8c-7.3-9.2-10.9-20.8-10.9-34.7c0-38.8,27.4-73.1,82.1-103c24-13.3,43.4-20,58.2-20
		c12.5,0,18.8,6.1,18.8,18.2c0,3.4-0.8,8-2.4,13.6l15.5-29.4c6.1,1.4,11.4,2.1,16.1,2.1c5.5,0,12.5-0.7,21.2-2.1l-53.6,88.8
		c-18.6,31.1-27.9,51.6-27.9,61.5c0,9.5,4,14.2,11.8,14.2c8.1,0,21-9.3,38.8-27.8c17.8-18.5,35.9-41.3,54.3-68.4c1.2-2,2.3-3,3.3-3
		C271.2,107.8,271.8,108.4,271.8,109.6L271.8,109.6z M188.3,59.5c0-9.9-4.5-14.8-13.6-14.8c-18.6,0-43,18.2-73.2,54.5
		c-30.2,36.4-45.3,65.7-45.3,88.2c0,13.1,5.9,19.7,17.6,19.7c13.9,0,38.1-23.1,72.4-69.4C174.3,99.7,188.3,73.6,188.3,59.5
		L188.3,59.5z"/>
	<path class="st0" d="M116.7,168.4c-2,2.6-6,6.7-5.9,5.5l-0.7,0.2C112.1,172.1,119.7,163.2,116.7,168.4L116.7,168.4z"/>
	<path class="st0" d="M119.4,169.6c-2,2-0.7,0.3-0.6-0.3l2.6-3C122.5,165.7,120.5,168.3,119.4,169.6L119.4,169.6z"/>
	<path class="st0" d="M123,174.9l0.9-0.8c-0.9,0.8-2.1,2.1-2.8,2.9c-0.3-0.1,0.9-2,2.5-3.7C123.4,173.9,121.9,175.7,123,174.9
		L123,174.9z"/>
	<path class="st0" d="M74.5,205.3c-0.4,0.5,0.3,1.1,1.8,1.5c1.5,0.3,3.9,0.3,6.4-0.4c-0.3,0.8-0.7,1.5-1.2,2.3
		c-2,0.3-5.1,1.3-8.6,1.1c-3.2,0-7-0.6-10-2.2c-1.2-0.5,0.1,0.4,1,1c0.5,0.3,0.8,0.5,0.7,0.5c-0.2,0-0.9-0.1-2.5-0.9
		c-0.6-0.6,0.1-0.7-1-1.6c-2.6-1.7-3.3-2.1-4.6-3.2c-0.6-0.6-1.4-1.4-2.2-3c-0.8-1.5-1.6-3.7-2.1-6.8c0-1.4,0.2-2.8,0.4-4.1
		c-0.4-10.1,1.8-20,5-29.3c3.3-9.2,7.7-17.8,12.7-25.3c0.9-3.2,6.2-10.9,9.1-15.7l0.5,0.2c1.2-3.1,5.2-6.9,7.6-10.1l2.5-2.5
		c1.4-0.6-5.9,8.3-3,6.5c5.1-5.6,7-10.8,11.8-15.3c4.2-4.7,3.3-4.5,5.7-7.7c0.3-1.1-1.2,0.7-1.4,0c4.5-5.5,7.5-7.9,10.3-10.1
		c2.8-2.2,5.5-4.2,9.9-8.7c0-0.6,6.6-8.3-0.6-2.2l-2.8,3.5l-2.5,1.8c2.4-2.5,7-6.9,6.1-6.8c2.3-0.9,6.3-5.3,9.4-8.2
		c3.1-2.9,4.9-4.6,1.9-0.5c-4.9,3.5-6.1,4.7-8.4,7.8c9.9-8.9,19.8-15.6,29.9-20.4c0.9-0.7,1.8-1.4,2.7-2.1c0.5,0.7,5.8-1,11.3-1.5
		c2.3-0.5,5.4-0.4,4.7-0.8c0.6-0.3-4.6-0.4-8.5,0.5c-1.9,0.4-3.6,0.8-4.2,0.8c-0.6,0-0.2-0.4,2.1-1.5c3.2-0.8,6.6-1.3,10-1.1
		c3.4,0.1,7.2,0.8,10.3,3c3.1,2.2,4.8,5.6,5.4,8.4c0.6,2.9,0.5,5.3,0.2,7.4c-0.1-3-0.4-5.6-1.5-8.2c-1.1-2.5-3.2-5-6.4-6
		c-2.5-1.1-5.2-1.4-7.8-1.3c-2.6,0.1-5.2,0.5-7.7,1.2c-5.1,1.3-9.9,3.5-14.4,6.1c-9,5.3-16.9,12-23.5,19.1c-0.9,0.1-4.8,3.5-4.1,2
		c-1.6,1-4.8,4.8-6.3,5.3c-9.9,11.4-21.6,24.7-29.9,35.6c3.4-2.2-4.2,7.1-5.9,10.6c-2.6,2.6-5.8,7.8-8.1,11.7
		c-0.1,0.5-1.4,3-0.7,2.6c1.6-3,2.5-3.8,4.5-6.6c0.1,1.7-4,6.1-6.6,10.6l0.8-2.6c-4.3,7.2-10.5,15.6-12.2,23.3
		c1.1-1.9,2.2-3.8,3.4-5.7c-1.7,4.4-3.7,9.3-5.1,14.1c-1.4,4.8-2.2,9.4-1.7,12.9c0.4-3.1,0.9-7.2,1.7-10.5c0.8-3.3,1.7-5.7,2.3-5.4
		c0.5,0.5-1.4,7.4-2.1,10.7c-1.7,7.1-1.4,14.1,1.4,19C63.2,202.9,68.5,204.5,74.5,205.3L74.5,205.3z"/>
	<path class="st0" d="M61.7,196.2c-0.9-2.2-1.2-3.9-1.6-5.1c-0.3-1.2-0.6-1.9-0.8-2.5c-0.4-1.4-1.1-2.8-0.3-8.5
		c0.5,1.5,1.9-3.9,2.9-7.5c0.5-3.7,2.2-7.8,3.4-10.9c1-2,1.6-1.4,0.1,2.7c-2.6,4.7-4,10.7-4.5,16.5
		C60.5,186.6,60.8,192.2,61.7,196.2L61.7,196.2z"/>
	<path class="st0" d="M65.1,205.3c-2.8-1.3-3.2-2.5-3.6-3.3c-0.3-0.9-0.8-1.6-2.2-4c0.9,0.9,1.3,1.5,1.9,2.4
		c0.6,0.9,1.4,2.2,3.7,3.5c-1-0.3-1.9-0.8-2.8-1.3C62.9,203.6,64,204.5,65.1,205.3L65.1,205.3z"/>
	<path class="st0" d="M64.8,160c1.3-3.6,5.7-11.6,6.7-11.3c0.3-0.5,0.3,0.6,1.2-1.4C70.7,150.1,66.4,159.1,64.8,160L64.8,160z"/>
	<path class="st0" d="M55.9,175.5c0.3-2.3,0.8-4.5,1.8-7.8C57.2,169.9,56.9,172.6,55.9,175.5L55.9,175.5z"/>
	<path class="st0" d="M65.1,154.6c-1,0.4,1.2-3.1,1.8-4.1l1.3-2C67.4,150.6,66.2,153.1,65.1,154.6L65.1,154.6z"/>
	<path class="st0" d="M83.9,126.6c3.5-4.5-2.6,5.4,1.3-0.1l-2.1,3.3l-1.7,0.6L83.9,126.6L83.9,126.6z"/>
	<path class="st0" d="M89.8,120.1c0.8-1.5,1.7-2.8,3.6-5l-0.6,1.5C92.2,117.5,91.1,118.3,89.8,120.1L89.8,120.1z"/>
	<path class="st0" d="M83.4,124.6c1.4-2.4,1.6-1.7,2.8-3C85.9,122.6,81.9,127,83.4,124.6L83.4,124.6z"/>
	<path class="st0" d="M94.8,98.5c-1,2.6-4.7,6.4-7.6,10.6C90.1,104.9,91,102.9,94.8,98.5L94.8,98.5z"/>
	<path class="st0" d="M141.4,135.9c1.6-1.7,3.1-4,3.8-5.5l-1,0.8L141.4,135.9L141.4,135.9z"/>
	<path class="st0" d="M120.2,162.3c-0.8,2.6,1.6-1,5.2-4.2c4.1-4.7,7.4-10.4,11.2-15.3l1.8-3.4C133.7,145.1,125.5,155.2,120.2,162.3
		L120.2,162.3z"/>
	<path class="st0" d="M121.2,169.3c3.4-3.2,6.6-8.4,8.7-11.1c-3.6,4.4-8.4,10-11,13C118.7,171.7,120.4,170.1,121.2,169.3
		L121.2,169.3z"/>
	<path class="st0" d="M173.7,85.8c-3.5,6.8-9.9,15.6-13.5,23.5c2.4-3.2,2.7-3.1,6.2-8.2c-1.3,4.7-5.3,8-8.4,12.6
		c2.8-3.6,0,1.7-2.2,5c-4.5,5.9-11.3,15.5-17.4,23.6c-2.2,3.8-11.7,14.6-9.4,13.8c-3.8,4.9-5.1,4.9-8.3,8.2
		c-3.7,5.7-8.3,9.9-13,13.9c-4.7,4-9.5,8-14.3,13.4c0.1-1.1-5.1,3.4-7.4,4.8c-2.4,1.6-6.5,4.1-9.4,5c-1.5,0.5-2.4,0.7-3.2,0.9
		c-0.9,0.2-1.1,0.4-0.5,0.9c1,0.3,1.8,0.4,3,0.1c1.2-0.2,2.5-0.7,3.9-1.4c2.8-1.4,5.6-3.4,8.4-4.8c4.8-2.6,2.7-0.7-0.7,1.8
		c-1.7,1.3-3.7,2.6-5.3,3.5c-1.6,1-2.8,1.6-2.7,2c1.3-0.8,2.7,0.1,6.7-2.8c-4.3,2.9-3.3,2.6-1.5,2.2c1.7-0.5,4-1.5,1.9,0.4
		c5.5-2.9,7.7-4.7,9.5-5.7c1.8-1.1,3-1.5,6-3c5.3-5.3,2.9-4.8,3.9-6.7c5-6,10.3-9.5,14.4-14.8c-1.7,5.3,8.7-7.5,13.5-13.8
		c6.4-8,0.7-3.9,7.5-12.3c4.1-3.7-5.6,9.5-0.4,4.6l2.7-4.2c1.3-3,2-5.7,3.8-9.1c1.3-1.8,3.3-4.6,3.6-4.5c-2.3,3.8-0.9,3.2,2.2-0.3
		c1-2,1.3-2.5,1.6-3.5c-7.2,6.1,5.5-7.9,8-14c4.4-8.3,6.3-10.1,8.2-11.7c1.9-1.7,4-3.2,8.2-11.5c-2.3,2-0.9-0.8,1.1-4.8
		c2-4.1,4.6-9.5,5.3-12.5c1.9-4.8,2.9-6.5,4.4-10c0-0.8,0.2-2.2,0.3-3.5c0-1.3-0.1-2.6-0.3-2.9c-1.3,1.6-2.9,5.1-5.5,9.6
		c-2.6,4.5-6.3,10-10.7,16.1C173.7,85.5,173.6,85.8,173.7,85.8L173.7,85.8z"/>
	<path class="st0" d="M239.7,56l5.6-9.4l3-5l1.5-2.4l0.7-1.2c0.2-0.4,0.5-0.8,0.5-1c-6.5,0.9-11.3,1.4-9,0.7h-2.6l13.7-2.1
		c-2.2,3.8-5,8.3-7.4,12.2l-3.5,5.6l-1.5,2.4l-1,1.6c-1,1.5-1.6,2.4-1.7,2.3c0,0,0-0.3,0.3-0.9l0.5-1.1l0.4-0.7L239.7,56L239.7,56z"
		/>
	<path class="st0" d="M236.1,56.3c0.9-1.4,1.6-2.5,2-2.9c0.3-0.5,0.4-0.4,0.2-0.1c-0.1,0.3-0.5,0.9-0.8,1.6
		c-0.3,0.6-0.5,1.1-0.6,1.4l-5,8.2C230.1,66.9,234.1,59.8,236.1,56.3L236.1,56.3z"/>
	<path class="st0" d="M232,51.3l-0.3,0.3l-0.1,0.1l-0.1,0.1l-0.2,0.3l0.9-1.2c0.3-0.4,0.5-0.8,0.7-1.1c0.3-0.1,0.3,0.1,0.1,0.6
		c-0.1,0.3-0.3,0.6-0.5,1l-0.3,0.6l-0.8,1.3c0.1-0.1,0.1-0.3,0.3-0.6c0.1-0.2,0.3-0.6,0.3-0.6l0.2-0.5
		C232.4,51.1,232.4,50.9,232,51.3L232,51.3z"/>
	<path class="st0" d="M159.7,40.1c-0.9,0.7,1,0.8,4.5,0.8c3.5,0,8.8-0.1,14.2,1.1c-1.4,0.3-2.8,0.8-4.1,1.3
		c-4.1-0.4-10.4,0.2-17.2,2c-6.8,1.8-13.9,4.7-20,7.4c-4.6,2.3,11.7-4.4-0.3,1.1c-1.5,0.4-0.6-0.4-3.3,0.6c-5.3,2.7-6.3,3.8-9,5.5
		c-2.6,1.8-7,4.2-18.2,10.6c-2.6,1.3-5.2,2.6-7.7,3.9c-18.6,12.1-36.2,27.2-47.8,45.9C45,129.8,41,140,39.3,150.4
		c-1.7,10.4-1.5,21.1,1.2,30.6c1.4,3.2,4.1,9.5,9,15c2.4,2.7,5.2,5.2,8.2,6.9c3,1.7,6.1,2.6,8.9,3l0.2,0.5c3.3,0.1,7.7,0.3,12.2-0.9
		c4.5-1.1,9.2-3.4,12.8-5.9c2.3-1.4,4.5-2.9,6.6-4.6c1.4-0.8-2.8,3.3-7.1,6.3c-4.3,3-8.6,4.9-5,4c7.9-3.6,13.5-9,18.3-14.2
		c4.9-5.3,9.2-10.8,14.5-16.5c2.4-2.9,4.1-5,5.4-6.7l2-2.7l1.9-2.6l8.4-12c2.5-4.3-2.8,3-1.7,0.6l6.9-9.6c3.1,0,4.4-0.6,5.6-1.2
		c0.6-0.3,1.1-0.7,1.7-1.1c-0.2,0.4-0.6,1.1-0.8,1.8c-0.6,1.4-1.1,3-1.5,5.1c-0.4,2-0.7,4.5-0.2,7.8c-2.6,6-3.6,9.8-4.2,13.8
		c-0.1,1-0.3,2-0.4,3l-0.1,1.5l-0.1,0.8l0,0.6c0,1.5,0,3,0.1,4.6c0.1,0.3,0.3,1.9,0.8,3.7c0.4,1.9,1.1,4,1.7,5.4
		c0.6,1.4,1.1,2.1,1,1.3c0-0.8-0.8-3.1-1.3-8.1c-0.3-1.6-0.5-3.2-0.6-4.8c-0.1-0.8-0.1-1.7-0.1-2.5c0.1-1.3,0.1-2.8,0.2-4.2
		c0.2-1,0.4-2,0.6-3.1l0.9-3.4c0.4-1.2,0.8-2.6,1.3-3.9l0.3-1c0.1-0.4,0.3-0.9,0.5-1.3l1.1-2.7l-0.9,2.2c-0.3,0.8-0.6,1.6-0.8,2.1
		l-1.1,3.7c-0.5,2.3-1.1,4.7-1.3,6.8c-0.2,1.1-0.2,2.2-0.3,3.3l-0.1,1.5l0,0.9c0,1.2,0,2.3,0.1,3.3c0.3,4.2,1.1,7,1.2,6.2
		c0,2.4,1,6.7,3.6,10.7c2.5,4.1,6.4,7.7,10,9.4c3.6,1.8,6.9,2.1,7.9,2.4c0.5,0.1,0.5,0.2-0.3,0.3c-0.8,0-2.3,0.1-4.7-0.4
		c-5.5-2.3-8.1-5.3-10.4-7.9c-2.2-2.6-3.9-5-5.8-8.6c2.5,6.6,7.1,12.4,12.7,15.6c2.8,1.6,6,2.6,9.2,3c3.4,0.4,6.3,0.3,9.4-0.6
		c6.2-1.8,11.9-5.4,17.2-9.3c5.3-4,10.1-8.4,14.6-13c1.6-2,3.1-4,4.6-6c0.5,0.1,3-2.1,6.3-5.5c3.3-3.4,7.5-8.1,11.6-12.8
		c3.3-4.2,7.7-9.5,6.3-8.5c0.6-1.1-6.6,7.6-12.5,14.3c-5.8,6.6-10.2,11.1-3.5,2.3c9.5-10.9,19.1-22.2,27.6-32.7
		c4.3-5.3,8.2-10.3,11.7-15c1.7-2.4,3.4-4.6,4.8-6.8c0.7-1.1,1.4-2.1,1.9-3.2c0.3-0.5,0.5-1,0.7-1.5c0.2-0.4,0.3-0.9,0.5-1
		c-0.1,0.1-0.3,1-0.6,1.6c-0.3,0.7-0.6,1.4-1,2c-0.7,1.4-1.5,2.7-2.2,3.9c-1.6,2.6-3.2,5-4.8,7.4l-10.6,15.8
		c-7.2,9.8-15,19.4-23,29.1c-7.9,9.6-16.4,19-25.8,27.3c-4.7,4.1-9.7,8-15.2,11c-5.4,3-11.5,5.1-17.7,4.4
		c-6.1-0.4-12.1-2.8-16.7-6.8c-4.6-4-8-9.2-10.1-14.8c0-0.9-0.9-4.4-1.1-7.3c-0.2-2.9-0.1-5,0.3-3.2l0-3.7c0-0.7,0-1.5,0-2.3
		c0-0.8,0.1-1.9,0.2-2.8c0.4-4,1.1-7.9,3-12.5c0.2-0.9,0.3-1.7,0.5-2.4c0-4.4,1.5-8.5,3.4-12.8c0.3-0.7,0.6-1.4,1-2.1l0.5-1.1
		c0-0.1,0.1-0.2,0.1-0.2l-0.2,0.2l-0.4,0.5l-3,3.8c-2.1,2.6-4.2,5.2-6.6,7.6l-6.6,8.9l-3.3,4.3l-3.2,4.1c-3.9,4.9-7.8,9.6-11.7,14.2
		c-7.9,9.1-16.1,17.4-25.3,22.3c2.1-0.8,2.2-0.6,0.9,0.4c-1.3,0.9-3.9,2.5-7.4,3.7c-3.4,1.2-7.6,2.1-11.5,2c-3.9,0-7.4-0.7-9.6-1.3
		c-4.1-1.6-9.2-4.6-13.5-9.1c-4.3-4.4-7.8-9.9-9.8-15c-0.3-0.5-1.1-2.3-1.7-3.9c-0.6-1.6-1-2.8-1-1.9c1.2,3.9,2.2,6.5,3.4,9.1
		c1.2,2.6,2.5,5.1,5,8.6c-1.5-1-4.3-4.8-6.4-10.1c-2.2-5.3-3.6-12.1-4-18.3c0.4,2.2,0.9,4.3,1.4,6.4c-1.9-10.2-0.9-21.7,2-32.2
		c3-10.6,8-20,12.8-27.9c-3.2,4.1-6.1,8.6-8.6,13.2c4.6-10.7,12.4-21.2,20.9-29.8c8.5-8.7,17.4-15.7,23.9-21.2
		c-6.4,4.3-14.3,10.9-20.2,16.7c-6,5.7-10.1,10.6-10.5,9.9c0-0.6,2.9-4.3,6.9-8.4c4-4.1,9-8.5,12.4-11.1c14.7-11.2,28.4-20,42-27.8
		c6.8-3.9,13.6-7.5,20.8-10.5C144.2,43.9,151.7,41.4,159.7,40.1L159.7,40.1z"/>
	<path class="st0" d="M112.5,57.3c-13.3,7.5-16.1,10.2-19,12.6c-1.4,1.2-2.8,2.4-5.3,4.3c-2.5,1.9-6.2,4.6-11.9,9.1
		c2.4-2.9-9.3,5.5-16.1,12.7c-3.2,3.6-6.6,7.5-9.8,11.6c-3.1,4-6,8.2-8.1,11.9c-1.5,2.5-2.3,3.5-2.1,2.6c0.2-0.9,1.4-3.8,4.6-8.6
		C53.2,102.1,64,90.7,76,81C87.9,71.2,100.8,63,112.5,57.3L112.5,57.3z"/>
	<path class="st0" d="M137.7,49.2c-6.9,3.1-9.1,3.8-11.3,4.5c-2.2,0.7-4.4,1.4-10.8,5.2c2.5-1.9,4.3-2.9,7.1-4.2l12.6-5.7
		c-2.4,1.2-4.7,2.5-7,3.8C131.4,51.5,134.5,50.3,137.7,49.2L137.7,49.2z"/>
	<path class="st0" d="M41.7,123.1c-2.3,4.3-5.7,11.7-7.7,18.5c-2.1,6.7-2.9,12.7-3.4,12.9c-0.2,1.5-0.5-1.1-0.7,4.5
		c0.3-4.4,1.4-13.1,4.1-20.7C36.5,130.8,40.3,124.4,41.7,123.1L41.7,123.1z"/>
	<path class="st0" d="M71.3,92.6c-3.8,3.7-7.7,7.4-13,13.6C61.6,102,65.8,97,71.3,92.6L71.3,92.6z"/>
	<path class="st0" d="M38.2,135.4c0.7-0.8,0,1.2-0.9,3.6c-0.8,2.5-1.7,5.5-2,6.9c-0.5,1.8-1,3.7-1.3,5.6
		C34.5,146.1,36.3,139.4,38.2,135.4L38.2,135.4z"/>
	<path class="st0" d="M56.7,211c3.4,1.6,4.3,1.8,3.8,1.8c-0.5,0-2.3-0.6-4-1.2c-1.7-0.7-3.2-1.5-3.4-1.5c-0.1-0.1,1,1,5.3,2.8
		c-3.3-1.3-6.5-3-9.2-5.2c-0.8-1.1-1.5-2.2-2.1-3.3C49.9,207,53.1,209.3,56.7,211L56.7,211z"/>
	<path class="st0" d="M79.4,214.4c4.2-1.2,8.4-2.7,14.8-6.4c-1.1,0.8-2.2,1.7-3.3,2.4C88.4,211.8,85.3,213,79.4,214.4L79.4,214.4z"
		/>
	<path class="st0" d="M60.3,210.8c3.3,1,4.8,1.2,5.9,1.6c1.1,0.3,2,0.6,4.2,0.8c-1.3,0.2-5.8-0.4-8.7-1.5
		C58.7,210.6,57,209.5,60.3,210.8L60.3,210.8z"/>
	<path class="st0" d="M112.4,178.3c-3.3,5.2-11.8,14.6-20.8,21.1c4.5-3.3,7.4-6.3,10.4-9.4C104.9,186.9,107.9,183.4,112.4,178.3
		L112.4,178.3z"/>
	<path class="st0" d="M189,141.8c-3.1,4.7-6.1,10.6-7.7,14.2l1.7-2.4C184.9,149.6,186.9,145.7,189,141.8L189,141.8z"/>
	<path class="st0" d="M231.9,71.3c2.3-5.8-2.8,3.6-9.4,13c-8,12.9-15.5,26.9-23.4,39.9l-4.3,8.2C204.5,117.1,221.2,90.1,231.9,71.3
		L231.9,71.3z"/>
	<path class="st0" d="M233.4,58.8c-6.2,9.4-13.1,22.3-17.3,29.3l21.6-35.4c0.2-0.6-0.5,0.4-1.4,1.8L233.4,58.8L233.4,58.8z"/>
	<path class="st0" d="M220.3,162.5c-6.2,7.1-14,15.3-22.4,23c-4.2,3.8-8.5,7.6-12.8,10.7c-4.2,3.1-8.9,5.7-11.9,5.9
		c1.4,0.1,2.8-0.2,4.1-0.6c1.3-0.4,2.4-0.9,3.7-1.5c2.5-1.3,5.7-3,11.5-7.6c-3.8,4-8.5,7.5-13.5,9.5c-1.3,0.5-2.5,0.8-3.7,1
		c-0.6,0.1-1.1,0.1-1.6,0.1c-0.6,0-1.2-0.1-1.8-0.2c-2.4-0.5-3.6-1.4-4.6-3.3c0.7,1.6,1.3,1.8,1.2,2c0,0.1-0.6-0.2-1.3-1
		c-0.7-0.8-1.4-2.5-1.8-4.7c-0.2-1.1-0.3-2.3-0.3-3.4c0-1,0.1-2.2,0.3-3.2c1.7-8.1,6.7-18.7,12.3-29.7c5.7-11,12.4-22.5,18.7-33
		c5.1-9.3,23.7-38.7,20-35.1C224,78.6,226,77.3,232,67.9c1.2-2.1,2.3-4.2,3.5-6.3l3.7-6.3l5.3-8.7l2.7-4.4l1.4-2.2l0.7-1.1
		c0.2-0.4,0.6-0.8,0.5-1c-4.5,0.6-9.3,1.3-14.1,1.8l-3.6,0.3l-1.8,0.1l-1.5,0.1c-1.5,0.1-3,0.1-4.4,0.1c-2.9,0-5.7-0.3-8.6-0.8
		c-1.4-0.2-2.9-0.5-4.4-0.8c-2.7-0.6-5.4-1.2-8.1-1.9l-3,5.4l-1.3,2.4l-0.3,0.5c-0.4,0.6-0.7,1.2-1,1.9c-0.7,1.4-1.4,3-2.5,5.7
		c0.2-0.8,0.2-1.1,0.2-1.2c0,0-0.1,0-0.1,0c0-0.2,0.1-0.6,0.2-0.8c0.3-1.2,0.5-2.2,0.5-3.1c0-0.3,0-0.6-0.1-0.9
		c0-0.2-0.1-0.4-0.2-0.6c0-0.1-0.1-0.2-0.1-0.3c-0.3-0.7-0.7-1.4-1.2-2.1c-1.8-2.8-4.8-5.3-8.1-6.8c-3.3-1.5-6.6-2-9.7-2.2
		c-3.2-0.2-6,0-8.6,0.3c-5.3,0.6-9.6,1.8-12,2.6c-2.5,0.9-3.1,1.4-1.1,1.2c5.3-0.8,13.1-3,22.5-2.5c2.4,0.2,4.9,0.6,7.3,1.5
		c2.5,0.9,4.9,2.4,6.9,4.5c1,1,1.8,2.2,2.4,3.4c0.2,0.2,0.4,0.7,0.4,0.8l0.1,0.3c0.1,0.2,0.2,0.4,0.2,0.7c0.2,0.9,0.3,1.9,0.3,3v0.1
		c-0.2,3.3-0.8,5.3-0.8,5.4c-0.1,0.2,0.3-1.3,0.1-3.7c-0.1-1.6-0.4-3.4-1.4-5.4c-1.7-3.3-4.8-6-7.9-7.3c-3.1-1.3-6-1.6-8-1.6
		c-2,0-3.3,0.2-3.3,0.3c2-0.1,3.7,0.2,6.3,0.8c1.3,0.4,2.8,0.8,4.7,1.7c1.8,0.9,4.1,2.3,6.1,4.9c-2.1-2.8-4.3-4-5.7-4.6
		c-1.4-0.6-2.2-0.7-2.4-0.7c-0.5,0.1,1.2,0.7,2.9,1.9c1.8,1.2,3.3,3.2,3.7,4.2c0.2,0.5,0.2,0.8,0,0.6c-0.2-0.2-0.8-0.8-1.9-1.8
		c0.8,0.9,1.5,1.8,2,2.8c0.2,0.4,0.5,1.1,0.8,1.8c0.2,0.7,0.4,1.4,0.5,2.2c0.4,3.4,0.2,5.4-4.3,23l0.7-1l0.5-0.5l0.9-1.1
		c0.2-0.2,0.4-0.3,0.5-0.5l0.4-0.2c0.4-0.1,0.5,0.3,0.6,0.6c0.1,0.8,0,1.9-0.2,2.9c-0.4,2-1,4.1-1.4,5.7l7.8-11.8
		c6.4-12.4,8.3-16.9,9-19.2c0.4-1.1,0.4-1.8,0.6-2.4c0-0.4,0-0.9,0.3-1.9c0.3-0.6,0.6-1.3,0.9-1.8l3.8,0.7c1.7,0.3,3.3,0.5,4.9,0.7
		c3.2,0.4,6.5,0.6,9.6,0.5c1.6,0,3.1-0.1,4.6-0.2l3.1-0.2c2-0.1,3.9-0.3,5.7-0.6c0.1,0,0.2,0,0.2,0l-0.1,0.2l-0.2,0.4l-0.4,0.7
		l-0.8,1.4l-1.6,2.8c0.4-1.7-0.3-1.2-1.2-0.2c-0.4,0.5-1,1.1-1.5,1.9c-1.1,1.6-2.4,3.7-3.8,6c-5.7,9.1-13.1,21.7-18.1,29.9
		c-12.9,21.1-2.7,8.1-16.4,30.4c-7.6,10.6,12.6-23.4,2.7-9.2l-5.9,10.5c-3.3,7-5.6,12.8-9.7,21.1c-2.7,4.8-6.7,12-7,12.1
		c4.9-9.6,2.5-7.2-3.2,2.7c-2.1,4.9-2.6,6.1-3.5,8.5c3-4.8,3.9-5.8,3.3-4.5c-0.5,1.3-2.4,5-4.6,9.8c-2.2,4.8-4.8,10.8-6.2,17
		c-1.5,6.3-0.6,12.8,2.1,16.4c1.8,2.7,4.7,4.2,7.1,4.6c2.5,0.5,4.8,0.4,6.8-0.1c3.9-1,6.6-2.6,8.9-3.8c4.4-2.6,7-4.2,9.6-5.7
		c2.6-1.6,5.1-3.2,8.9-6.4c3.8-3.2,9-8.1,16.4-16.5c-5.4,4.4-0.5-1.2,6.6-9.5c7.1-8.3,16.2-19.6,20.2-25.7c7.5-9.9,10.5-13.2,16-20
		l4.3-6.7l1.1-1.7c0.2-0.2,0.4-0.5,0.7-0.6c0.5-0.3,1.2-0.4,1.5-0.5c-0.7-0.3-1.7-0.6-2.8-0.1c-0.3,0.2-0.5,0.3-0.8,0.6l-0.9,1
		l-2.1,2.2c-2.9,3.1-6.5,7.2-10.7,11.9c-8.4,9.5-19.2,21.9-32.1,35C220.8,161.8,220.3,162.5,220.3,162.5L220.3,162.5z"/>
	<line class="st1" x1="28.9" y1="224.6" x2="273.1" y2="224.6"/>
	<path class="st0" d="M49.7,286.5h-1.3v0.3h4.4v-0.3h-1.5v-4.5h0.6c1,0,1.4,0.1,1.7,0.6c0.2,0.3,0.2,0.4,0.3,1.3h0.2v-4h-0.2
		c0,1.6-0.3,1.8-2.5,1.8v-4.3h1.1c1.4,0,1.4,0,1.7,0c0.4,0.1,0.7,0.2,1,0.5c0.4,0.4,0.6,0.9,0.8,1.8h0.2l-0.2-2.7h-7.6v0.3h1.3
		V286.5L49.7,286.5z M61,283.7l1,2.8h-1.4v0.3h4.3v-0.3h-1.1l-3.5-9.4h-0.5l-3.6,9.4h-0.8v0.3h2.6v-0.3h-1.4l1-2.8H61L61,283.7z
		 M60.9,283.4h-3l1.5-4L60.9,283.4L60.9,283.4z M71.5,277h-0.2l-0.6,0.6c-0.7-0.4-1.3-0.6-2-0.6c-1.7,0-2.9,1.3-2.9,2.9
		c0,0.7,0.2,1.3,0.7,1.7c0.4,0.4,0.9,0.6,2.2,0.9c1.2,0.3,1.5,0.4,1.8,0.6c0.5,0.3,0.8,0.8,0.8,1.5c0,1.2-1,2.1-2.3,2.1
		c-1,0-1.9-0.4-2.4-1.1c-0.4-0.4-0.6-0.9-0.7-1.7h-0.2v3h0.3l0.6-0.7c0.8,0.6,1.5,0.8,2.4,0.8c1.8,0,3.2-1.4,3.2-3.3
		c0-0.9-0.3-1.6-0.9-2.1c-0.4-0.4-0.8-0.5-2.1-0.8c-1-0.2-1.5-0.4-1.8-0.5c-0.5-0.2-0.8-0.6-0.8-1.2c0-1,0.9-1.7,2.1-1.7
		c1.4,0,2.4,0.8,2.6,2.2h0.2V277L71.5,277z M80.7,282v4.5h-1.5v0.3h4.4v-0.3h-1.3v-9.1h1.3v-0.3h-4.4v0.3h1.5v4.3h-4.6v-4.3h1.5
		v-0.3h-4.4v0.3h1.3v9.1h-1.3v0.3h4.4v-0.3h-1.5V282H80.7L80.7,282z M86,286.5h-1.3v0.3h4.2v-0.3h-1.3v-9.1h1.3v-0.3h-4.2v0.3H86
		V286.5L86,286.5z M94.6,277c-2.5,0-4.6,2.3-4.6,5c0,2.7,2.1,5,4.6,5c1.2,0,2.2-0.4,3.1-1.3c0.9-0.9,1.5-2.4,1.5-3.6
		C99.3,279.3,97.2,277,94.6,277L94.6,277z M94.6,277.3c0.8,0,1.6,0.3,2.1,0.8c0.5,0.6,0.7,1.5,0.7,3.9c0,2-0.1,3-0.5,3.5
		c-0.4,0.7-1.3,1.1-2.3,1.1c-0.9,0-1.6-0.3-2.1-0.8c-0.5-0.6-0.7-1.5-0.7-3.8c0-2,0.1-3,0.5-3.6C92.8,277.7,93.6,277.3,94.6,277.3
		L94.6,277.3z M101.7,286.5h-1.3v0.3h3v-0.3H102v-8.8l6.6,9.1h0.3v-9.4h1.3v-0.3h-3v0.3h1.4v6.5c-0.4-0.7-0.6-0.9-1.2-1.7
		c-0.2-0.3-0.4-0.6-0.6-0.9l-3.1-4.2h-3.3v0.3h1.3V286.5L101.7,286.5z M124.5,286.5h-1.4v0.3h3.7c2,0,2.8-0.1,3.6-0.6
		c0.8-0.5,1.2-1.2,1.2-1.9c0-1.5-1.2-2.4-3.3-2.5c1.9-0.3,2.8-1.1,2.8-2.3c0-0.7-0.3-1.2-0.9-1.6c-0.8-0.5-1.7-0.7-3.7-0.7h-3.4v0.3
		h1.4V286.5L124.5,286.5z M126,277.4h0.5c1.4,0,1.9,0.1,2.3,0.4c0.5,0.3,0.8,0.9,0.8,1.8c0,1.5-0.8,2.1-2.6,2.1c-0.2,0-0.4,0-0.9,0
		V277.4L126,277.4z M126,286.5v-4.6c0.6,0,0.7,0,1,0c2.1,0,2.9,0.6,2.9,2.4c0,0.9-0.2,1.5-0.7,1.8c-0.4,0.3-1,0.4-2.2,0.4H126
		L126,286.5z M134.2,286.5h-1.3v0.3h7.9l0.3-3h-0.2c-0.5,1.6-0.8,2.1-1.4,2.5c-0.4,0.2-0.5,0.3-1.6,0.3h-2.1v-4.5h0.5
		c1,0,1.4,0.1,1.7,0.6c0.2,0.3,0.2,0.4,0.3,1.3h0.2v-4h-0.2c0,1.6-0.4,1.8-2.5,1.8v-4.3h1.3c0.8,0,1,0,1.2,0
		c0.6,0.1,1.1,0.3,1.4,0.7c0.3,0.4,0.5,0.8,0.7,1.7h0.2l-0.1-2.7h-7.7v0.3h1.3V286.5L134.2,286.5z M147.2,283.7l1,2.8h-1.4v0.3h4.3
		v-0.3H150l-3.5-9.4h-0.5l-3.6,9.4h-0.8v0.3h2.6v-0.3h-1.4l1-2.8H147.2L147.2,283.7z M147.1,283.4h-3l1.5-4L147.1,283.4L147.1,283.4
		z M158.6,277.4v5.5c0,1.6,0,1.9-0.3,2.4c-0.4,0.8-1.2,1.2-2.3,1.2c-0.9,0-1.7-0.3-2.1-0.8c-0.4-0.5-0.5-0.8-0.5-2.8v-5.5h1.5v-0.3
		h-4.4v0.3h1.3v5.5c0,1.9,0.1,2.5,0.8,3.1c0.7,0.6,1.7,0.9,3,0.9c1.2,0,2.1-0.4,2.6-1c0.5-0.6,0.6-1.1,0.6-3v-5.5h1.4v-0.3h-3v0.3
		H158.6L158.6,277.4z M164.4,286.5h-1.5v0.3h4.6v-0.3h-1.5v-9.1h0.4c1.1,0,1.4,0.1,1.9,0.6c0.5,0.6,0.8,1.2,1,2.2h0.2l-0.1-3.1h-8.6
		l-0.1,3.1h0.2c0.2-1,0.5-1.6,1-2.2c0.4-0.5,0.8-0.6,1.8-0.6h0.5V286.5L164.4,286.5z M174.1,286.5h-1.5v0.3h4.5v-0.3h-1.5v-4.3
		c0,0,0.1-0.1,0.1-0.2c0.1-0.1,0.1-0.2,0.1-0.2l0.1-0.1l0.1-0.2l0.2-0.3l2.3-3.8h1.1v-0.3h-3.1v0.3h1.6l-2.6,4.2
		c0-0.1-0.1-0.2-0.2-0.4l-2.3-3.8h1.4v-0.3h-4.1v0.3h0.8l3.1,4.8V286.5L174.1,286.5z M199,284.1h-0.2c-0.7,1.7-1.7,2.6-3.2,2.6
		c-0.9,0-1.7-0.3-2.1-0.8s-0.6-1.3-0.6-3.4c0-2.1,0.2-3.3,0.5-3.9c0.4-0.7,1.3-1.2,2.3-1.2c1.5,0,2.6,0.9,3.1,2.4h0.2v-2.6h-0.2
		l-0.6,0.7c-0.8-0.5-1.6-0.8-2.5-0.8c-0.9,0-1.9,0.3-2.7,0.9c-1.3,0.9-2,2.4-2,4.1c0,2.7,2.1,5,4.6,5c0.9,0,1.7-0.3,2.6-0.9l0.6,0.7
		h0.2V284.1L199,284.1z M208,277.4v5.5c0,1.6,0,1.9-0.3,2.4c-0.4,0.8-1.2,1.2-2.3,1.2c-0.9,0-1.7-0.3-2.1-0.8
		c-0.4-0.5-0.5-0.8-0.5-2.8v-5.5h1.5v-0.3H200v0.3h1.3v5.5c0,1.9,0.1,2.5,0.8,3.1c0.7,0.6,1.7,0.9,3,0.9c1.2,0,2.1-0.4,2.6-1
		c0.5-0.6,0.6-1.1,0.6-3v-5.5h1.4v-0.3h-3v0.3H208L208,277.4z M211.8,286.5h-1.3v0.3h7.9l0.3-3h-0.2c-0.3,1.2-0.6,1.7-1,2.2
		c-0.4,0.4-0.8,0.5-2.1,0.5h-2v-9.1h1.5v-0.3h-4.4v0.3h1.3V286.5L211.8,286.5z M222.1,286.5h-1.5v0.3h4.6v-0.3h-1.5v-9.1h0.4
		c1.1,0,1.4,0.1,1.9,0.6c0.5,0.6,0.8,1.2,1,2.2h0.2l-0.1-3.1h-8.6l-0.1,3.1h0.2c0.2-1,0.5-1.6,1-2.2c0.4-0.5,0.8-0.6,1.8-0.6h0.5
		V286.5L222.1,286.5z M235.7,277.4v5.5c0,1.6,0,1.9-0.3,2.4c-0.4,0.8-1.2,1.2-2.3,1.2c-0.9,0-1.7-0.3-2.1-0.8
		c-0.4-0.5-0.5-0.8-0.5-2.8v-5.5h1.5v-0.3h-4.4v0.3h1.3v5.5c0,1.9,0.1,2.5,0.8,3.1c0.7,0.6,1.7,0.9,3,0.9c1.2,0,2.1-0.4,2.6-1
		c0.5-0.6,0.6-1.1,0.6-3v-5.5h1.4v-0.3h-3v0.3H235.7L235.7,277.4z M239.5,286.5h-1.3v0.3h4.4v-0.3H241v-4.7h0.5c1.1,0,1.7,0.1,2,0.5
		c0.3,0.3,0.4,0.7,0.5,1.7c0,1.1,0.1,1.4,0.3,1.9c0.3,0.6,1.1,1,1.9,1c0.4,0,0.8-0.1,1.2-0.2l-0.1-0.3c-0.3,0.1-0.5,0.2-0.6,0.2
		c-0.5,0-0.7-0.4-0.7-1.1c0-0.1,0-0.2,0-0.4v-0.3c0-0.7-0.1-1.2-0.4-1.7c-0.5-0.7-1.4-1.2-2.5-1.3c2-0.1,3.2-1,3.2-2.3
		c0-0.7-0.3-1.3-1-1.7c-0.8-0.4-1.4-0.5-3.6-0.5h-3.6v0.3h1.3V286.5L239.5,286.5z M241,281.5v-4.1h0.7c1.3,0,1.7,0.1,2.2,0.4
		c0.5,0.3,0.8,0.9,0.8,1.7c0,0.8-0.3,1.4-0.8,1.7c-0.5,0.3-1,0.4-2.3,0.4H241L241,281.5z M249.6,286.5h-1.3v0.3h7.9l0.3-3h-0.2
		c-0.5,1.6-0.8,2.1-1.4,2.5c-0.4,0.2-0.5,0.3-1.6,0.3h-2.1v-4.5h0.5c1,0,1.4,0.1,1.7,0.6c0.2,0.3,0.2,0.4,0.3,1.3h0.2v-4h-0.2
		c0,1.6-0.4,1.8-2.5,1.8v-4.3h1.3c0.8,0,1,0,1.2,0c0.6,0.1,1.1,0.3,1.4,0.7c0.3,0.4,0.5,0.8,0.7,1.7h0.2l-0.1-2.7h-7.7v0.3h1.3
		V286.5L249.6,286.5z"/>
</g>
</svg>
