<?xml version="1.0" encoding="utf-8"?>
<!-- Generator: Adobe Illustrator 21.0.2, SVG Export Plug-In . SVG Version: 6.00 Build 0)  -->
<svg version="1.1" id="Layer_1" xmlns="http://www.w3.org/2000/svg" xmlns:xlink="http://www.w3.org/1999/xlink" x="0px" y="0px"
	 viewBox="0 0 252 107.796" style="enable-background:new 0 0 252 107.796;" xml:space="preserve">
<style type="text/css">
	.st0{fill:#FFFFFF;}
</style>
<g>
	<path class="st0" d="M92.559,39.199C87.844,28.59,77.358,22.341,66.387,22.453c8.373,2.045,15.729,7.778,19.486,16.231
		c6.46,14.536-0.162,31.59-14.79,38.091c-2.376,1.056-4.817,1.763-7.267,2.153c4.707,0.437,9.592-0.284,14.226-2.344
		C92.4,70.205,98.9,53.466,92.559,39.199z"/>
	<path class="st0" d="M43.387,42.325c8.319-8.706,22.121-9.019,30.827-0.7c1.06,1.013,1.991,2.11,2.802,3.266
		c-0.852-3.181-2.538-6.181-5.093-8.623c-7.426-7.096-19.199-6.829-26.296,0.597c-2.341,2.45-3.863,5.376-4.609,8.448
		C41.714,44.27,42.49,43.263,43.387,42.325z"/>
</g>
<g>
	<path class="st0" d="M48.952,90.929c-12.721-5.715-21.586-18.486-21.586-33.336c0-14.646,8.621-27.272,21.063-33.099
		C34.114,28.69,23.395,41.286,21.975,56.586c-0.156-1.461-0.242-2.942-0.242-4.444c0-22.774,18.462-41.236,41.236-41.236
		c4.298,0,8.442,0.659,12.338,1.88C69.823,10.36,63.762,9.003,57.38,9.003c-24.512,0-44.383,19.871-44.383,44.383
		S32.868,97.77,57.38,97.77c13.363,0,25.338-5.914,33.475-15.258c-7.341,6.744-17.131,10.865-27.886,10.865
		C58.047,93.377,53.328,92.511,48.952,90.929z"/>
	<polygon class="st0" points="108.267,21.31 109.299,20.292 112.063,23.903 114.421,23.903 110.624,19.02 114.255,15.422 
		111.885,15.422 108.267,19.129 108.267,15.422 106.305,15.422 106.305,23.903 108.267,23.903 	"/>
	<polygon class="st0" points="122.808,22.243 117.966,22.243 117.966,20.462 122.171,20.462 122.171,18.802 117.966,18.802 
		117.966,17.082 122.744,17.082 122.744,15.422 116.017,15.422 116.017,23.903 122.808,23.903 	"/>
	<polygon class="st0" points="127.321,18.511 131.641,23.903 133.31,23.903 133.31,15.422 131.373,15.422 131.373,20.643 
		127.194,15.422 125.385,15.422 125.385,23.903 127.321,23.903 	"/>
	<polygon class="st0" points="138.053,23.903 140.015,23.903 140.015,17.142 142.729,17.142 142.729,15.422 135.339,15.422 
		135.339,17.142 138.053,17.142 	"/>
	<path class="st0" d="M153.105,22.376c-1.02,0-1.86-0.4-2.663-1.03l-1.159,1.32c1.07,0.909,2.434,1.357,3.784,1.357
		c1.924,0,3.274-0.945,3.274-2.629V21.37c0-1.478-1.02-2.096-2.829-2.544c-1.541-0.376-1.924-0.558-1.924-1.115v-0.024
		c0-0.412,0.396-0.739,1.146-0.739c0.752,0,1.529,0.315,2.319,0.836l1.02-1.406c-0.905-0.69-2.014-1.078-3.313-1.078
		c-1.821,0-3.121,1.018-3.121,2.557v0.024c0,1.684,1.159,2.157,2.956,2.593c1.49,0.363,1.796,0.606,1.796,1.078v0.024
		C154.391,22.073,153.907,22.376,153.105,22.376z"/>
	<polygon class="st0" points="160.676,23.903 162.638,23.903 162.638,17.142 165.352,17.142 165.352,15.422 157.962,15.422 
		157.962,17.142 160.676,17.142 	"/>
	<path class="st0" d="M168.667,22h3.771l0.815,1.902h2.052l-3.822-8.542h-1.81l-3.822,8.542h2L168.667,22z M170.553,17.603
		l1.186,2.75h-2.37L170.553,17.603z"/>
	<polygon class="st0" points="178.52,23.903 180.481,23.903 180.481,17.142 183.195,17.142 183.195,15.422 175.806,15.422 
		175.806,17.142 178.52,17.142 	"/>
	<polygon class="st0" points="192.092,22.243 187.25,22.243 187.25,20.462 191.455,20.462 191.455,18.802 187.25,18.802 
		187.25,17.082 192.028,17.082 192.028,15.422 185.301,15.422 185.301,23.903 192.092,23.903 	"/>
	<path class="st0" d="M115.759,47.424c-0.629,0.45-1.478,0.675-2.548,0.675c-1.182,0-2.266-0.211-3.251-0.633
		s-1.976-1.065-2.97-1.928l-2.083,2.477c1.163,1.051,2.443,1.84,3.842,2.365c1.398,0.525,2.857,0.789,4.378,0.789
		c1.389,0,2.613-0.235,3.674-0.704c1.06-0.469,1.886-1.149,2.477-2.041c0.592-0.891,0.887-1.938,0.887-3.139v-0.056
		c0-1.577-0.512-2.801-1.534-3.674c-1.022-0.873-2.623-1.571-4.8-2.097c-1.276-0.3-2.242-0.591-2.899-0.873
		c-0.657-0.281-1.116-0.591-1.379-0.929c-0.264-0.338-0.395-0.77-0.395-1.295v-0.057c0-0.675,0.291-1.234,0.873-1.675
		c0.581-0.441,1.36-0.662,2.336-0.662c1.746,0,3.528,0.676,5.349,2.027l1.858-2.618c-1.014-0.825-2.107-1.445-3.279-1.858
		c-1.174-0.413-2.464-0.619-3.871-0.619c-1.295,0-2.454,0.239-3.477,0.718c-1.023,0.479-1.82,1.154-2.393,2.027
		c-0.573,0.873-0.858,1.863-0.858,2.97v0.057c0,1.182,0.248,2.144,0.746,2.885c0.497,0.742,1.21,1.333,2.139,1.773
		c0.93,0.441,2.154,0.85,3.674,1.225c1.201,0.281,2.121,0.563,2.759,0.845c0.638,0.281,1.079,0.591,1.323,0.929
		c0.243,0.338,0.366,0.751,0.366,1.239v0.056C116.702,46.373,116.388,46.973,115.759,47.424z"/>
	<polygon class="st0" points="132.241,50.886 132.241,34.39 138.49,34.39 138.49,31.181 122.501,31.181 122.501,34.39 128.75,34.39 
		128.75,50.886 	"/>
	<path class="st0" d="M141.98,31.181v11.344c0,2.815,0.746,4.964,2.238,6.447s3.542,2.224,6.15,2.224
		c2.646,0,4.72-0.755,6.222-2.266c1.501-1.51,2.252-3.702,2.252-6.573V31.181h-3.463v11.344c0,1.783-0.436,3.144-1.309,4.082
		s-2.088,1.407-3.646,1.407s-2.777-0.488-3.659-1.463c-0.883-0.976-1.323-2.365-1.323-4.167V31.181H141.98z"/>
	<path class="st0" d="M176.169,32.462c-1.586-0.854-3.393-1.281-5.419-1.281h-7.348v19.705h7.348c2.026,0,3.833-0.432,5.419-1.295
		c1.586-0.863,2.824-2.045,3.716-3.547s1.337-3.171,1.337-5.011v-0.057c0-1.839-0.445-3.504-1.337-4.997
		C178.993,34.489,177.755,33.316,176.169,32.462z M177.591,41.09c0,1.276-0.282,2.417-0.845,3.42
		c-0.563,1.004-1.365,1.792-2.407,2.365c-1.041,0.572-2.237,0.858-3.589,0.858h-3.885V34.334h3.885c1.352,0,2.548,0.286,3.589,0.858
		c1.042,0.573,1.844,1.37,2.407,2.393c0.562,1.023,0.845,2.172,0.845,3.449V41.09z"/>
	<polygon class="st0" points="188.71,42.497 198.591,42.497 198.591,39.401 188.71,39.401 188.71,34.277 199.857,34.277 
		199.857,31.181 185.247,31.181 185.247,50.886 199.998,50.886 199.998,47.789 188.71,47.789 	"/>
	<polygon class="st0" points="221.421,31.181 218.015,31.181 218.015,44.805 207.459,31.181 204.249,31.181 204.249,50.886 
		207.655,50.886 207.655,36.867 218.521,50.886 221.421,50.886 	"/>
	<polygon class="st0" points="224.658,31.181 224.658,34.39 230.907,34.39 230.907,50.886 234.398,50.886 234.398,34.39 
		240.647,34.39 240.647,31.181 	"/>
	<polygon class="st0" points="125.598,77.647 125.598,57.942 121.909,57.942 115.914,67.259 109.918,57.942 106.23,57.942 
		106.23,77.647 109.636,77.647 109.636,63.572 115.801,72.805 115.914,72.805 122.135,63.515 122.135,77.647 	"/>
	<polygon class="st0" points="133.789,69.258 143.67,69.258 143.67,66.161 133.789,66.161 133.789,61.038 144.937,61.038 
		144.937,57.942 130.326,57.942 130.326,77.647 145.077,77.647 145.077,74.55 133.789,74.55 	"/>
	<path class="st0" d="M165.811,72.805c0.892-1.501,1.337-3.171,1.337-5.011v-0.057c0-1.839-0.445-3.504-1.337-4.997
		c-0.892-1.492-2.13-2.665-3.716-3.519s-3.393-1.281-5.419-1.281h-7.348v19.705h7.348c2.026,0,3.833-0.432,5.419-1.295
		C163.681,75.489,164.919,74.306,165.811,72.805z M163.517,67.85c0,1.276-0.282,2.417-0.845,3.42
		c-0.563,1.004-1.365,1.792-2.407,2.365c-1.041,0.572-2.237,0.858-3.589,0.858h-3.885V61.095h3.885c1.352,0,2.548,0.286,3.589,0.858
		c1.042,0.573,1.844,1.37,2.407,2.393c0.562,1.023,0.845,2.172,0.845,3.449V67.85z"/>
	<rect x="171.116" y="57.942" class="st0" width="3.463" height="19.705"/>
	<path class="st0" d="M194.059,77.647h3.66l-8.671-19.846h-3.209l-8.67,19.846h3.547l2.026-4.757h9.318L194.059,77.647z
		 M184.01,69.821l3.378-7.882l3.406,7.882H184.01z"/>
	<path class="st0" d="M109.329,88.407c-1.876-0.401-2.219-0.84-2.219-1.558v-0.024c0-0.754,0.704-1.28,1.712-1.28
		c0.872,0,1.627,0.284,2.375,0.896l0.061,0.049l0.642-0.853l-0.057-0.046c-0.915-0.734-1.811-1.048-2.996-1.048
		c-1.642,0-2.834,0.995-2.834,2.366v0.024c0,1.553,1.15,2.12,2.878,2.495c1.785,0.377,2.123,0.826,2.123,1.522v0.023
		c0,0.797-0.738,1.353-1.796,1.353c-1.092,0-1.911-0.338-2.828-1.168l-0.058-0.052l-0.685,0.811l0.055,0.048
		c1.041,0.93,2.146,1.363,3.48,1.363c1.731,0,2.94-1.008,2.94-2.45v-0.023C112.123,89.565,111.287,88.832,109.329,88.407z"/>
	<path class="st0" d="M117.87,84.603h-0.985l-3.845,8.499l-0.048,0.106h1.136l0.996-2.219h4.471l0.965,2.174l0.02,0.045h1.185
		l-3.874-8.562L117.87,84.603z M115.563,89.988l1.804-4.022l1.791,4.022H115.563z"/>
	<polygon class="st0" points="124.414,84.662 123.316,84.662 123.316,93.208 129.14,93.208 129.14,92.182 124.414,92.182 	"/>
	<polygon class="st0" points="131.878,89.407 136.459,89.407 136.459,88.393 131.878,88.393 131.878,85.676 136.999,85.676 
		136.999,84.662 130.78,84.662 130.78,93.208 137.059,93.208 137.059,92.195 131.878,92.195 	"/>
	<path class="st0" d="M142.245,88.407c-1.877-0.401-2.22-0.84-2.22-1.558v-0.024c0-0.754,0.704-1.28,1.712-1.28
		c0.872,0,1.627,0.284,2.375,0.896l0.061,0.049l0.643-0.853l-0.057-0.046c-0.915-0.734-1.812-1.048-2.997-1.048
		c-1.642,0-2.834,0.995-2.834,2.366v0.024c0,1.553,1.15,2.12,2.878,2.495c1.786,0.377,2.124,0.826,2.124,1.522v0.023
		c0,0.797-0.738,1.353-1.796,1.353c-1.093,0-1.912-0.338-2.828-1.168l-0.058-0.052l-0.639,0.754l-0.047,0.057l0.055,0.048
		c1.042,0.93,2.147,1.363,3.48,1.363c1.731,0,2.941-1.008,2.941-2.45v-0.023C145.039,89.565,144.203,88.832,142.245,88.407z"/>
	<path class="st0" d="M157.26,89.171l0.032-0.068l-0.918-0.424l-0.031,0.071c-0.294,0.684-0.613,1.282-0.948,1.782l-1.774-1.807
		c1.274-0.477,1.92-1.221,1.92-2.213v-0.024c0-1.104-0.929-1.97-2.114-1.97c-1.329,0-2.294,0.869-2.294,2.065v0.024
		c0,0.621,0.223,1.137,0.79,1.815c-1.294,0.536-1.978,1.383-1.978,2.454v0.024c0,1.405,1.142,2.426,2.714,2.426
		c1.032,0,1.932-0.417,2.748-1.274l1.264,1.3l0.047,0.047l0.84-0.644l-1.478-1.513C156.571,90.583,156.968,89.791,157.26,89.171z
		 M152.193,86.584c0-0.658,0.503-1.136,1.196-1.136c0.645,0,1.112,0.457,1.112,1.088v0.024c0,0.66-0.498,1.154-1.522,1.508
		c-0.602-0.652-0.786-0.997-0.786-1.46V86.584z M152.73,92.374c-0.971,0-1.675-0.634-1.675-1.508v-0.024
		c0-0.735,0.536-1.342,1.513-1.712l2.158,2.229C154.096,92.033,153.424,92.374,152.73,92.374z"/>
	<polygon class="st0" points="166.805,89.185 163.81,84.696 163.787,84.662 162.712,84.662 162.712,93.208 163.785,93.208 
		163.785,86.588 166.707,90.872 166.729,90.906 166.857,90.906 169.8,86.577 169.8,93.208 170.898,93.208 170.898,84.662 
		169.823,84.662 	"/>
	<path class="st0" d="M177.329,84.603h-0.984l-3.846,8.499l-0.048,0.106h1.136l0.996-2.219h4.473l0.963,2.174l0.02,0.045h1.185
		l-3.874-8.562L177.329,84.603z M175.022,89.988l1.803-4.022l1.791,4.022H175.022z"/>
	<path class="st0" d="M189.57,87.256v-0.023c0-0.67-0.238-1.276-0.67-1.708c-0.556-0.556-1.422-0.862-2.439-0.862h-3.686v8.546
		h1.098v-3.262h2.286l2.412,3.231l0.022,0.03h1.352l-2.598-3.454C188.762,89.457,189.57,88.552,189.57,87.256z M183.873,88.945
		v-3.256h2.517c1.297,0,2.071,0.59,2.071,1.579v0.024c0,1.004-0.818,1.652-2.084,1.652H183.873z"/>
	<polygon class="st0" points="199.148,84.79 199.273,84.662 197.827,84.662 193.113,89.565 193.113,84.662 192.016,84.662 
		192.016,93.208 193.113,93.208 193.113,90.909 194.819,89.181 198.016,93.208 199.395,93.208 195.585,88.412 	"/>
	<polygon class="st0" points="202.065,89.407 206.646,89.407 206.646,88.393 202.065,88.393 202.065,85.676 207.187,85.676 
		207.187,84.662 200.968,84.662 200.968,93.208 207.246,93.208 207.246,92.195 202.065,92.195 	"/>
	<polygon class="st0" points="208.443,85.689 211.274,85.689 211.274,93.208 212.373,93.208 212.373,85.689 215.203,85.689 
		215.203,84.662 208.443,84.662 	"/>
	<rect x="216.951" y="84.662" class="st0" width="1.098" height="8.546"/>
	<polygon class="st0" points="226.859,91.249 221.704,84.692 221.682,84.662 220.684,84.662 220.684,93.208 221.758,93.208 
		221.758,86.466 227.044,93.18 227.066,93.208 227.934,93.208 227.934,84.662 226.859,84.662 	"/>
	<path class="st0" d="M234.049,89.574h2.555v1.976c-0.632,0.502-1.507,0.8-2.348,0.8c-1.942,0-3.247-1.372-3.247-3.414v-0.024
		c0-1.889,1.368-3.367,3.115-3.367c1.25,0,1.942,0.452,2.506,0.941l0.057,0.05l0.661-0.777l0.048-0.058l-0.058-0.049
		c-0.954-0.805-1.875-1.133-3.178-1.133c-2.402,0-4.285,1.94-4.285,4.417v0.023c0,2.586,1.787,4.393,4.345,4.393
		c1.707,0,2.876-0.816,3.421-1.303l0.025-0.022v-3.454h-3.617V89.574z"/>
</g>
<g>
</g>
<g>
</g>
<g>
</g>
<g>
</g>
<g>
</g>
<g>
</g>
</svg>
