<?xml version="1.0" encoding="utf-8"?>
<!-- Generator: Adobe Illustrator 21.0.2, SVG Export Plug-In . SVG Version: 6.00 Build 0)  -->
<svg version="1.1" id="Layer_1" xmlns="http://www.w3.org/2000/svg" xmlns:xlink="http://www.w3.org/1999/xlink" x="0px" y="0px"
	 viewBox="0 0 410.233 170.493" style="enable-background:new 0 0 410.233 170.493;" xml:space="preserve">
<style type="text/css">
	.st0{fill:#FFFFFF;}
	.st1{fill:#1F3D73;}
	.st2{fill:#EEB41E;}
</style>
<g>
	<path class="st0" d="M410.233,170.493H0V0h410.233V170.493z M268.698,5.634H5.642v159.219h263.056V5.634z M404.431,5.634H274.339
		v159.219h130.092V5.634z"/>
	<rect x="5.642" y="5.637" class="st1" width="263.137" height="159.218"/>
	<path class="st0" d="M125.963,15.963v23.873H85.627v110.947H57.273V39.836H16.754V15.963H125.963z"/>
	<path class="st0" d="M228.808,15.963h29.268l-45.964,134.819h-26.614L139.904,15.963h30.093l29.269,102.349L228.808,15.963z"/>
	<rect x="274.42" y="5.637" class="st2" width="130.093" height="159.218"/>
	<g>
		<path class="st0" d="M334.508,131.264h49.663v18.915h-89.57l46.296-56.056c4.552-5.583,8.364-10.421,11.444-14.511
			c3.08-4.088,5.43-7.514,7.044-10.279c3.282-5.411,4.92-10.278,4.92-14.597c0-6.219-2.188-11.431-6.562-15.634
			c-4.376-4.204-9.792-6.305-16.241-6.305c-13.471,0-21.191,7.975-23.147,23.925h-20.039c3.223-28.1,17.419-42.151,42.582-42.151
			c12.15,0,22.345,3.858,30.578,11.575c8.295,7.716,12.44,17.275,12.44,28.676c0,7.255-1.932,14.368-5.792,21.336
			c-1.953,3.627-4.822,7.933-8.59,12.912c-3.775,4.979-8.539,10.87-14.298,17.664L334.508,131.264z"/>
	</g>
</g>
<g>
</g>
<g>
</g>
</svg>
