<?xml version="1.0" encoding="utf-8"?>
<!-- Generator: Adobe Illustrator 21.0.2, SVG Export Plug-In . SVG Version: 6.00 Build 0)  -->
<svg version="1.1" id="Layer_1" xmlns="http://www.w3.org/2000/svg" xmlns:xlink="http://www.w3.org/1999/xlink" x="0px" y="0px"
	 viewBox="0 0 467.699 586.56" style="enable-background:new 0 0 467.699 586.56;" xml:space="preserve">
<style type="text/css">
	.st0{fill:#FFFFFF;}
</style>
<g>
	<polygon class="st0" points="338.848,417.591 377.926,417.591 377.926,379.223 338.815,379.223 	"/>
	<polygon class="st0" points="136.036,85.767 330.519,85.767 330.468,47.993 135.985,47.993 	"/>
	<line class="st0" x1="330.77" y1="375.454" x2="136.287" y2="375.454"/>
	<polygon class="st0" points="127.999,94.71 90.907,94.71 90.907,371.065 128.155,371.065 	"/>
	<polygon class="st0" points="338.875,86.336 377.926,86.336 377.926,48.303 338.842,48.303 	"/>
	<polygon class="st0" points="127.661,86.336 127.628,48.495 89.732,48.495 89.732,86.336 	"/>
	<polygon class="st0" points="136.036,417.022 330.519,417.022 330.468,379.249 135.985,379.249 	"/>
	<polygon class="st0" points="127.661,417.591 127.628,379.75 89.732,379.75 89.732,417.591 	"/>
	<polygon class="st0" points="377.966,94.71 338.651,94.71 338.812,371.065 377.966,371.065 	"/>
	<line class="st0" x1="131.915" y1="375.454" x2="93.219" y2="375.454"/>
	<line class="st0" x1="374.419" y1="375.454" x2="335.159" y2="375.454"/>
	<path class="st0" d="M288.237,262.028"/>
	<path class="st0" d="M330.522,94.712H136.04l0.243,276.346h194.453v-33.978L330.522,94.712z M289.018,134.931
		c-0.539,3.986-0.664,22.482-0.664,22.482l-0.319,83.478l0,0.011c0,22.434,0.238,24.494-3.19,43.699
		c-2.77,15.517-16.885,31.253-16.885,31.253c-14.766,17.501-34.235,22.446-34.235,22.446s-7.141,2.505-16.544,2.505
		c-6.5,0-14.082-1.198-21.126-5.25c-11.848-6.815-16.127-17.019-17.645-22.73c-0.561-2.112-0.809-4.295-0.809-6.481v-25.388
		l-0.53-62.444c0,0-0.316-23.587-0.71-28.901c-0.471-6.342-7.121-6.532-7.121-6.532l44.829-30.604
		c-4.403,4.388-3.97,11.565-4.063,14.283c-0.138,4.02-0.664,22.482-0.664,22.482l-0.116,104.614
		c0.035,1.988-0.563,23.345,2.367,29.593c2.548,5.434,9.553,7.252,9.553,7.252s2.34,0.993,6.173,0.993
		c2.747,0,6.26-0.51,10.228-2.26c10.667-4.705,13.27-13.379,15.31-19.115c2.945-8.277,2.276-22.874,2.276-22.874v-55.007
		c0,0,0-23.447,0-44.523l0.023-0.049c0,0,0.125-24.478-0.269-29.792c-0.471-6.342-7.12-6.532-7.12-6.532l45.317-30.888
		C288.679,125.036,289.286,132.949,289.018,134.931z"/>
	<g>
		<path class="st0" d="M206.624,325.775c-2.155-4.595-3.047-14.009-2.894-30.524c0.006-0.642,0.012-1.093,0.008-1.303l-0.001-0.051
			l0-0.051l0.116-104.614l0-0.075l0.002-0.075c0.022-0.754,0.528-18.524,0.666-22.514c0.009-0.253,0.012-0.551,0.015-0.884
			c0-0.02,0-0.04,0.001-0.06l-25.037,17.092c1.255,1.68,2.133,3.821,2.331,6.488c0.402,5.418,0.712,28.264,0.725,29.234l0.53,62.471
			l0,25.435c0,1.805,0.21,3.511,0.625,5.072c1.254,4.721,4.881,13.518,15.078,19.383c5.214,2.999,11.401,4.52,18.391,4.52
			c0.164,0,0.328-0.001,0.491-0.003C214.642,334.141,209.242,331.357,206.624,325.775z"/>
		<path class="st0" d="M263.766,312.315l0.085-0.101l0.09-0.097c0.127-0.138,13.306-16.158,15.613-28.529
			c2.905-15.575,2.994-20.512,2.994-42.687v-0.098l0.001-0.021l0.318-83.389c0.013-1.945,0.144-18.984,0.714-23.196
			c0.007-0.069,0.016-0.244,0.024-0.449L258.03,151.18c1.253,1.679,2.129,3.818,2.327,6.483c0.406,5.468,0.289,29.218,0.284,30.226
			l-0.006,1.203l-0.017,0.036v43.306v54.886c0.091,2.126,0.547,16.009-2.593,24.834l-0.289,0.819
			c-0.852,2.422-1.936,5.503-3.738,8.674C257.311,319.081,260.659,315.997,263.766,312.315z"/>
	</g>
</g>
<g>
	<path class="st0" d="M319.839,537.011c-4.239,0-8.34,0-12.442,0c-2.045,0-2.054,0.004-2.823-1.86
		c-3.078-7.456-6.16-14.911-9.21-22.379c-0.278-0.681-0.614-0.947-1.362-0.924c-1.802,0.057-3.608,0.06-5.409,0
		c-0.832-0.028-1.044,0.237-1.041,1.052c0.03,7.618,0.018,15.236,0.018,22.854c0,0.368,0,0.736,0,1.18c-4.289,0-8.499,0-12.787,0
		c0-24.549,0-49.123,0-73.774c0.218-0.03,0.453-0.092,0.687-0.091c7.96,0.015,15.927-0.166,23.878,0.112
		c8.07,0.282,15.013,5.633,16.734,14.141c0.244,1.207,0.294,2.469,0.3,3.706c0.023,4.633,0.125,9.271-0.055,13.897
		c-0.23,5.911-2.908,10.575-7.87,13.835c-0.833,0.547-0.934,0.914-0.524,1.812c3.913,8.55,7.768,17.125,11.638,25.695
		C319.656,536.459,319.714,536.664,319.839,537.011z M287.569,487.493c0,3.7,0.001,7.4-0.002,11.1c0,0.483-0.053,0.926,0.682,0.918
		c3.295-0.037,6.594,0.057,9.884-0.08c3.061-0.127,5.071-2.38,5.079-5.433c0.012-4.353,0.01-8.706-0.005-13.058
		c-0.002-0.585-0.044-1.19-0.197-1.75c-0.581-2.118-2.689-3.703-5.032-3.736c-3.171-0.044-6.343,0.009-9.513-0.042
		c-0.796-0.013-0.911,0.306-0.907,0.982C287.582,480.093,287.569,483.793,287.569,487.493z"/>
	<path class="st0" d="M164.775,504.612c0,10.803,0,21.525,0,32.323c-4.336,0-8.607,0-12.975,0c-0.014-0.325-0.042-0.656-0.042-0.986
		c-0.002-23.917,0.003-47.835-0.02-71.752c-0.001-0.888,0.221-1.166,1.134-1.153c3.607,0.051,7.215,0.021,10.823,0.021
		c0.307,0,0.615,0,1.048,0c0,9.668,0,19.256,0,28.9c6.237,0,12.347,0,18.598,0c0-9.605,0-19.192,0-28.839c4.384,0,8.63,0,12.943,0
		c0,24.602,0,49.185,0,73.826c-4.256,0-8.503,0-12.893,0c0-10.755,0-21.52,0-32.34C177.136,504.612,171.024,504.612,164.775,504.612
		z"/>
	<path class="st0" d="M122.092,463.065c0.443,0,0.747,0,1.052,0c3.701,0,7.401,0.019,11.102-0.015
		c0.777-0.007,1.086,0.152,1.085,1.017c-0.025,17.352-0.008,34.705-0.025,52.057c-0.007,6.82-2.474,12.55-7.793,16.919
		c-3.509,2.882-7.61,4.411-12.096,4.866c-5.302,0.537-10.343-0.361-14.981-3.083c-5.639-3.309-9.05-8.212-10.198-14.636
		c-0.293-1.641-0.378-3.337-0.38-5.008c-0.027-16.917-0.016-33.834-0.016-50.751c0-0.399,0-0.797,0-1.294
		c0.406-0.028,0.733-0.069,1.06-0.069c3.701-0.005,7.402,0.025,11.101-0.023c0.882-0.012,1.084,0.274,1.083,1.112
		c-0.022,17.415-0.016,34.829-0.017,52.244c0,3.232,1.05,5.958,3.759,7.899c4.354,3.119,11.763,2.249,14.343-3.1
		c0.752-1.558,0.927-3.197,0.926-4.892c-0.008-17.29-0.005-34.58-0.005-51.871C122.092,464.037,122.092,463.637,122.092,463.065z"/>
	<path class="st0" d="M258.236,491.193c0,8.147,0.004,16.294-0.002,24.441c-0.002,2.81-0.285,5.579-1.279,8.24
		c-2.409,6.446-6.924,10.771-13.414,12.892c-7.125,2.328-14.08,1.711-20.548-2.162c-5.525-3.309-8.836-8.259-9.85-14.653
		c-0.237-1.496-0.335-3.028-0.337-4.544c-0.023-17.009-0.015-34.018-0.014-51.027c0-1.314,0.001-1.314,1.295-1.315
		c3.514,0,7.027,0,10.541,0c1.378,0,1.379,0.001,1.379,1.344c0,17.351,0,34.702,0,52.053c0,3.274,1.099,6.015,3.875,7.927
		c4.299,2.96,11.496,2.18,14.161-3.077c0.794-1.566,0.991-3.246,0.99-4.972c-0.003-17.289-0.003-34.577,0-51.866
		c0-1.567-0.157-1.404,1.39-1.407c3.576-0.007,7.152,0.024,10.727-0.021c0.858-0.011,1.105,0.233,1.102,1.095
		C258.225,473.158,258.236,482.175,258.236,491.193z"/>
	<path class="st0" d="M364.359,463.125c0.395-0.025,0.668-0.058,0.94-0.058c3.763-0.003,7.527,0.016,11.29-0.018
		c0.766-0.007,1.007,0.212,1.006,0.995c-0.02,17.355-0.01,34.711-0.019,52.066c-0.003,6.789-2.444,12.494-7.713,16.866
		c-3.548,2.943-7.705,4.488-12.26,4.941c-5.342,0.532-10.418-0.402-15.055-3.174c-5.474-3.273-8.861-8.076-9.992-14.367
		c-0.311-1.731-0.391-3.524-0.394-5.288c-0.028-16.92-0.017-33.84-0.016-50.76c0-1.261,0.002-1.262,1.264-1.262
		c3.577-0.001,7.154-0.001,10.73,0c1.193,0,1.195,0.002,1.195,1.235c0,17.355,0.002,34.711-0.001,52.066
		c0,3.232,1.045,5.957,3.741,7.916c3.868,2.811,10.476,2.46,13.583-1.783c1.327-1.811,1.714-3.866,1.71-6.067
		c-0.021-11.197-0.01-22.394-0.01-33.591c0-6.189,0-12.379,0-18.568C364.359,463.909,364.359,463.544,364.359,463.125z"/>
</g>
</svg>
