<?xml version="1.0" encoding="utf-8"?>
<!-- Generator: Adobe Illustrator 21.0.2, SVG Export Plug-In . SVG Version: 6.00 Build 0)  -->
<svg version="1.1" id="Layer_1" xmlns="http://www.w3.org/2000/svg" xmlns:xlink="http://www.w3.org/1999/xlink" x="0px" y="0px"
	 viewBox="0 0 581.7 187.4" style="enable-background:new 0 0 581.7 187.4;" xml:space="preserve">
<style type="text/css">
	.st0{clip-path:url(#SVGID_2_);}
	.st1{fill:#FFFFFF;}
</style>
<g>
	<defs>
		<path id="SVGID_1_" d="M537.9,31.5c-3.6,1.8-7,3.6-10,6.3c-4.2,3.8-8.7,6.1-14.9,5.3c-5.2-0.8-9.9,2.3-14.7,4.1
			c-1.7,0.7-3.3,1.2-4.6-0.1c-3.3-3.7-6.9-3.2-10.8-1.4c-0.4,0.2-1,0.2-1.5,0.1c-0.3,0-0.5-0.3-0.9-0.6c1.6-2.5,5.2-1,6.8-3.3
			c-0.3-1.6-2.3-2.5-2.9-2.1c-5.3,3.7-8.5-1.7-12.5-2.9c-4.3-1.3-8.6-2.4-12.9-2.5c-11.6-0.4-39.8-0.2-39.8-0.2s0.4,32.2,0.6,45.8
			c0.3,18.5-0.2,37-0.3,55.4c0,5.1,3.2,7.8,8.2,7c4.4-0.7,8.9,2.1,9.6,6.6c0.6,4,3,5.6,6.4,5.5c3-0.1,5,1.1,7.1,2.9
			c2.4,2,4.8,3.9,8.3,1.4c2.2-1.6,4.8,0.3,7,1.4c3.8,1.8,6.9,1.1,10-1.5c4.4-3.7,5.4-3.4,7.3,2.3c0.4,1.1,1.1,1.7,2,2.1
			c2.6,1,4.3,3,6.1,5.1c2.9,3.5,6.9,2.3,9.7-1.3c3.9-5.2,2.8-11.6,5.3-17c1-2.1,1.1-4.7,4.4-4.3c3,0.3,2.9,2.5,2.7,4.9
			c2.7-0.1,3.5-2.4,5.3-2.9c-2.1-6.7-1.2-8.7,5.2-13.7c0.7-0.6,1-1.7,1.6-2.5c1.2-1.6,2.8-2.9,4.7-1.8c3.6,2,6,0.1,8.3-2.2
			c2.6-2.6,4.6-5.7,8.1-7.3c1.5-0.7,1.6-2.4,1.9-3.9c1.5-7.9,3.4-15.6,6.6-23c1.3-3,1.4-6.2,0.1-9.2c-1-2.5-1.2-4.5,1.4-6
			c2.3-1.4,2.6-3.6,2.6-6.1c0-15.4,0-30.7,0.1-46.1c-1.2,0-2.4,0-3.6,0c-0.9,0.1-1.7,0.2-2.5,0.3C548.6,28.6,542.9,29,537.9,31.5z"
			/>
	</defs>
	<use xlink:href="#SVGID_1_"  style="overflow:visible;fill:#FFFFFF;"/>
	<clipPath id="SVGID_2_">
		<use xlink:href="#SVGID_1_"  style="overflow:visible;"/>
	</clipPath>
	<g class="st0">
		<rect x="403.8" y="139.7" class="st1" width="167.6" height="33.4"/>
		<rect x="403.8" y="117.9" class="st1" width="167.6" height="21.8"/>
		<rect x="403.8" y="96.1" class="st1" width="167.6" height="21.8"/>
		<rect x="403.8" y="74.3" class="st1" width="167.6" height="21.8"/>
		<rect x="403.8" y="52.5" class="st1" width="167.6" height="21.8"/>
		<rect x="403.8" y="24.1" class="st1" width="167.6" height="29.2"/>
		<path class="st1" d="M522.7,88.6c0,0-14.2-11.1-14.2-18.4s4.9-8.3,7.1-8.3s5.4,1.1,7.4,4.6c1.8-3.4,4.9-4.6,7.3-4.6
			c2.4,0,7.3,0.6,7.3,8.1S522.7,88.6,522.7,88.6z"/>
	</g>
</g>
<g>
	<path class="st1" d="M15.4,141.9V34.4h48v11.9H27.7v34.6h33.8v11.9H27.7v49.2H15.4z"/>
	<path class="st1" d="M78.4,34.4h12.3v68.8c0,23.5,6.4,29.5,18.1,29.5c11.7,0,18.1-6,18.1-29.5V34.4h12.3v68.2
		c0,29.8-9.9,41.6-30.4,41.6c-20.5,0-30.4-11.8-30.4-41.6V34.4z"/>
	<path class="st1" d="M165.2,109.9v3.1c0,14.6,8.3,19.2,16.2,19.2c9.8,0,17.3-4.6,17.3-17.4c0-23.8-43.4-21.2-43.4-53.5
		c0-19.1,12.2-29.2,28.4-29.2c17.7,0,27.6,9.5,26.8,31.4h-12.9c0.1-11.8-3.2-19.5-14.9-19.5c-7.4,0-14.9,4.2-14.9,15.8
		c0,23.7,43.4,20.3,43.4,54.4c0,22.6-14.1,29.9-30,29.9c-28.6,0.3-28.6-24-28.3-34.3H165.2z"/>
	<path class="st1" d="M239,141.9h-12.3V34.4H239V141.9z"/>
	<path class="st1" d="M256.9,102.6V67.3c0-21.5,9.9-35.2,30.4-35.2s30.4,13.7,30.4,35.2v35.3c0,29.8-9.9,41.6-30.4,41.6
		S256.9,132.4,256.9,102.6z M305.2,103.2V66.8c0-22.5-13.9-23.2-17.8-23.2s-17.8,0.7-17.8,23.2v36.4c0,23.5,6.2,29.5,17.8,29.5
		C299,132.7,305.2,126.7,305.2,103.2z"/>
	<path class="st1" d="M398.5,34.4v107.6h-16.9l-38.2-93.3h-0.3v93.3h-11V34.4h17.4l37.7,92.1h0.3V34.4H398.5z"/>
</g>
</svg>
