<?xml version="1.0" encoding="utf-8"?>
<!-- Generator: Adobe Illustrator 21.0.2, SVG Export Plug-In . SVG Version: 6.00 Build 0)  -->
<svg version="1.1" id="Layer_1" xmlns="http://www.w3.org/2000/svg" xmlns:xlink="http://www.w3.org/1999/xlink" x="0px" y="0px"
	 viewBox="0 0 410.2 170.5" style="enable-background:new 0 0 410.2 170.5;" xml:space="preserve">
<style type="text/css">
	.st0{fill:#FFFFFF;}
</style>
<path class="st0" d="M5.7,5.6v159.2h263.1V5.6H5.7z M126,39.8H85.7v110.9H57.3V39.8H16.8V16H126V39.8z M212.2,150.8h-26.6L139.9,16
	H170l29.3,102.3L228.8,16h29.3L212.2,150.8z"/>
<path class="st0" d="M274.5,5.6v159.2h130.1V5.6H274.5z M384.2,150.2h-89.6l46.3-56.1c4.6-5.6,8.4-10.4,11.4-14.5
	c3.1-4.1,5.4-7.5,7-10.3c3.3-5.4,4.9-10.3,4.9-14.6c0-6.2-2.2-11.4-6.6-15.6c-4.4-4.2-9.8-6.3-16.2-6.3c-13.5,0-21.2,8-23.1,23.9
	h-20c3.2-28.1,17.4-42.2,42.6-42.2c12.2,0,22.3,3.9,30.6,11.6c8.3,7.7,12.4,17.3,12.4,28.7c0,7.3-1.9,14.4-5.8,21.3
	c-2,3.6-4.8,7.9-8.6,12.9c-3.8,5-8.5,10.9-14.3,17.7l-20.7,24.5h49.7V150.2z"/>
</svg>
