<svg id="Layer_1" data-name="Layer 1" xmlns="http://www.w3.org/2000/svg" viewBox="0 0 1920 1080"><title>404</title><path d="M1752.26,294.89v-0.17c1.32,0.11,2.66.17,4,.17a47.3,47.3,0,1,0,0-94.59c-1.34,0-2.68.05-4,.17V200.3h-261a47.24,47.24,0,0,0-11.7-92.23c-0.82-.05-1.65-0.07-2.49-0.07H769.74a47.25,47.25,0,0,0-14.21,92.3H602.69a47.3,47.3,0,0,0,0,94.58H807.78a47.25,47.25,0,0,0-7,91.75H435.5a47.3,47.3,0,0,0,0,94.58h568.17a47.24,47.24,0,0,0,25.57,87h707.35c0.84,0,1.67,0,2.49-.07a47.24,47.24,0,0,0,0-94.34c-0.82-.05-1.65-0.07-2.49-0.07H1614.67a47.31,47.31,0,0,0-6.72-83.16h48.52c0.84,0,1.67,0,2.49-.07a47.24,47.24,0,0,0,0-94.34c-0.82-.05-1.65-0.07-2.49-0.07M1501.85,221.2h-3.48c1.17,0,2.33,0,3.48-.1v0.1Z" style="fill:#1f3c72;opacity:0.5700000000000001"/><path d="M1620.69,378c76.09,53.06,117.91,110.82,101.94,151.92-11.44,29.41-50.49,45.12-105.48,47.16l-14.64-89.38c0.08-.17.14-0.34,0.21-0.51,14.7-37.85-53.76-99.75-152.92-138.25s-191.44-39-206.13-1.19l0,0.06-0.1,0L1157,388.85c-29.45-33.5-42.06-65.73-32.07-91.41,16.3-41.91,88.67-56,183.37-42.36,49,7.05,104,21.52,160.27,43.41C1527,321.21,1579,348.87,1620.69,378Z" style="fill:#fff"/><path d="M1622.91,268.41c11.05,33.84,9.57,72-1.9,109.07l-0.32.47c-41.7-29.08-93.7-56.75-152.13-79.47-56.29-21.89-111.28-36.36-160.27-43.41l0.2-1.38c38.07-85.08,133.1-110.36,220.38-77.64,35.41,13.27,60.68,33.49,77.17,57.81q3.61,5.33,6.66,10.89,2.54,4.65,4.71,9.45A139.42,139.42,0,0,1,1622.91,268.41Z" style="fill:#fff"/><path d="M1669.45,896.29A36.48,36.48,0,0,1,1640,938.07c-460.93,84-745.8-226.41-830-335.39a36.46,36.46,0,0,1,13.19-55.24L1157,388.85c43.46,49.45,123.62,101.72,222,140,88.74,34.5,174.23,50.59,238.16,48.2Z" style="fill:#fff4a6"/><path d="M1581.16,48.81a16.68,16.68,0,1,1-19,14A16.68,16.68,0,0,1,1581.16,48.81Z" style="fill:#fff4a6"/><path d="M1602.51,487.66L1617.15,577c-63.93,2.39-149.42-13.7-238.16-48.2-98.38-38.26-178.53-90.52-222-140l86.55-41.13,0.1,0c-14.6,37.85,53.83,99.71,152.93,138.19C1495.27,524.29,1587.17,525,1602.51,487.66Z" style="fill:#fff4a6"/><path d="M1602.51,487.66c-15.34,37.33-107.23,36.63-205.93-1.7-99.1-38.48-167.53-100.34-152.93-138.19l0-.06c14.69-37.85,107-37.31,206.13,1.19s167.61,100.4,152.92,138.25C1602.65,487.32,1602.59,487.49,1602.51,487.66Z" style="fill:#fff4a6"/><path d="M1620.69,378c76.09,53.06,117.91,110.82,101.94,151.92-11.44,29.41-50.49,45.12-105.48,47.16-63.93,2.39-149.42-13.7-238.16-48.2-98.38-38.26-178.53-90.52-222-140-29.45-33.5-42.06-65.73-32.07-91.41,16.3-41.91,88.67-56,183.37-42.36,49,7.05,104,21.52,160.27,43.41C1527,321.21,1579,348.87,1620.69,378Z" style="fill:none;stroke:#1f3c72;stroke-linecap:round;stroke-linejoin:round;stroke-width:9.90631037654682px"/><path d="M1243.64,347.76l0-.06c14.69-37.85,107-37.31,206.13,1.19s167.61,100.4,152.92,138.25c-0.07.18-.13,0.34-0.21,0.51-15.34,37.33-107.23,36.63-205.93-1.7C1297.48,447.47,1229,385.61,1243.64,347.76Z" style="fill:none;stroke:#1f3c72;stroke-miterlimit:10;stroke-width:9.64203822612763px"/><path d="M1308.49,253.69c38.07-85.08,133.1-110.36,220.38-77.64,35.41,13.27,60.68,33.49,77.17,57.81q3.61,5.33,6.66,10.89,2.54,4.65,4.71,9.45a139.42,139.42,0,0,1,5.51,14.22c11.05,33.84,9.57,72-1.9,109.07" style="fill:none;stroke:#1f3c72;stroke-linecap:round;stroke-linejoin:round;stroke-width:10.6180628525748px"/><line x1="1528.96" y1="175.82" x2="1571.38" y2="81.58" style="fill:none;stroke:#1f3c72;stroke-linecap:round;stroke-linejoin:round;stroke-width:10.6180628525748px"/><path d="M1562.15,62.76a16.68,16.68,0,1,1,14,19A16.67,16.67,0,0,1,1562.15,62.76Z" style="fill:none;stroke:#1f3c72;stroke-miterlimit:10;stroke-width:7.49936306476593px"/><path d="M1364.74,242s29-49.52,106.65-50.58" style="fill:none;stroke:#1f3c72;stroke-linecap:round;stroke-linejoin:round;stroke-width:10.6180628525748px"/><text transform="translate(68.6 749.94)" style="font-size:243.3162078857422px;fill:#d0de44;font-family:Montserrat;font-weight:700">404</text><text transform="translate(68.6 822.61)" style="font-size:38.45492935180664px;fill:#1f3c72;font-family:Montserrat;font-weight:700">T<tspan x="23.19" y="0">his is n</tspan><tspan x="155.09" y="0">o</tspan><tspan x="179.66" y="0">t the page </tspan><tspan x="390.16" y="0">y</tspan><tspan x="412.35" y="0">ou are looking </tspan><tspan x="700.25" y="0">f</tspan><tspan x="715.21" y="0">o</tspan><tspan x="740.17" y="0" style="letter-spacing:-1px">r</tspan><tspan x="754.4" y="0">.</tspan></text><rect x="1115.9" y="613.17" width="256.34" height="183.79" rx="25.65" ry="25.65" transform="translate(359.02 -418.11) rotate(22.22)" style="fill:#fff;stroke:gray;stroke-miterlimit:10;stroke-width:7.25503077555162px"/><rect x="1168.52" y="789.25" width="70.13" height="36.28" transform="translate(394.71 -395.19) rotate(22.22)" style="fill:#ccc;stroke:gray;stroke-miterlimit:10;stroke-width:7.25503077555162px"/><line x1="1126.2" y1="795.37" x2="1271.72" y2="854.82" style="fill:none;stroke:gray;stroke-miterlimit:10;stroke-width:7.25503077555162px"/><line x1="1099.41" y1="713.89" x2="1338.95" y2="811.75" style="fill:none;stroke:gray;stroke-miterlimit:10;stroke-width:7.25503077555162px"/><path d="M1160.58,534.79a8.4,8.4,0,0,1-2.12,2.91c-1,.8-1.95,1.08-2.86,2a18.24,18.24,0,0,1-2.77,2.43c-2,1.43-4.18,2.18-6.1,3.53a12,12,0,0,1-3.64,1.61c-2.26.75-4.23,1.32-6.43,1.83-1.83.42-4.47,1.41-6.41,1.09s-3.8.35-6-.06c-3.68-.66-6.59-0.86-10-2.27a44.48,44.48,0,0,1-5-2c-1.46-.82-4.33-1.41-5.45-2.69,1.32-1.66,2.61-3.46,4-5.08,3-3.49,4.81-7.85,8-11.08,1.63-1.65,2.31-3.48,3.89-5.18s2.21-2.7,3.71-4.46c1.2-1.4,3.5-4,3.58-6.06a16.66,16.66,0,0,0-1.13-3.62c-0.44-1-2.15-1.55-2.82-2.5-2.14,1-4.74,1-7.1,1.36-2.76.48-4.65,2.11-7.18,3.17s-5.46.65-8.19,1.64-4.7,2.14-7.49,2.66-5.32,1.52-8,2.21c-0.95-2.26-1-6.73-1-9.26a28.72,28.72,0,0,1,1.2-8.38c0.86-2.86.87-5.78,1.86-8.48a29.74,29.74,0,0,1,5.1-8.61c1.11-1.36,2.65-3.17,3.85-4.57,1.36-1.59,2.78-2.28,4-3.9a18,18,0,0,1,3.78-3,19.6,19.6,0,0,1,4.29-2.12c1.41-.52,2.85-1.07,4.19-1.63a41.7,41.7,0,0,1,8-2.37,15.77,15.77,0,0,1,4.41-.32A10,10,0,0,1,1129,463c1.64,0.12,3.11.55,4.77,0.64a18.4,18.4,0,0,1,5.55,1,23.54,23.54,0,0,0,4.77,1.88c0.77,0.7,1.87.36,2.69,0.76a20.54,20.54,0,0,1,2,1.41c1.33,0.86,2.68,1.62,3.92,2.46a25.91,25.91,0,0,1,5.68,4.79c0.81,1,1.36,2.32,2.33,3.34a20.56,20.56,0,0,1,2.22,2.42,31.67,31.67,0,0,1,2.56,4.71,32.81,32.81,0,0,1,2.1,4c0.81,2.33,2.25,5.33,2.44,8,0.34,4.63,1.45,10.82.2,15.58-0.28,1.06-.41,2-0.66,3.16a20.77,20.77,0,0,1-1.34,3.82c-1,2.48-1.59,5.18-3,7.64-1.29,2.27-2.32,4.44-4.56,5.86" style="fill:none;stroke:#fff;stroke-miterlimit:10"/><path d="M1114.2,529.88a26.62,26.62,0,1,0-12.77-18.36" style="fill:none;stroke:#fff;stroke-miterlimit:10;stroke-width:5px"/><circle cx="1130.57" cy="504.86" r="8.87" transform="translate(-85.8 736.22) rotate(-34.83)" style="fill:gray"/><path d="M1085.22,516.45a43.49,43.49,0,1,1,18.83,27" style="fill:none;stroke:#fff;stroke-miterlimit:10;stroke-width:5px"/><path d="M1067.86,520.4a61.27,61.27,0,1,1,26.52,38" style="fill:none;stroke:#fff;stroke-miterlimit:10;stroke-width:5px"/><line x1="1130.57" y1="504.86" x2="1027.13" y2="576.85" style="fill:none;stroke:gray;stroke-miterlimit:10;stroke-width:5.32486581802368px"/><line x1="1124.17" y1="504.99" x2="1011.09" y2="538.27" style="fill:none;stroke:gray;stroke-miterlimit:10;stroke-width:5.32486581802368px"/><line x1="1034.09" y1="530.92" x2="1043.15" y2="565.69" style="fill:none;stroke:gray;stroke-miterlimit:10;stroke-width:5.32486581802368px"/><line x1="1072.61" y1="586.28" x2="1042.75" y2="565.12" style="fill:none;stroke:gray;stroke-miterlimit:10;stroke-width:5.32486581802368px"/><line x1="1094.21" y1="558.27" x2="1076.83" y2="542.24" style="fill:none;stroke:gray;stroke-miterlimit:10;stroke-width:5.32486581802368px"/><line x1="1068.87" y1="521.85" x2="1076.84" y2="542.25" style="fill:none;stroke:gray;stroke-miterlimit:10;stroke-width:5.32486581802368px"/><line x1="1113.34" y1="529.83" x2="1105.72" y2="521.83" style="fill:none;stroke:gray;stroke-miterlimit:10;stroke-width:5.32486581802368px"/><line x1="1128.22" y1="510.82" x2="1057.94" y2="605.6" style="fill:none;stroke:gray;stroke-miterlimit:10;stroke-width:5.32486581802368px"/><line x1="1101.02" y1="512.13" x2="1105.87" y2="522.05" style="fill:none;stroke:gray;stroke-miterlimit:10;stroke-width:5.32486581802368px"/><path d="M1561.56,610.17l13.27,90a1.92,1.92,0,0,1-.6,1.7,1.94,1.94,0,0,1-1.75.44,75.68,75.68,0,0,0-29.19-1.38A77.66,77.66,0,0,0,1514.88,711a1.8,1.8,0,0,1-.71.26,1.84,1.84,0,0,1-1.09-.17,1.87,1.87,0,0,1-.39-0.24,75.71,75.71,0,0,0-28.47-1.21,77.66,77.66,0,0,0-28.42,10.06,1.91,1.91,0,0,1-2.88-1.35l-13.28-90a1.91,1.91,0,0,1,.64-1.73,62.21,62.21,0,0,1,29.77-13A59.93,59.93,0,0,1,1500.4,617a63,63,0,0,1,28.73-12.19,60.08,60.08,0,0,1,31.18,3.8A2,2,0,0,1,1561.56,610.17Zm9.07,87.81-12.7-86.15a56.22,56.22,0,0,0-28.24-3.19,58.78,58.78,0,0,0-27,11.48l12.71,86.18a82.26,82.26,0,0,1,27.37-9.14A79.61,79.61,0,0,1,1570.63,698Zm-59.08,8.72-12.7-86.16a56.21,56.21,0,0,0-28.24-3.19,58.93,58.93,0,0,0-27,11.48L1456.29,715a82.28,82.28,0,0,1,27.38-9.15A79.48,79.48,0,0,1,1511.56,706.7Z" style="fill:#fff"/><path d="M1557.93,611.83l12.7,86.15a79.61,79.61,0,0,0-27.89-.82,82.26,82.26,0,0,0-27.37,9.14l-12.71-86.18a58.78,58.78,0,0,1,27-11.48A56.22,56.22,0,0,1,1557.93,611.83Z" style="fill:#fff"/><path d="M1498.85,620.54l12.7,86.16a79.48,79.48,0,0,0-27.9-.83,82.28,82.28,0,0,0-27.38,9.15l-12.71-86.18a58.93,58.93,0,0,1,27-11.48A56.21,56.21,0,0,1,1498.85,620.54Z" style="fill:#fff"/><path d="M1514.17,711.27a1.84,1.84,0,0,1-1.09-.17,1.87,1.87,0,0,1-.39-0.24,75.71,75.71,0,0,0-28.47-1.21,77.66,77.66,0,0,0-28.42,10.06,1.91,1.91,0,0,1-2.88-1.35l-13.28-90a1.91,1.91,0,0,1,.64-1.73,62.21,62.21,0,0,1,29.77-13A59.93,59.93,0,0,1,1500.4,617a63,63,0,0,1,28.73-12.19,60.08,60.08,0,0,1,31.18,3.8,2,2,0,0,1,1.25,1.52l13.27,90a1.92,1.92,0,0,1-.6,1.7,1.94,1.94,0,0,1-1.75.44,75.68,75.68,0,0,0-29.19-1.38A77.66,77.66,0,0,0,1514.88,711,1.8,1.8,0,0,1,1514.17,711.27Z" style="fill:none;stroke:gray;stroke-miterlimit:10;stroke-width:5px"/><path d="M1509,636.3s15.17-15.61,43.57-9.78" style="fill:none;stroke:gray;stroke-linecap:round;stroke-linejoin:round;stroke-width:5.27373254299164px"/><path d="M1513.57,660.74s15.17-15.61,43.57-9.78" style="fill:none;stroke:gray;stroke-linecap:round;stroke-linejoin:round;stroke-width:5.27373254299164px"/><path d="M1516.38,685.25s15.17-15.61,43.57-9.78" style="fill:none;stroke:gray;stroke-linecap:round;stroke-linejoin:round;stroke-width:5.27373254299164px"/><path d="M1453.58,643.14s15.82-14.94,43.95-7.91" style="fill:none;stroke:gray;stroke-linecap:round;stroke-linejoin:round;stroke-width:5.27373254299164px"/><path d="M1457.09,667.75s15.82-14.94,43.95-7.91" style="fill:none;stroke:gray;stroke-linecap:round;stroke-linejoin:round;stroke-width:5.27373254299164px"/><path d="M1458.85,692.36s15.82-14.94,43.95-7.91" style="fill:none;stroke:gray;stroke-linecap:round;stroke-linejoin:round;stroke-width:5.27373254299164px"/></svg>