<?xml version="1.0" encoding="utf-8"?>
<!-- Generator: Adobe Illustrator 21.0.2, SVG Export Plug-In . SVG Version: 6.00 Build 0)  -->
<svg version="1.1" id="Layer_1" xmlns="http://www.w3.org/2000/svg" xmlns:xlink="http://www.w3.org/1999/xlink" x="0px" y="0px"
	 viewBox="0 0 400 400" style="enable-background:new 0 0 400 400;" xml:space="preserve">
<style type="text/css">
	.st0{fill:#FFFFFF;}
</style>
<path class="st0" d="M357.101,331.266c4.104-4.527,7.936-5.736,8.223-13.019c0.248-6.29-1.086-12.979-0.684-19.521
	c0.907-14.777,2.442-28.128-0.001-42.834c-1.894-11.403-0.514-24.362,0-35.974c0.269-6.087,3.158-10.538,2.741-16.103
	c-0.492-6.562,0.479-9.376,0.685-16.445c0.694-23.779-36.29-8.759-47.965-16.445c-0.1-13.669-1.378-27.361,0.026-40.745
	c0.651-6.205-1.365-11.73-0.736-17.835c0.756-7.338,2.374-14.253,2.767-21.591c0.796-14.86-6.043-19.279-18.333-23.45
	c-11.252-3.819-23.4-0.579-36.142-1.218c-13.142-0.659-27.184,3.975-40.085-0.685c-9.998-3.612-18.997,0.995-28.094,2.056
	c-4.586,0.535-9.139-1.631-13.704-2.056c-4.959-0.461-10.317-0.454-15.094-0.692c-9.638-0.481-18.503,2.062-28.359,2.062
	c-17.569,0-37.139,0.792-53.848-2.741c-4.993,3.494-17.239-0.043-23.239-0.343c-7.433-0.371-13.015,0.582-19.762,3.252
	c-15.829,6.263-11.853,18.319-13.34,33.255c-0.728,7.312-1.144,16.204,0.838,24.135c3.951,15.81-0.94,33.465-0.152,49.488
	c0.431,8.771,0.154,17.737,0.152,26.571c-0.001,8.745-2.623,17.494-1.406,26.074c1.239,8.728,2.091,17.738,2.091,27.373
	c0,8.118-1.869,27.256,8.824,27.526c3.165,11.025,22.625,4.988,30.919,4.68c11.922-0.443,22.506,0.672,34.261-0.685
	c7.113-0.821,14.34,1.667,21.617,1.377c7.094-0.283,16.824-2.494,23.607-0.007c7.943,2.913,15.615,1.666,23.983,1.37
	c7.599-0.269,14.428-1.79,22.295-1.396c8.134,0.407,15.937-1.747,24.629-1.342c9.591,0.447,19.096,1.143,28.45,0.683
	c8.533-0.42,17.749-0.468,26.038,0.685c-0.019,11.701-1.147,22.799,1.312,33.977c2.838,12.903,11.005,14.027,22.976,15.206
	c6.849,0.675,14.032,0.152,20.937,0.152c9.296,0,30.325,3.951,34.946-6.167"/>
<path d="M350.282,338.118h-55.704c-10.375,0-18.814-8.439-18.814-18.81V181.155c0-6.964,5.665-12.629,12.631-12.629h68.07
	c6.962,0,12.627,5.665,12.627,12.629v138.153C369.092,329.679,360.653,338.118,350.282,338.118z M288.395,174.693
	c-3.565,0-6.464,2.899-6.464,6.462v138.153c0,6.97,5.673,12.643,12.647,12.643h55.704c6.97,0,12.643-5.673,12.643-12.643V181.155
	c0-3.563-2.899-6.462-6.46-6.462H288.395z"/>
<path d="M323.791,326.194c-4.886,0-8.865-3.979-8.865-8.865c0-4.886,3.979-8.865,8.865-8.865s8.865,3.979,8.865,8.865
	C332.656,322.215,328.677,326.194,323.791,326.194z M323.791,312.575c-2.622,0-4.754,2.132-4.754,4.754
	c0,2.622,2.132,4.754,4.754,4.754s4.754-2.132,4.754-4.754C328.545,314.707,326.413,312.575,323.791,312.575z"/>
<path d="M351.507,303.043h-58.153c-3.124,0-5.665-2.541-5.665-5.665V186.794c0-3.124,2.541-5.665,5.665-5.665h58.153
	c3.12,0,5.661,2.541,5.661,5.665v110.584C357.168,300.502,354.626,303.043,351.507,303.043z M293.354,185.24
	c-0.855,0-1.554,0.697-1.554,1.554v110.584c0,0.855,0.699,1.554,1.554,1.554h58.153c0.855,0,1.55-0.699,1.55-1.554V186.794
	c0-0.857-0.695-1.554-1.55-1.554H293.354z"/>
<path d="M278.848,289.176H53.592c-13.059,0-23.684-10.624-23.684-23.684V85.29c0-13.045,10.614-23.658,23.658-23.658h246.633
	c13.053,0,23.668,10.618,23.668,23.668v86.312h-6.167V85.3c0-9.65-7.849-17.501-17.501-17.501H53.566
	c-9.644,0-17.491,7.847-17.491,17.491v180.202c0,9.66,7.857,17.517,17.517,17.517h225.255V289.176z"/>
<path d="M258.857,303.172H95.92c-1.359,0-2.471,1.112-2.471,2.471v27.761c0,1.359,1.112,2.471,2.471,2.471h162.936
	c1.359,0,2.471-1.112,2.471-2.471v-27.761C261.328,304.284,260.216,303.172,258.857,303.172z"/>
<rect x="32.991" y="236.074" width="245.86" height="4.111"/>
<path d="M188.954,275.025h-16.753c-1.481,0-2.692-1.212-2.692-2.692V255.58c0-1.481,1.212-2.692,2.692-2.692h16.753
	c1.481,0,2.692,1.212,2.692,2.692v16.753C191.646,273.814,190.435,275.025,188.954,275.025z"/>
<path d="M190.879,311.395h-20.604c-0.422,0-0.767-0.345-0.767-0.767v-23.134c0-0.422,0.345-0.767,0.767-0.767h20.604
	c0.422,0,0.767,0.345,0.767,0.767v23.134C191.646,311.049,191.301,311.395,190.879,311.395z"/>
<g>
</g>
<g>
</g>
<g>
</g>
<g>
</g>
<g>
</g>
</svg>
