<?xml version="1.0" encoding="utf-8"?>
<!-- Generator: Adobe Illustrator 21.0.2, SVG Export Plug-In . SVG Version: 6.00 Build 0)  -->
<svg version="1.1" id="Layer_1" xmlns="http://www.w3.org/2000/svg" xmlns:xlink="http://www.w3.org/1999/xlink" x="0px" y="0px"
	 viewBox="0 0 400 400" style="enable-background:new 0 0 400 400;" xml:space="preserve">
<style type="text/css">
	.st0{fill:#FFFFFF;}
</style>
<g>
	<path d="M357.743,291.461H41.257c-1.733,0-3.137-1.405-3.137-3.137V67.47c0-1.733,1.405-3.137,3.137-3.137h316.486
		c1.733,0,3.137,1.405,3.137,3.137v220.853C360.88,290.056,359.476,291.461,357.743,291.461z"/>
	<path d="M348.378,294.765H50.62c-8.715,0-15.805-7.09-15.805-15.807V76.834c0-8.715,7.09-15.805,15.805-15.805h297.757
		c8.717,0,15.806,7.09,15.806,15.805v202.124C364.184,287.675,357.094,294.765,348.378,294.765z M50.62,67.637
		c-5.072,0-9.197,4.125-9.197,9.197v202.124c0,5.074,4.125,9.199,9.197,9.199h297.757c5.074,0,9.199-4.125,9.199-9.199V76.834
		c0-5.072-4.125-9.197-9.199-9.197H50.62z"/>
</g>
<g>
	<path class="st0" d="M339.208,261.576H56.551c-2.145,0-3.884-1.739-3.884-3.884V80.171c0-2.145,1.739-3.884,3.884-3.884h282.657
		c2.145,0,3.884,1.739,3.884,3.884v177.521C343.091,259.837,341.353,261.576,339.208,261.576z"/>
	<path d="M331.293,266.453H64.467c-10.018,0-18.167-8.151-18.167-18.167V89.577c0-10.018,8.149-18.167,18.167-18.167h266.826
		c10.016,0,18.167,8.149,18.167,18.167v158.71C349.46,258.302,341.309,266.453,331.293,266.453z M64.467,75.915
		c-7.533,0-13.661,6.128-13.661,13.661v158.71c0,7.531,6.128,13.661,13.661,13.661h266.826c7.531,0,13.661-6.13,13.661-13.661
		V89.577c0-7.533-6.13-13.661-13.661-13.661H64.467z"/>
</g>
<path d="M276.876,307.4H119.11c-1.359,0-2.471,1.112-2.471,2.471v26.754c0,1.359,1.112,2.471,2.471,2.471h157.766
	c1.359,0,2.471-1.112,2.471-2.471v-26.754C279.347,308.512,278.235,307.4,276.876,307.4z"/>
<path d="M228.618,315.369h-61.404c-0.422,0-0.767-0.345-0.767-0.767v-22.374c0-0.422,0.345-0.767,0.767-0.767h61.404
	c0.422,0,0.767,0.345,0.767,0.767v22.374C229.385,315.024,229.04,315.369,228.618,315.369z"/>
<rect x="143.714" y="56.3" transform="matrix(0.6663 -0.7457 0.7457 0.6663 -87.0034 169.3353)" width="3.985" height="251.163"/>
<rect x="266.243" y="35.104" transform="matrix(0.6731 -0.7396 0.7396 0.6731 -26.9323 249.041)" width="3.986" height="239.762"/>
<rect x="181.569" y="26.642" transform="matrix(0.672 -0.7406 0.7406 0.672 -67.1071 192.3296)" width="3.983" height="290.555"/>
<rect x="109.845" y="127.405" transform="matrix(0.6616 -0.7498 0.7498 0.6616 -125.4296 157.5392)" width="3.984" height="180.679"/>
<circle class="st0" cx="197.508" cy="279.507" r="7.969"/>
<g>
</g>
<g>
</g>
<g>
</g>
<g>
</g>
<g>
</g>
</svg>
