<?xml version="1.0" encoding="utf-8"?>
<!-- Generator: Adobe Illustrator 21.0.2, SVG Export Plug-In . SVG Version: 6.00 Build 0)  -->
<svg version="1.1" id="Layer_1" xmlns="http://www.w3.org/2000/svg" xmlns:xlink="http://www.w3.org/1999/xlink" x="0px" y="0px"
	 viewBox="0 0 100 100" style="enable-background:new 0 0 100 100;" xml:space="preserve">
<style type="text/css">
	.st0{fill:#D2DC4F;}
	.st1{fill:#FFFFFF;}
	.st2{fill:none;stroke:#808080;stroke-width:2.846;stroke-miterlimit:10;}
	.st3{fill:#CCCCCC;stroke:#808080;stroke-width:2.5025;stroke-miterlimit:10;}
	.st4{fill:none;stroke:#808080;stroke-width:3;stroke-miterlimit:10;}
	.st5{fill:none;}
</style>
<rect x="16.5" y="75.5" class="st0" width="68" height="19"/>
<path class="st1" d="M84.531,74.954c-0.115-3.938-0.23-7.876-0.345-11.814c-0.324-11.083-0.78-22.128-0.272-33.204
	c-3.394-0.228-6.81-0.131-10.186,0.289c-1.182,0.147-2.361,0.333-3.55,0.389c-1.078,0.05-2.158-0.008-3.236-0.066
	c-2.43-0.131-5.067-0.116-7.497-0.247c-0.617-8.963-0.773-17.823-0.207-26.788C53.365,3.31,47.494,3.107,41.622,2.905
	c-7.52-0.259-15.103-0.514-22.521,0.749c-1.79-0.073-2.665,1.98-2.734,3.77c-0.457,11.965-0.517,23.945-0.179,35.913
	c0.309,10.944,0.23,21.697,0.337,32.645c17.676-0.877,35.679-1.126,53.374-0.767C74.727,75.313,79.755,75.67,84.531,74.954z"/>
<path class="st2" d="M84,27.894v64.361c0,1.24-0.905,2.245-2.021,2.245H18.521c-1.116,0-2.021-1.005-2.021-2.245V5.745
	c0-1.24,0.905-2.245,2.021-2.245h43.311L84,27.894z"/>
<polyline class="st3" points="84,29.928 79.791,29.928 59.5,29.928 59.5,8.73 59.5,3.182 "/>
<line class="st4" x1="18" y1="75.5" x2="83" y2="75.5"/>
<g>
	<rect x="36.421" y="80.833" class="st5" width="27.579" height="20.167"/>
	<path class="st1" d="M45.332,85.527c0,2.506-1.835,4.209-4.558,4.209h-3.538V81.33h3.622C43.521,81.33,45.332,83.033,45.332,85.527
		z M43.089,85.551c0-1.451-0.948-2.435-2.279-2.435h-1.379v4.846h1.487C42.189,87.962,43.089,86.99,43.089,85.551z"/>
	<path class="st1" d="M54.835,85.527c0,2.459-1.942,4.306-4.545,4.306c-2.603,0-4.545-1.847-4.545-4.306
		c0-2.447,1.943-4.258,4.545-4.258C52.893,81.27,54.835,83.092,54.835,85.527z M47.999,85.539c0,1.367,1.067,2.423,2.314,2.423
		c1.259,0,2.267-1.056,2.267-2.423s-1.008-2.398-2.267-2.398C49.054,83.141,47.999,84.172,47.999,85.539z"/>
	<path class="st1" d="M59.782,83.129c-1.296,0-2.278,1.02-2.278,2.362c0,1.354,0.982,2.387,2.278,2.387
		c0.695,0,1.499-0.384,2.087-0.983l1.283,1.379c-0.9,0.947-2.243,1.56-3.49,1.56c-2.531,0-4.414-1.847-4.414-4.317
		c0-2.424,1.932-4.246,4.498-4.246c1.247,0,2.555,0.552,3.395,1.439l-1.271,1.523C61.317,83.561,60.514,83.129,59.782,83.129z"/>
</g>
<g>
</g>
<g>
</g>
<g>
</g>
<g>
</g>
<g>
</g>
</svg>
