<?xml version="1.0" encoding="utf-8"?>
<!-- Generator: Adobe Illustrator 21.0.2, SVG Export Plug-In . SVG Version: 6.00 Build 0)  -->
<svg version="1.1" id="Layer_1" xmlns="http://www.w3.org/2000/svg" xmlns:xlink="http://www.w3.org/1999/xlink" x="0px" y="0px"
	 viewBox="0 0 400 400" style="enable-background:new 0 0 400 400;" xml:space="preserve">
<style type="text/css">
	.st0{fill:#FFFFFF;}
</style>
<path class="st0" d="M138.213,106.1c0.912-2.885,0.747-7.371,2.832-9.8c2.267-2.642,6.837-2.118,10.231-2.82
	c7.559-1.563,14.908-1.486,22.518-0.421c8.063,1.127,16.708,0.261,24.841-0.105c11.204-0.504,22.732-0.773,33.972-0.234
	c7.087,0.34,19.265,2.442,25.614-1.357c0-12.403,5.055-42.913-2.526-51.792c-62.661,3.403-126.453-2.247-189.485-1.263
	c-1.638,5.546-1.455,10.587-1.684,16.4c-0.237,6.028-1.105,11.725-0.748,17.916c0.348,6.035,2.169,12.238,1.599,18.329
	c-0.399,4.265-1.402,8.514-2.021,12.747c-0.946,6.458-0.98,13.79-0.42,20.37c0.365,4.286,1.602,8.143,1.591,12.512
	c-0.008,3.175-0.251,6.484,0.421,9.521c2.074,9.378,0.359,19.255-1.037,28.632c-1.379,9.266-1.076,18.624-0.647,28.012
	c0.415,9.088-1.719,17.988-1.17,27.152c0.538,8.97,2.542,16.912,2.105,26.144c-0.195,4.127-0.496,8.012-1.028,12.078
	c-0.546,4.177,0.694,7.349,0.934,11.464c0.316,5.426-3.333,15.358-0.841,19.58c2.502,4.241,8.598,6.778,13.316,7.385
	c14.66,1.886,28.459-0.017,43.107-0.017c6.892,0,13.37,0.842,20.212,0.842c0.205-3.739,2.001-7.65,2.62-11.254
	c0.42-2.445,0.328-5.071,0.327-7.651c-0.001-6.908,0.043-14.226-0.843-21.065c-2.105-16.251,0.731-32.777-0.818-49.288
	c-0.519-5.529-1.289-11.066-1.801-16.547c-0.353-3.773,0.571-5.374,1.778-8.729c1.867-5.187-0.389-11.816-0.81-17.048
	c-0.541-6.714-0.032-13.692-0.032-20.429c0.001-12.578,1.072-25.2-0.748-37.568c-0.599-4.069-1.459-8.506-1.357-12.539"/>
<g>
	<path class="st0" d="M332.432,376.852H142.06c-0.874,0-1.582-0.708-1.582-1.582V95.471c0-0.874,0.708-1.582,1.582-1.582h190.372
		c0.874,0,1.582,0.708,1.582,1.582V375.27C334.014,376.144,333.306,376.852,332.432,376.852z"/>
	<path d="M326.02,380.642H148.472c-6.496,0-11.784-5.285-11.784-11.784V101.882c0-6.499,5.287-11.784,11.784-11.784H326.02
		c6.499,0,11.784,5.285,11.784,11.784v266.976C337.804,375.357,332.519,380.642,326.02,380.642z M148.472,97.678
		c-2.319,0-4.204,1.885-4.204,4.204v266.976c0,2.319,1.885,4.204,4.204,4.204H326.02c2.319,0,4.204-1.885,4.204-4.204V101.882
		c0-2.319-1.885-4.204-4.204-4.204H148.472z"/>
</g>
<rect x="66.209" y="23.148" width="192.011" height="30.318"/>
<path d="M140.478,309.901h-67.8c-6.496,0-11.784-5.285-11.784-11.784V31.142c0-6.499,5.287-11.784,11.784-11.784h177.548
	c6.499,0,11.784,5.285,11.784,11.784v62.747h-7.579V31.142c0-2.319-1.885-4.204-4.204-4.204H72.678
	c-2.319,0-4.204,1.885-4.204,4.204v266.976c0,2.319,1.885,4.204,4.204,4.204h67.8V309.901z"/>
<rect x="162.215" y="120.416" width="146.535" height="7.579"/>
<rect x="162.215" y="194.947" width="118.744" height="5.053"/>
<rect x="162.215" y="174.735" width="146.535" height="5.053"/>
<rect x="162.215" y="215.159" width="146.535" height="5.053"/>
<rect x="162.215" y="235.37" width="146.535" height="5.053"/>
<rect x="162.215" y="280.847" width="118.744" height="5.053"/>
<rect x="162.215" y="301.058" width="146.535" height="5.053"/>
<rect x="162.215" y="321.27" width="146.535" height="5.053"/>
<g>
</g>
<g>
</g>
<g>
</g>
<g>
</g>
<g>
</g>
</svg>
