<?xml version="1.0" encoding="utf-8"?>
<!-- Generator: Adobe Illustrator 21.0.2, SVG Export Plug-In . SVG Version: 6.00 Build 0)  -->
<svg version="1.1" id="Layer_1" xmlns="http://www.w3.org/2000/svg" xmlns:xlink="http://www.w3.org/1999/xlink" x="0px" y="0px"
	 viewBox="0 0 100 100" style="enable-background:new 0 0 100 100;" xml:space="preserve">
<style type="text/css">
	.st0{fill:#1D3F71;}
	.st1{fill:#FFFFFF;}
	.st2{fill:none;stroke:#808080;stroke-width:2.846;stroke-miterlimit:10;}
	.st3{fill:#CCCCCC;stroke:#808080;stroke-width:2.5025;stroke-miterlimit:10;}
	.st4{fill:none;stroke:#808080;stroke-width:3;stroke-miterlimit:10;}
	.st5{fill:none;}
</style>
<rect x="16.5" y="76.5" class="st0" width="68" height="19"/>
<path class="st1" d="M84.531,75.954c-0.115-3.938-0.23-7.876-0.345-11.814c-0.324-11.083-0.78-22.128-0.272-33.204
	c-3.394-0.228-6.81-0.131-10.186,0.289c-1.182,0.147-2.361,0.333-3.55,0.389c-1.078,0.05-2.158-0.008-3.236-0.066
	c-2.43-0.131-5.067-0.116-7.497-0.247c-0.617-8.963-0.773-17.823-0.207-26.788C53.365,4.31,47.494,4.107,41.622,3.905
	c-7.52-0.259-15.103-0.514-22.521,0.749c-1.79-0.073-2.665,1.98-2.734,3.77c-0.457,11.965-0.517,23.945-0.179,35.913
	c0.309,10.944,0.23,21.697,0.337,32.645c17.676-0.877,35.679-1.126,53.374-0.767C74.727,76.313,79.755,76.67,84.531,75.954z"/>
<path class="st2" d="M84,28.894v64.361c0,1.24-0.905,2.245-2.021,2.245H18.521c-1.116,0-2.021-1.005-2.021-2.245V6.745
	c0-1.24,0.905-2.245,2.021-2.245h43.311L84,28.894z"/>
<polyline class="st3" points="84,30.928 79.791,30.928 59.5,30.928 59.5,9.73 59.5,4.182 "/>
<line class="st4" x1="17.429" y1="76.5" x2="83" y2="76.5"/>
<g>
	<rect x="37.421" y="81.833" class="st5" width="25.579" height="20.87"/>
	<path class="st1" d="M45.312,85.279c0,1.979-1.235,3.131-3.382,3.131h-1.499v2.326h-2.195V82.33h3.694
		C44.077,82.33,45.312,83.408,45.312,85.279z M43.225,85.352c0-0.827-0.516-1.271-1.403-1.271h-1.391v2.579h1.391
		C42.709,86.659,43.225,86.203,43.225,85.352z"/>
	<path class="st1" d="M54.491,86.527c0,2.506-1.835,4.209-4.558,4.209h-3.538V82.33h3.622C52.68,82.33,54.491,84.033,54.491,86.527z
		 M52.248,86.551c0-1.451-0.947-2.435-2.278-2.435H48.59v4.846h1.487C51.35,88.962,52.248,87.99,52.248,86.551z"/>
	<path class="st1" d="M61.872,82.33l-0.013,1.75h-4.077v1.871h3.767v1.752h-3.767v3.033h-2.194V82.33H61.872z"/>
</g>
<g>
</g>
<g>
</g>
<g>
</g>
<g>
</g>
<g>
</g>
</svg>
