<?xml version="1.0" encoding="utf-8"?>
<!-- Generator: Adobe Illustrator 21.0.2, SVG Export Plug-In . SVG Version: 6.00 Build 0)  -->
<svg version="1.1" id="Layer_1" xmlns="http://www.w3.org/2000/svg" xmlns:xlink="http://www.w3.org/1999/xlink" x="0px" y="0px"
	 viewBox="0 0 350 150" style="enable-background:new 0 0 350 150;" xml:space="preserve">
<style type="text/css">
	.st0{fill:#EFAA30;}
	.st1{fill:none;stroke:#808080;stroke-width:2.846;stroke-miterlimit:10;}
	.st2{fill:#CCCCCC;stroke:#808080;stroke-width:2.5025;stroke-miterlimit:10;}
	.st3{fill:none;stroke:#808080;stroke-width:3;stroke-miterlimit:10;}
	.st4{fill:#CCCCCC;}
	.st5{fill:#1D3F71;}
	.st6{fill:#FFFFFF;stroke:#808080;stroke-width:3;stroke-miterlimit:10;}
	.st7{fill:#808080;}
</style>
<g>
	<rect x="23.455" y="100.967" class="st0" width="68" height="19"/>
	<path class="st1" d="M90.955,53.361v64.361c0,1.24-0.905,2.245-2.021,2.245H25.476c-1.116,0-2.021-1.005-2.021-2.245v-86.51
		c0-1.24,0.905-2.245,2.021-2.245h43.311L90.955,53.361z"/>
	<polyline class="st2" points="90.955,55.396 86.746,55.396 66.455,55.396 66.455,34.197 66.455,28.649 	"/>
	<line class="st3" x1="24.955" y1="100.967" x2="89.955" y2="100.967"/>
</g>
<g>
	<rect x="124.116" y="29.5" class="st4" width="101" height="16"/>
	<rect x="124.116" y="29.5" class="st3" width="101" height="91"/>
	<line class="st3" x1="125.616" y1="45.5" x2="225.116" y2="45.5"/>
	<line class="st3" x1="173.616" y1="37.5" x2="217.116" y2="37.5"/>
	<line class="st3" x1="131.616" y1="37.5" x2="137.116" y2="37.5"/>
	<line class="st3" x1="141.616" y1="37.5" x2="147.116" y2="37.5"/>
	<line class="st3" x1="151.616" y1="37.5" x2="157.116" y2="37.5"/>
	<polygon class="st5" points="200.004,95.162 195.117,100.049 191.261,91.306 187.405,82.563 196.148,86.419 204.891,90.275 	"/>
	<polyline class="st5" points="201.202,92.844 207.945,99.587 204.574,102.958 197.743,96.127 	"/>
</g>
<g>
	<g>
		<g>
			<path class="st6" d="M260.724,49.325c6.88,8.075,15.528,12.491,26.084,13.229c-0.079-0.782-0.171-1.496-0.221-2.212
				c-0.196-2.83,0.495-5.457,2.12-7.757c2.947-4.172,7.023-6.041,12.118-5.49c2.769,0.299,5.172,1.484,7.165,3.44
				c0.347,0.34,0.643,0.407,1.106,0.298c2.329-0.547,4.554-1.353,6.645-2.522c0.204-0.114,0.416-0.215,0.747-0.385
				c-0.989,2.979-2.783,5.179-5.268,6.878c2.376-0.235,4.632-0.885,6.879-1.711c-0.45,0.603-0.875,1.227-1.355,1.805
				c-1.319,1.59-2.781,3.037-4.45,4.261c-0.29,0.213-0.39,0.445-0.382,0.804c0.187,8.371-2.237,15.95-7.093,22.73
				c-4.291,5.991-9.945,10.233-16.948,12.588c-5.429,1.825-11.006,2.325-16.688,1.591c-5.231-0.676-10.07-2.444-14.543-5.301
				c6.796,0.58,12.941-1.09,18.392-5.273c-2.643-0.169-5.047-0.978-7.163-2.557c-2.129-1.588-3.608-3.652-4.506-6.268
				c1.899,0.267,3.714,0.272,5.62-0.263c-3.008-0.707-5.426-2.171-7.285-4.5c-1.853-2.321-2.782-4.974-2.772-8.065
				c1.77,0.916,3.57,1.466,5.678,1.55c-2.762-2.006-4.544-4.521-5.259-7.723C258.632,55.277,259.103,52.245,260.724,49.325z"/>
		</g>
	</g>
	<rect x="314.777" y="85.025" class="st7" width="2.074" height="17.975"/>
	
		<rect x="315.122" y="85.37" transform="matrix(6.123234e-17 -1 1 6.123234e-17 221.8014 410.5174)" class="st7" width="2.074" height="17.975"/>
</g>
<g>
</g>
<g>
</g>
<g>
</g>
<g>
</g>
<g>
</g>
</svg>
