<?xml version="1.0" encoding="utf-8"?>
<!-- Generator: Adobe Illustrator 21.0.2, SVG Export Plug-In . SVG Version: 6.00 Build 0)  -->
<svg version="1.1" id="Layer_1" xmlns="http://www.w3.org/2000/svg" xmlns:xlink="http://www.w3.org/1999/xlink" x="0px" y="0px"
	 viewBox="0 0 350 150" style="enable-background:new 0 0 350 150;" xml:space="preserve">
<style type="text/css">
	.st0{fill:#EFAA30;}
	.st1{fill:none;stroke:#808080;stroke-width:2.846;stroke-miterlimit:10;}
	.st2{fill:#CCCCCC;stroke:#808080;stroke-width:2.5025;stroke-miterlimit:10;}
	.st3{fill:none;stroke:#808080;stroke-width:3;stroke-miterlimit:10;}
	.st4{fill:#CCCCCC;}
	.st5{fill:#1D3F71;}
	.st6{fill:#FFFFFF;stroke:#808080;stroke-width:3;stroke-miterlimit:10;}
	.st7{fill:#FFFFFF;}
	.st8{fill:none;stroke:#D2DC4F;stroke-width:2;stroke-miterlimit:10;}
	.st9{fill:#808080;}
</style>
<g>
	<rect x="22.455" y="101.659" class="st0" width="68" height="19"/>
	<path class="st1" d="M89.955,54.053v64.361c0,1.24-0.905,2.245-2.021,2.245H24.476c-1.116,0-2.021-1.005-2.021-2.245v-86.51
		c0-1.24,0.905-2.245,2.021-2.245h43.311L89.955,54.053z"/>
	<polyline class="st2" points="89.955,56.088 85.746,56.088 65.455,56.088 65.455,34.889 65.455,29.341 	"/>
	<line class="st3" x1="23.955" y1="101.659" x2="88.955" y2="101.659"/>
</g>
<g>
	<rect x="136.192" y="30.646" class="st4" width="98.808" height="15.653"/>
	<rect x="136.192" y="30.646" class="st3" width="98.808" height="89.025"/>
	<line class="st3" x1="137.659" y1="46.299" x2="235" y2="46.299"/>
	<line class="st3" x1="184.617" y1="38.473" x2="227.174" y2="38.473"/>
	<line class="st3" x1="143.529" y1="38.473" x2="148.909" y2="38.473"/>
	<line class="st3" x1="153.312" y1="38.473" x2="158.692" y2="38.473"/>
	<line class="st3" x1="163.095" y1="38.473" x2="168.476" y2="38.473"/>
	<polygon class="st5" points="210.433,94.884 205.652,99.664 201.88,91.111 198.107,82.558 206.661,86.33 215.214,90.103 	"/>
	<polyline class="st5" points="211.605,92.616 218.202,99.212 214.904,102.51 208.221,95.828 	"/>
</g>
<g>
	<g>
		<g>
			<path class="st6" d="M115.03,82.774c6.88,8.075,15.528,12.491,26.084,13.229c-0.079-0.782-0.171-1.496-0.221-2.212
				c-0.196-2.83,0.495-5.457,2.12-7.757c2.947-4.172,7.023-6.041,12.118-5.49c2.769,0.299,5.172,1.484,7.165,3.44
				c0.347,0.34,0.643,0.407,1.106,0.298c2.329-0.547,4.554-1.353,6.645-2.522c0.204-0.114,0.416-0.215,0.747-0.385
				c-0.989,2.979-2.783,5.179-5.268,6.878c2.376-0.235,4.632-0.885,6.879-1.711c-0.45,0.603-0.875,1.227-1.355,1.805
				c-1.319,1.59-2.781,3.037-4.45,4.261c-0.29,0.213-0.39,0.445-0.382,0.804c0.187,8.371-2.237,15.95-7.093,22.73
				c-4.291,5.991-9.945,10.233-16.948,12.588c-5.429,1.825-11.006,2.325-16.688,1.591c-5.231-0.676-10.07-2.444-14.543-5.301
				c6.796,0.58,12.941-1.09,18.392-5.273c-2.643-0.169-5.047-0.978-7.163-2.557c-2.129-1.588-3.608-3.652-4.506-6.268
				c1.899,0.267,3.714,0.272,5.62-0.263c-3.008-0.707-5.426-2.171-7.285-4.5c-1.853-2.321-2.782-4.974-2.772-8.065
				c1.77,0.916,3.57,1.466,5.678,1.55c-2.762-2.006-4.544-4.521-5.259-7.723C112.938,88.726,113.409,85.694,115.03,82.774z"/>
		</g>
	</g>
</g>
<g>
	<path class="st7" d="M314.835,51.5c0.291,0.28,0.627,1.468,0.666,1.917c0.062,0.703-0.13,1.248,0.021,1.979
		c0.136,0.661,0.227,1.337,0.23,2.062c0.005,1.401-0.334,2.634-0.333,3.958c0,0.892-0.188,1.404-0.426,2.205
		c-0.381,1.284-0.749,2.382-1.222,3.563c-0.393,0.981-0.786,2.519-1.56,3.315c-0.789,0.811-1.061,1.867-1.969,2.774
		c-1.489,1.488-2.521,2.772-4.28,3.91c-0.827,0.535-1.622,1.232-2.505,1.66c-0.847,0.41-2.044,1.546-2.997,1.656
		c-0.341-1.143-0.762-2.321-1.063-3.488c-0.648-2.515-2.081-4.751-2.55-7.267c-0.239-1.283-0.866-2.19-1.144-3.466
		c-0.255-1.173-0.536-1.889-0.869-3.153c-0.264-1.005-0.724-2.905-1.649-3.606c-0.267-0.202-1.655-0.576-2.038-0.644
		c-0.585-0.104-1.41,0.497-2.062,0.5c-0.22,1.319-1.086,2.5-1.656,3.722c-0.667,1.431-0.522,2.829-0.845,4.34
		c-0.321,1.501-1.455,2.733-1.877,4.313c-0.407,1.526-0.522,2.86-1.179,4.317c-0.677,1.501-1.009,2.949-1.567,4.433
		c-1.35-0.29-3.428-1.709-4.597-2.528c-1.354-0.949-2.477-1.976-3.491-3.253c-1.048-1.32-2.394-2.261-3.321-3.588
		c-1.116-1.597-1.818-3.297-2.341-5.131c-0.272-0.953-0.612-2.246-0.875-3.25c-0.298-1.139-0.158-2.019-0.5-3.125
		c-0.238-0.771-0.172-1.935-0.167-2.708c0.007-0.92,0.179-1.817,0.398-2.667c0.211-0.819,0.425-1.662,0.595-2.465
		c0.343-1.623,0.866-3.015,1.487-4.472c0.265-0.622,0.817-1.666,1.27-2.146c0.037-0.57,0.706-1.701,1.083-2.167
		c0.582-0.719,1.254-1.261,1.833-2c0.617-0.786,1.49-1.75,2.264-2.232c0.813-0.506,1.8-0.983,2.403-1.602
		c0.571-0.132,0.767-0.748,1.215-1.001c0.392-0.222,0.905-0.313,1.303-0.478c0.825-0.341,1.61-0.72,2.398-1.021
		c1.291-0.493,2.754-1.008,4.041-1.084c0.736-0.044,1.511,0.118,2.295-0.001c0.633-0.096,1.137-0.243,1.831-0.248
		c1.146-0.008,2.009,0.187,3,0.333c0.902,0.133,1.649,0.064,2.52,0.31c1.337,0.378,3.191,0.676,4.479,1.44
		c2.25,1.333,5.469,2.814,7.269,4.918c0.4,0.468,0.806,0.843,1.25,1.319c0.541,0.58,0.895,1.152,1.336,1.848
		c0.813,1.282,1.883,2.403,2.571,3.838c0.636,1.326,1.307,2.501,1.241,3.993"/>
	<path class="st8" d="M297.634,71.367c5.137-2.381,8.7-7.583,8.7-13.617c0-8.284-6.716-15-15-15s-15,6.716-15,15
		c0,6.033,3.562,11.234,8.698,13.616"/>
	<circle class="st9" cx="291.335" cy="55.75" r="5"/>
	<path class="st8" d="M282.1,80.45c-8.954-3.646-15.265-12.436-15.265-22.7c0-13.531,10.969-24.5,24.5-24.5s24.5,10.969,24.5,24.5
		c0,10.24-6.282,19.013-15.202,22.674"/>
	<path class="st8" d="M278.342,89.75c-12.615-5.137-21.507-17.521-21.507-31.982c0-19.064,15.454-34.518,34.518-34.518
		s34.518,15.454,34.518,34.518c0,14.427-8.851,26.787-21.419,31.946"/>
	<line class="st3" x1="291.335" y1="55.75" x2="291.335" y2="126.75"/>
	<line class="st3" x1="289.335" y1="58.75" x2="268.335" y2="121.75"/>
	<line class="st3" x1="272.335" y1="108.75" x2="291.335" y2="115.75"/>
	<line class="st3" x1="310.335" y1="108.75" x2="290.941" y2="115.75"/>
	<line class="st3" x1="304.335" y1="89.75" x2="291.329" y2="92.627"/>
	<line class="st3" x1="279.335" y1="89.75" x2="291.335" y2="92.627"/>
	<line class="st3" x1="297.335" y1="71.75" x2="291.185" y2="72.699"/>
	<line class="st3" x1="293.335" y1="58.75" x2="314.547" y2="121.75"/>
	<line class="st3" x1="285.185" y1="71.75" x2="291.335" y2="72.699"/>
</g>
</svg>
