<?xml version="1.0" encoding="utf-8"?>
<!-- Generator: Adobe Illustrator 21.0.2, SVG Export Plug-In . SVG Version: 6.00 Build 0)  -->
<svg version="1.1" id="Layer_1" xmlns="http://www.w3.org/2000/svg" xmlns:xlink="http://www.w3.org/1999/xlink" x="0px" y="0px"
	 viewBox="0 0 350 150" style="enable-background:new 0 0 350 150;" xml:space="preserve">
<style type="text/css">
	.st0{fill:#EFAA30;}
	.st1{fill:none;stroke:#808080;stroke-width:2.846;stroke-miterlimit:10;}
	.st2{fill:#CCCCCC;stroke:#808080;stroke-width:2.5025;stroke-miterlimit:10;}
	.st3{fill:none;stroke:#808080;stroke-width:3;stroke-miterlimit:10;}
	.st4{fill:#CCCCCC;}
	.st5{fill:#1D3F71;}
	.st6{fill:#FFFFFF;}
	.st7{fill:none;stroke:#D2DC4F;stroke-width:2;stroke-miterlimit:10;}
	.st8{fill:#808080;}
	.st9{fill:#CCCCCC;stroke:#808080;stroke-width:2.2583;stroke-miterlimit:10;}
	.st10{fill:#8CD1CF;stroke:#808080;stroke-width:3;stroke-miterlimit:10;}
	.st11{fill:#FFFFFF;stroke:#808080;stroke-width:3;stroke-miterlimit:10;}
</style>
<g>
	<rect x="20.174" y="88.497" class="st0" width="68" height="19"/>
	<path class="st1" d="M87.674,40.891v64.361c0,1.24-0.905,2.245-2.021,2.245H22.195c-1.116,0-2.021-1.005-2.021-2.245v-86.51
		c0-1.24,0.905-2.245,2.021-2.245h43.311L87.674,40.891z"/>
	<polyline class="st2" points="87.674,42.926 83.465,42.926 63.174,42.926 63.174,21.727 63.174,16.179 	"/>
	<line class="st3" x1="21.674" y1="88.497" x2="86.674" y2="88.497"/>
</g>
<g>
	<rect x="138.115" y="19.926" class="st4" width="98.808" height="15.653"/>
	<rect x="138.115" y="19.926" class="st3" width="98.808" height="89.025"/>
	<line class="st3" x1="139.582" y1="35.579" x2="236.923" y2="35.579"/>
	<line class="st3" x1="186.541" y1="27.753" x2="229.097" y2="27.753"/>
	<line class="st3" x1="145.452" y1="27.753" x2="150.833" y2="27.753"/>
	<line class="st3" x1="155.235" y1="27.753" x2="160.616" y2="27.753"/>
	<line class="st3" x1="165.018" y1="27.753" x2="170.399" y2="27.753"/>
	<polygon class="st5" points="212.356,84.164 207.575,88.945 203.803,80.391 200.03,71.838 208.584,75.61 217.137,79.383 	"/>
	<polyline class="st5" points="213.528,81.896 220.125,88.493 216.827,91.791 210.144,85.108 	"/>
</g>
<g>
	<path class="st6" d="M283.637,71.896c0.273,0.262,0.588,1.378,0.626,1.799c0.058,0.66-0.122,1.171,0.02,1.858
		c0.128,0.62,0.213,1.255,0.215,1.936c0.005,1.315-0.313,2.472-0.313,3.716c0,0.837-0.177,1.318-0.4,2.07
		c-0.358,1.205-0.703,2.236-1.147,3.345c-0.368,0.92-0.738,2.365-1.465,3.112c-0.741,0.761-0.996,1.753-1.848,2.604
		c-1.398,1.397-2.366,2.602-4.017,3.67c-0.776,0.502-1.522,1.156-2.351,1.558c-0.795,0.385-1.919,1.451-2.813,1.555
		c-0.32-1.073-0.715-2.179-0.998-3.274c-0.608-2.361-1.953-4.46-2.394-6.822c-0.225-1.204-0.813-2.056-1.073-3.254
		c-0.24-1.101-0.503-1.773-0.815-2.959c-0.248-0.944-0.679-2.727-1.548-3.385c-0.25-0.189-1.554-0.54-1.913-0.604
		c-0.549-0.097-1.324,0.467-1.936,0.469c-0.206,1.239-1.02,2.347-1.555,3.494c-0.626,1.343-0.49,2.655-0.793,4.074
		c-0.301,1.409-1.366,2.565-1.762,4.048c-0.382,1.432-0.49,2.685-1.107,4.053c-0.636,1.409-0.947,2.768-1.471,4.161
		c-1.267-0.272-3.218-1.604-4.315-2.373c-1.271-0.891-2.326-1.855-3.277-3.053c-0.983-1.239-2.247-2.122-3.118-3.368
		c-1.047-1.499-1.706-3.095-2.198-4.817c-0.255-0.894-0.575-2.108-0.821-3.051c-0.28-1.069-0.148-1.895-0.469-2.933
		c-0.224-0.724-0.162-1.816-0.156-2.542c0.006-0.863,0.168-1.706,0.374-2.503c0.198-0.768,0.399-1.56,0.558-2.314
		c0.322-1.523,0.813-2.83,1.395-4.197c0.249-0.584,0.767-1.564,1.193-2.015c0.035-0.535,0.663-1.597,1.017-2.034
		c0.546-0.675,1.177-1.184,1.721-1.877c0.579-0.738,1.399-1.643,2.125-2.095c0.763-0.475,1.69-0.923,2.255-1.503
		c0.536-0.124,0.72-0.702,1.141-0.94c0.368-0.208,0.849-0.294,1.223-0.449c0.775-0.32,1.511-0.676,2.251-0.958
		c1.212-0.463,2.585-0.946,3.793-1.018c0.691-0.041,1.418,0.11,2.154-0.001c0.594-0.09,1.068-0.228,1.719-0.233
		c1.076-0.008,1.885,0.176,2.816,0.313c0.847,0.125,1.548,0.06,2.366,0.291c1.255,0.355,2.995,0.635,4.205,1.352
		c2.112,1.252,5.134,2.641,6.823,4.617c0.375,0.439,0.756,0.792,1.173,1.238c0.507,0.544,0.84,1.082,1.254,1.735
		c0.763,1.203,1.768,2.256,2.413,3.602c0.597,1.245,1.227,2.348,1.165,3.748"/>
	<path class="st7" d="M267.492,90.545c4.822-2.235,8.167-7.118,8.167-12.782c0-7.776-6.304-14.08-14.08-14.08
		c-7.776,0-14.08,6.304-14.08,14.08c0,5.663,3.343,10.546,8.164,12.781"/>
	<circle class="st8" cx="261.578" cy="75.886" r="4.693"/>
	<path class="st7" d="M252.909,99.071c-8.405-3.423-14.329-11.673-14.329-21.308c0-12.701,10.296-22.998,22.998-22.998
		c12.701,0,22.998,10.296,22.998,22.998c0,9.612-5.897,17.847-14.27,21.284"/>
	<path class="st7" d="M249.382,107.801c-11.841-4.822-20.188-16.447-20.188-30.021c0-17.895,14.507-32.401,32.401-32.401
		s32.401,14.507,32.401,32.401c0,13.542-8.308,25.144-20.105,29.987"/>
	<line class="st3" x1="261.578" y1="75.886" x2="261.578" y2="142.532"/>
	<line class="st3" x1="259.701" y1="78.702" x2="239.988" y2="137.839"/>
	<line class="st3" x1="243.743" y1="125.636" x2="261.578" y2="132.207"/>
	<line class="st3" x1="279.413" y1="125.636" x2="261.209" y2="132.207"/>
	<line class="st3" x1="273.781" y1="107.801" x2="261.573" y2="110.501"/>
	<line class="st3" x1="250.314" y1="107.801" x2="261.578" y2="110.501"/>
	<line class="st3" x1="267.21" y1="90.905" x2="261.438" y2="91.796"/>
	<line class="st3" x1="263.455" y1="78.702" x2="283.367" y2="137.839"/>
	<line class="st3" x1="255.806" y1="90.905" x2="261.578" y2="91.796"/>
</g>
<g>
	<path class="st3" d="M170.628,135.409H64.788c-0.044,0-0.08-0.036-0.08-0.08v-75.84c0-0.044,0.036-0.08,0.08-0.08h105.84
		c0.044,0,0.08,0.036,0.08,0.08v75.84C170.708,135.373,170.673,135.409,170.628,135.409z"/>
	<rect x="103.708" y="135.409" class="st9" width="29" height="8.5"/>
	<line class="st3" x1="86.708" y1="143.909" x2="151.708" y2="143.909"/>
	<path class="st10" d="M165.141,124.909H70.275c-0.037,0-0.067-0.03-0.067-0.067V65.136c0-0.037,0.03-0.067,0.067-0.067h94.866
		c0.037,0,0.067,0.03,0.067,0.067v59.705C165.208,124.879,165.178,124.909,165.141,124.909z"/>
	<line class="st3" x1="137.708" y1="129.909" x2="143.208" y2="129.909"/>
	<line class="st3" x1="147.708" y1="129.909" x2="153.208" y2="129.909"/>
	<line class="st3" x1="157.708" y1="129.909" x2="163.208" y2="129.909"/>
</g>
<g>
	<g>
		<g>
			<path class="st11" d="M282.524,24.152c6.88,8.075,15.528,12.491,26.084,13.229c-0.079-0.782-0.171-1.496-0.221-2.212
				c-0.196-2.83,0.495-5.457,2.12-7.757c2.947-4.172,7.023-6.041,12.118-5.49c2.769,0.299,5.172,1.484,7.165,3.44
				c0.347,0.34,0.643,0.407,1.106,0.298c2.329-0.547,4.554-1.353,6.645-2.522c0.204-0.114,0.416-0.215,0.747-0.385
				c-0.989,2.979-2.783,5.179-5.268,6.878c2.376-0.235,4.632-0.885,6.879-1.711c-0.45,0.603-0.875,1.227-1.355,1.805
				c-1.319,1.59-2.781,3.037-4.45,4.261c-0.29,0.213-0.39,0.445-0.382,0.804c0.187,8.371-2.237,15.95-7.093,22.73
				c-4.291,5.991-9.945,10.233-16.948,12.588c-5.429,1.825-11.006,2.325-16.688,1.591c-5.231-0.676-10.07-2.444-14.543-5.301
				c6.796,0.58,12.941-1.09,18.392-5.273c-2.643-0.169-5.047-0.978-7.163-2.557c-2.129-1.588-3.608-3.652-4.506-6.268
				c1.899,0.267,3.714,0.272,5.62-0.263c-3.008-0.707-5.426-2.171-7.285-4.5c-1.853-2.321-2.782-4.974-2.772-8.065
				c1.77,0.916,3.57,1.466,5.678,1.55c-2.762-2.006-4.544-4.521-5.259-7.723C280.432,30.104,280.903,27.072,282.524,24.152z"/>
		</g>
	</g>
</g>
</svg>
