<?xml version="1.0" encoding="utf-8"?>
<!-- Generator: Adobe Illustrator 21.0.2, SVG Export Plug-In . SVG Version: 6.00 Build 0)  -->
<svg version="1.1" id="Layer_1" xmlns="http://www.w3.org/2000/svg" xmlns:xlink="http://www.w3.org/1999/xlink" x="0px" y="0px"
	 viewBox="0 0 350 150" style="enable-background:new 0 0 350 150;" xml:space="preserve">
<style type="text/css">
	.st0{fill:#EFAA30;}
	.st1{fill:none;stroke:#808080;stroke-width:2.846;stroke-miterlimit:10;}
	.st2{fill:#CCCCCC;stroke:#808080;stroke-width:2.5025;stroke-miterlimit:10;}
	.st3{fill:none;stroke:#808080;stroke-width:3;stroke-miterlimit:10;}
	.st4{fill:#CCCCCC;stroke:#808080;stroke-width:2.2583;stroke-miterlimit:10;}
	.st5{fill:#8CD1CF;stroke:#808080;stroke-width:3;stroke-miterlimit:10;}
	.st6{fill:#FFFFFF;}
	.st7{fill:none;stroke:#D2DC4F;stroke-width:2;stroke-miterlimit:10;}
	.st8{fill:#808080;}
</style>
<g>
	<rect x="23.455" y="100.967" class="st0" width="68" height="19"/>
	<path class="st1" d="M90.955,53.361v64.361c0,1.24-0.905,2.245-2.021,2.245H25.476c-1.116,0-2.021-1.005-2.021-2.245v-86.51
		c0-1.24,0.905-2.245,2.021-2.245h43.311L90.955,53.361z"/>
	<polyline class="st2" points="90.955,55.396 86.746,55.396 66.455,55.396 66.455,34.197 66.455,28.649 	"/>
	<line class="st3" x1="24.955" y1="100.967" x2="89.955" y2="100.967"/>
</g>
<g>
	<path class="st3" d="M230.612,108.217h-105.84c-0.044,0-0.08-0.036-0.08-0.08v-75.84c0-0.044,0.036-0.08,0.08-0.08h105.84
		c0.044,0,0.08,0.036,0.08,0.08v75.84C230.692,108.182,230.657,108.217,230.612,108.217z"/>
	<rect x="163.692" y="108.217" class="st4" width="29" height="8.5"/>
	<line class="st3" x1="146.692" y1="116.717" x2="211.692" y2="116.717"/>
	<path class="st5" d="M225.125,97.717h-94.866c-0.037,0-0.067-0.03-0.067-0.067V37.945c0-0.037,0.03-0.067,0.067-0.067h94.866
		c0.037,0,0.067,0.03,0.067,0.067V97.65C225.192,97.687,225.162,97.717,225.125,97.717z"/>
	<line class="st3" x1="197.692" y1="102.717" x2="203.192" y2="102.717"/>
	<line class="st3" x1="207.692" y1="102.717" x2="213.192" y2="102.717"/>
	<line class="st3" x1="217.692" y1="102.717" x2="223.192" y2="102.717"/>
</g>
<g>
	<path class="st6" d="M319.333,53.198c0.291,0.28,0.627,1.468,0.666,1.917c0.062,0.703-0.13,1.248,0.021,1.979
		c0.136,0.661,0.227,1.337,0.23,2.062c0.005,1.401-0.334,2.634-0.333,3.958c0,0.892-0.188,1.404-0.426,2.205
		c-0.381,1.284-0.749,2.382-1.222,3.563c-0.393,0.981-0.786,2.519-1.56,3.315c-0.789,0.811-1.061,1.867-1.969,2.774
		c-1.489,1.488-2.521,2.772-4.28,3.91c-0.827,0.535-1.622,1.232-2.505,1.66c-0.847,0.41-2.044,1.546-2.997,1.656
		c-0.341-1.143-0.762-2.321-1.063-3.488c-0.648-2.515-2.081-4.751-2.55-7.267c-0.239-1.283-0.866-2.19-1.144-3.466
		c-0.255-1.173-0.536-1.889-0.869-3.153c-0.264-1.005-0.724-2.905-1.65-3.606c-0.267-0.202-1.655-0.576-2.038-0.644
		c-0.585-0.104-1.41,0.497-2.062,0.5c-0.22,1.319-1.086,2.5-1.656,3.722c-0.667,1.431-0.522,2.829-0.845,4.34
		c-0.321,1.501-1.455,2.733-1.877,4.313c-0.407,1.526-0.522,2.86-1.179,4.317c-0.677,1.501-1.009,2.949-1.567,4.433
		c-1.35-0.29-3.428-1.709-4.597-2.528c-1.354-0.949-2.477-1.976-3.491-3.253c-1.048-1.32-2.394-2.261-3.321-3.588
		c-1.116-1.597-1.817-3.297-2.341-5.131c-0.272-0.953-0.612-2.246-0.875-3.25c-0.298-1.139-0.158-2.019-0.5-3.125
		c-0.238-0.771-0.172-1.935-0.167-2.708c0.007-0.92,0.179-1.817,0.398-2.667c0.211-0.819,0.425-1.662,0.595-2.465
		c0.343-1.623,0.866-3.015,1.487-4.472c0.265-0.622,0.817-1.666,1.27-2.146c0.037-0.57,0.706-1.701,1.083-2.167
		c0.582-0.719,1.254-1.261,1.833-2c0.617-0.786,1.49-1.75,2.264-2.232c0.813-0.506,1.8-0.983,2.403-1.602
		c0.571-0.132,0.767-0.748,1.215-1.001c0.392-0.222,0.905-0.313,1.303-0.478c0.825-0.341,1.61-0.72,2.398-1.021
		c1.291-0.493,2.754-1.008,4.041-1.084c0.736-0.044,1.511,0.118,2.295-0.001c0.633-0.096,1.137-0.243,1.831-0.248
		c1.146-0.008,2.009,0.187,3,0.333c0.902,0.133,1.649,0.064,2.52,0.31c1.337,0.378,3.191,0.676,4.479,1.44
		c2.25,1.333,5.469,2.814,7.269,4.918c0.4,0.468,0.806,0.843,1.25,1.319c0.541,0.58,0.895,1.152,1.336,1.848
		c0.813,1.282,1.883,2.403,2.571,3.838c0.636,1.326,1.307,2.501,1.241,3.993"/>
	<path class="st7" d="M302.133,73.065c5.137-2.381,8.7-7.583,8.7-13.617c0-8.284-6.716-15-15-15s-15,6.716-15,15
		c0,6.033,3.562,11.234,8.697,13.616"/>
	<circle class="st8" cx="295.833" cy="57.448" r="5"/>
	<path class="st7" d="M286.598,82.148c-8.954-3.646-15.265-12.436-15.265-22.7c0-13.531,10.969-24.5,24.5-24.5
		c13.531,0,24.5,10.969,24.5,24.5c0,10.24-6.282,19.013-15.202,22.674"/>
	<path class="st7" d="M282.84,91.448c-12.615-5.137-21.507-17.521-21.507-31.982c0-19.064,15.454-34.518,34.518-34.518
		c19.064,0,34.518,15.454,34.518,34.518c0,14.427-8.851,26.787-21.419,31.946"/>
	<line class="st3" x1="295.833" y1="57.448" x2="295.833" y2="128.448"/>
	<line class="st3" x1="293.833" y1="60.448" x2="272.833" y2="123.448"/>
	<line class="st3" x1="276.833" y1="110.448" x2="295.833" y2="117.448"/>
	<line class="st3" x1="314.833" y1="110.448" x2="295.439" y2="117.448"/>
	<line class="st3" x1="308.833" y1="91.448" x2="295.827" y2="94.325"/>
	<line class="st3" x1="283.833" y1="91.448" x2="295.833" y2="94.325"/>
	<line class="st3" x1="301.833" y1="73.448" x2="295.683" y2="74.398"/>
	<line class="st3" x1="297.833" y1="60.448" x2="319.045" y2="123.448"/>
	<line class="st3" x1="289.683" y1="73.448" x2="295.833" y2="74.398"/>
</g>
<g>
</g>
<g>
</g>
<g>
</g>
<g>
</g>
<g>
</g>
</svg>
