<?xml version="1.0" encoding="utf-8"?>
<!-- Generator: Adobe Illustrator 21.0.2, SVG Export Plug-In . SVG Version: 6.00 Build 0)  -->
<svg version="1.1" id="Layer_1" xmlns="http://www.w3.org/2000/svg" xmlns:xlink="http://www.w3.org/1999/xlink" x="0px" y="0px"
	 viewBox="0 0 400 400" style="enable-background:new 0 0 400 400;" xml:space="preserve">
<style type="text/css">
	.st0{fill:#FFFFFF;}
</style>
<path class="st0" d="M293.399,93.023c1.144,1.098,2.462,5.766,2.618,7.531c0.244,2.761-0.512,4.902,0.082,7.775
	c0.536,2.595,0.891,5.252,0.902,8.101c0.021,5.505-1.311,10.347-1.309,15.55c0.001,3.504-0.739,5.515-1.674,8.662
	c-1.499,5.045-2.943,9.358-4.801,13.999c-1.542,3.852-3.088,9.897-6.129,13.022c-3.1,3.186-4.168,7.335-7.735,10.899
	c-5.851,5.846-9.903,10.89-16.812,15.358c-3.247,2.1-6.37,4.84-9.839,6.52c-3.327,1.612-8.031,6.073-11.772,6.506
	c-1.338-4.492-2.994-9.119-4.175-13.704c-2.545-9.88-8.175-18.665-10.018-28.55c-0.94-5.04-3.401-8.603-4.492-13.617
	c-1.003-4.607-2.107-7.419-3.412-12.386c-1.038-3.949-2.843-11.414-6.48-14.166c-1.047-0.793-6.503-2.262-8.007-2.529
	c-2.298-0.408-5.541,1.954-8.101,1.963c-0.863,5.183-4.267,9.82-6.506,14.622c-2.621,5.62-2.051,11.112-3.321,17.05
	c-1.261,5.897-5.716,10.735-7.372,16.942c-1.6,5.993-2.05,11.237-4.633,16.96c-2.661,5.897-3.964,11.583-6.157,17.413
	c-5.302-1.139-13.467-6.712-18.058-9.932c-5.318-3.73-9.733-7.762-13.713-12.778c-4.115-5.185-9.405-8.881-13.047-14.094
	c-4.383-6.272-7.14-12.951-9.197-20.158c-1.068-3.743-2.406-8.823-3.437-12.767c-1.171-4.476-0.621-7.93-1.964-12.276
	c-0.936-3.029-0.677-7.6-0.655-10.639c0.026-3.614,0.705-7.138,1.564-10.476c0.828-3.216,1.67-6.53,2.336-9.685
	c1.347-6.374,3.402-11.843,5.84-17.567c1.04-2.442,3.209-6.545,4.991-8.431c0.145-2.241,2.774-6.683,4.256-8.513
	c2.286-2.824,4.924-4.955,7.202-7.856c2.425-3.088,5.854-6.875,8.894-8.767c3.193-1.987,7.071-3.863,9.439-6.292
	c2.245-0.52,3.015-2.938,4.775-3.932c1.541-0.87,3.554-1.231,5.12-1.879c3.242-1.34,6.325-2.828,9.42-4.01
	c5.071-1.937,10.819-3.959,15.874-4.258c2.892-0.171,5.935,0.462,9.014-0.005c2.487-0.378,4.468-0.955,7.195-0.975
	c4.501-0.033,7.89,0.735,11.786,1.308c3.543,0.521,6.477,0.252,9.901,1.22c5.253,1.484,12.534,2.656,17.597,5.656
	c8.839,5.238,21.485,11.053,28.554,19.321c1.571,1.837,3.165,3.313,4.909,5.183c2.124,2.277,3.516,4.527,5.249,7.26
	c3.193,5.035,7.397,9.442,10.1,15.076c2.498,5.208,5.136,9.826,4.877,15.687"/>
<circle cx="201.081" cy="113.647" r="15.714"/>
<rect x="198.135" y="109.718" width="5.893" height="278.917"/>
<rect x="21.538" y="242.3" transform="matrix(0.3162 -0.9487 0.9487 0.3162 -128.7458 311.8712)" width="260.877" height="5.896"/>
<rect x="160.813" y="291.901" transform="matrix(0.3457 -0.9383 0.9383 0.3457 -204.0751 370.6764)" width="5.896" height="79.544"/>
<rect x="197.13" y="328.728" transform="matrix(0.9404 -0.34 0.34 0.9404 -98.6036 100.5402)" width="80.997" height="5.891"/>
<rect x="200.441" y="245.988" transform="matrix(0.9764 -0.2161 0.2161 0.9764 -48.4411 54.8522)" width="52.327" height="5.894"/>
<rect x="174.564" y="224.697" transform="matrix(0.2331 -0.9724 0.9724 0.2331 -105.9491 363.5176)" width="5.894" height="48.477"/>
<path d="M226.654,172.849l-1.65-3.564c20.068-9.301,33.039-29.599,33.039-51.71c0-31.408-25.554-56.962-56.962-56.962
	s-56.962,25.554-56.962,56.962c0,22.107,12.963,42.403,33.027,51.706l-1.65,3.564c-21.449-9.944-35.306-31.638-35.306-55.27
	c0-33.576,27.315-60.89,60.89-60.89s60.89,27.315,60.89,60.89C261.972,141.211,248.111,162.907,226.654,172.849z"/>
<rect x="200.351" y="171.491" transform="matrix(0.9883 -0.1524 0.1524 0.9883 -24.0942 34.4219)" width="24.443" height="5.892"/>
<rect x="247.658" y="114.677" transform="matrix(0.9477 -0.3191 0.3191 0.9477 -65.1588 92.7921)" width="5.894" height="261.143"/>
<rect x="186.056" y="162.215" transform="matrix(0.1526 -0.9883 0.9883 0.1526 -12.2257 334.6167)" width="5.892" height="24.443"/>
<path d="M164.061,208.569c-37.17-15.138-61.19-50.856-61.19-90.994c0-54.154,44.056-98.21,98.21-98.21s98.21,44.056,98.21,98.21
	c0,40.019-23.92,75.695-60.94,90.89l-1.488-3.637c35.536-14.586,58.5-48.835,58.5-87.254c0-51.986-42.296-94.282-94.282-94.282
	s-94.282,42.296-94.282,94.282c0,38.534,23.056,72.821,58.742,87.357L164.061,208.569z"/>
<g>
</g>
<g>
</g>
<g>
</g>
<g>
</g>
<g>
</g>
</svg>
