<?xml version="1.0" encoding="utf-8"?>
<!-- Generator: Adobe Illustrator 21.0.2, SVG Export Plug-In . SVG Version: 6.00 Build 0)  -->
<svg version="1.1" id="Layer_1" xmlns="http://www.w3.org/2000/svg" xmlns:xlink="http://www.w3.org/1999/xlink" x="0px" y="0px"
	 viewBox="0 0 400 400" style="enable-background:new 0 0 400 400;" xml:space="preserve">
<path d="M144.794,254.323c-6.964,0-13.824-2.54-19.141-7.318L12.062,144.949c-2.946-2.647-4.209-6.539-3.378-10.412
	c0.831-3.874,3.581-6.904,7.356-8.108l225.597-71.948c8.423-2.693,17.531-0.948,24.383,4.641v0.002l121.755,99.485
	c3.138,2.563,4.563,6.47,3.823,10.453c-0.745,3.983-3.485,7.112-7.336,8.375l-230.613,75.474
	C150.755,253.858,147.765,254.323,144.794,254.323z M249.568,60.26c-1.937,0-3.892,0.297-5.801,0.904L18.174,133.112
	c-1.946,0.621-2.487,2.234-2.629,2.898c-0.144,0.665-0.311,2.357,1.206,3.718l113.59,102.061c5.726,5.134,13.82,6.852,21.126,4.454
	l230.613-75.474c1.982-0.649,2.494-2.309,2.622-2.992c0.265-1.423-0.247-2.821-1.366-3.736L261.581,64.556
	C258.128,61.738,253.889,60.26,249.568,60.26z"/>
<path d="M144.794,301.098c-6.964,0-13.824-2.54-19.141-7.318L12.062,191.724c-2.946-2.647-4.209-6.539-3.378-10.412
	c0.831-3.874,3.581-6.904,7.356-8.108l26.105-8.325l2.133,6.683l-26.105,8.325c-1.946,0.621-2.487,2.234-2.629,2.898
	c-0.144,0.665-0.311,2.357,1.206,3.718l113.59,102.061c5.726,5.134,13.82,6.852,21.126,4.454l230.613-75.474
	c1.982-0.649,2.494-2.307,2.622-2.992c0.128-0.681,0.247-2.412-1.366-3.732l-30.125-24.616l4.44-5.431l30.125,24.611
	c3.138,2.567,4.563,6.473,3.823,10.456c-0.745,3.979-3.485,7.112-7.336,8.373l-230.613,75.474
	C150.755,300.632,147.765,301.098,144.794,301.098z"/>
<path d="M144.794,347.872c-6.964,0-13.824-2.54-19.141-7.318L12.062,238.496c-2.946-2.645-4.209-6.537-3.378-10.41
	c0.834-3.874,3.583-6.907,7.359-8.108l26.1-8.327l2.133,6.687l-26.103,8.327c-1.944,0.617-2.487,2.229-2.629,2.891
	c-0.144,0.667-0.311,2.357,1.206,3.718l113.59,102.063c5.726,5.139,13.82,6.852,21.126,4.454l230.613-75.474
	c1.982-0.649,2.494-2.307,2.622-2.992c0.128-0.681,0.247-2.412-1.366-3.732l-30.39-24.835l4.44-5.436l30.39,24.835
	c3.138,2.567,4.563,6.473,3.823,10.456c-0.745,3.979-3.485,7.112-7.336,8.373l-230.613,75.474
	C150.755,347.406,147.765,347.872,144.794,347.872z"/>
<rect x="166.475" y="70.031" transform="matrix(0.6549 -0.7557 0.7557 0.6549 -64.7033 184.0554)" width="5.416" height="185.689"/>
<rect x="227.281" y="50.497" transform="matrix(0.6402 -0.7682 0.7682 0.6402 -26.2014 227.713)" width="5.418" height="182.66"/>
<rect x="231.959" y="221.344" width="5.417" height="93.549"/>
<rect x="297.443" y="202.634" width="5.417" height="93.549"/>
<path d="M300.152,293.844c0.065-3.484-1.473-5.811-1.753-9.064c-0.344-3.998,1.075-7.026,1.785-10.811
	c1.226-6.533,0.303-13.785-0.032-20.466c-0.302-6.006,0.682-12.573-0.457-18.257c-1.558-7.78-0.657-10.851,0.779-18.578
	c1.076-5.789-0.51-11.3-1.492-16.958c-4.385-3.774-7.814-6.946-12.393-10.964c-7.774-6.821-18.343-11.587-25.621-19.232
	c-3.576-3.756-6.707-7.323-10.985-10.877c-3.071-2.55-9.869-6.651-11.223-9.795c-1.73-4.015-6.256-4.465-9.515-6.856
	c-2.493-1.829-4.446-5.095-6.856-7.176c-10.855-9.378-22.932-17.535-33.604-26.326c-5.175-4.263-10.185-8.624-15.555-13.287
	c-4.965-4.311-8.632-10.25-15.156-11.839c-7.768,4.436-18.843,5.277-26.865,8.189c-9.439,3.426-18.584,8.084-28.095,9.936
	c-0.641,1.304-0.699,2.466-0.483,3.991c4.502,1.201,9.711,7.658,13.201,10.771c4.895,4.367,9.529,8.306,14.601,12.718
	c4.153,3.612,7.762,7.973,11.628,11.335c4.691,4.08,10.39,5.281,14.272,10.154c3.533,4.435,11.294,10.639,13.534,15.247
	c10.721,3.78,17.863,14.164,26.794,20.855c9.097,6.814,15.534,15.201,24.541,22.071c4.677,3.567,9.176,7.019,13.464,10.962
	c0.021,6.405,1.126,12.931,0.598,19.308c-0.504,6.097-2.478,12.312-1.768,18.989c1.306,12.271,1.83,25.558,1.169,38.297
	c-0.294,5.676-4.128,15.209-0.585,19.879c12.967-1.602,24.128-4.477,36.235-9.795c5.741-2.522,11.348-5.1,16.968-7.161
	c4.546-1.667,11.177-2.392,14.035-5.262"/>
<g>
</g>
<g>
</g>
<g>
</g>
<g>
</g>
<g>
</g>
</svg>
