<?xml version="1.0" encoding="utf-8"?>
<!-- Generator: Adobe Illustrator 21.0.2, SVG Export Plug-In . SVG Version: 6.00 Build 0)  -->
<svg version="1.1" id="Layer_1" xmlns="http://www.w3.org/2000/svg" xmlns:xlink="http://www.w3.org/1999/xlink" x="0px" y="0px"
	 viewBox="0 0 400 400" style="enable-background:new 0 0 400 400;" xml:space="preserve">
<g>
	<g>
		<path d="M34.588,52.916c42.548,49.936,96.026,77.24,161.3,81.808c-0.49-4.837-1.058-9.249-1.365-13.68
			c-1.21-17.503,3.062-33.747,13.107-47.971c18.221-25.799,43.428-37.356,74.936-33.951c17.121,1.851,31.98,9.178,44.306,21.273
			c2.145,2.105,3.976,2.514,6.842,1.841c14.402-3.381,28.162-8.366,41.09-15.593c1.263-0.706,2.572-1.33,4.617-2.381
			c-6.118,18.425-17.212,32.026-32.576,42.532c14.693-1.452,28.642-5.471,42.539-10.58c-2.783,3.729-5.412,7.585-8.379,11.162
			c-8.156,9.832-17.197,18.781-27.521,26.352c-1.796,1.317-2.41,2.751-2.36,4.972c1.154,51.766-13.832,98.635-43.863,140.561
			c-26.536,37.047-61.498,63.282-104.806,77.841c-33.571,11.285-68.061,14.376-103.194,9.837
			c-32.347-4.179-62.27-15.115-89.929-32.78c42.029,3.588,80.028-6.739,113.734-32.61c-16.346-1.046-31.208-6.05-44.295-15.812
			c-13.163-9.819-22.31-22.585-27.864-38.761c11.742,1.653,22.966,1.682,34.756-1.624c-18.599-4.372-33.554-13.428-45.05-27.828
			C29.154,183.17,23.408,166.766,23.47,147.65c10.946,5.664,22.074,9.068,35.112,9.586c-17.081-12.405-28.101-27.96-32.521-47.755
			C21.648,89.721,24.565,70.971,34.588,52.916z"/>
	</g>
</g>
<rect x="297.231" y="312.157" width="6.413" height="51.303"/>
<rect x="274.786" y="334.602" width="51.303" height="6.413"/>
<g>
</g>
<g>
</g>
<g>
</g>
<g>
</g>
<g>
</g>
</svg>
