<?xml version="1.0" encoding="utf-8"?>
<!-- Generator: Adobe Illustrator 21.0.2, SVG Export Plug-In . SVG Version: 6.00 Build 0)  -->
<svg version="1.1" id="Layer_1" xmlns="http://www.w3.org/2000/svg" xmlns:xlink="http://www.w3.org/1999/xlink" x="0px" y="0px"
	 viewBox="0 0 112.6 107.8" style="enable-background:new 0 0 112.6 107.8;" xml:space="preserve">
<style type="text/css">
	.st0{fill:#1F3C73;}
	.st1{fill:#8D9EA5;}
	.st2{fill:#EEAB20;}
</style>
<g>
	<g>
		<path class="st0" d="M61.8,90.3c-4.5,0-8.8-0.8-12.7-2.2c-11.6-5.2-19.6-16.8-19.6-30.3c0-13.3,7.8-24.8,19.1-30.1
			c-13,3.8-22.8,15.3-24,29.2c-0.1-1.3-0.2-2.7-0.2-4c0-20.7,16.8-37.5,37.5-37.5c3.9,0,7.7,0.6,11.2,1.7c-5-2.2-10.5-3.4-16.3-3.4
			c-22.3,0-40.3,18.1-40.3,40.3s18.1,40.3,40.3,40.3c12.1,0,23-5.4,30.4-13.9C80.5,86.5,71.6,90.3,61.8,90.3z"/>
		<path class="st1" d="M88.7,41c-4.3-9.6-13.8-15.3-23.8-15.2c7.6,1.9,14.3,7.1,17.7,14.8c5.9,13.2-0.1,28.7-13.4,34.6
			c-2.2,1-4.4,1.6-6.6,2c4.3,0.4,8.7-0.3,12.9-2.1C88.5,69.2,94.4,54,88.7,41z"/>
		<path class="st2" d="M44,43.8c7.6-7.9,20.1-8.2,28-0.6c1,0.9,1.8,1.9,2.5,3c-0.8-2.9-2.3-5.6-4.6-7.8c-6.8-6.5-17.5-6.2-23.9,0.5
			c-2.1,2.2-3.5,4.9-4.2,7.7C42.5,45.6,43.2,44.7,44,43.8z"/>
	</g>
</g>
</svg>
