<?xml version="1.0" encoding="utf-8"?>
<!-- Generator: Adobe Illustrator 21.0.2, SVG Export Plug-In . SVG Version: 6.00 Build 0)  -->
<svg version="1.1" id="Layer_1" xmlns="http://www.w3.org/2000/svg" xmlns:xlink="http://www.w3.org/1999/xlink" x="0px" y="0px"
	 viewBox="0 0 252 107.8" style="enable-background:new 0 0 252 107.8;" xml:space="preserve">
<style type="text/css">
	.st0{fill:#1F3C73;}
	.st1{fill:#8D9EA5;}
	.st2{fill:#EEAB20;}
</style>
<g>
	<g>
		<path class="st0" d="M61.8,90.3c-4.5,0-8.8-0.8-12.7-2.2c-11.6-5.2-19.6-16.8-19.6-30.3c0-13.3,7.8-24.8,19.1-30.1
			c-13,3.8-22.8,15.3-24,29.2c-0.1-1.3-0.2-2.7-0.2-4c0-20.7,16.8-37.5,37.5-37.5c3.9,0,7.7,0.6,11.2,1.7c-5-2.2-10.5-3.4-16.3-3.4
			c-22.3,0-40.3,18.1-40.3,40.3s18.1,40.3,40.3,40.3c12.1,0,23-5.4,30.4-13.9C80.5,86.5,71.6,90.3,61.8,90.3z"/>
		<path class="st1" d="M88.7,41c-4.3-9.6-13.8-15.3-23.8-15.2c7.6,1.9,14.3,7.1,17.7,14.8c5.9,13.2-0.1,28.7-13.4,34.6
			c-2.2,1-4.4,1.6-6.6,2c4.3,0.4,8.7-0.3,12.9-2.1C88.5,69.2,94.4,54,88.7,41z"/>
		<path class="st2" d="M44,43.8c7.6-7.9,20.1-8.2,28-0.6c1,0.9,1.8,1.9,2.5,3c-0.8-2.9-2.3-5.6-4.6-7.8c-6.8-6.5-17.5-6.2-23.9,0.5
			c-2.1,2.2-3.5,4.9-4.2,7.7C42.5,45.6,43.2,44.7,44,43.8z"/>
	</g>
	<g>
		<path class="st0" d="M101.3,22.4h2v3.7l3.6-3.7h2.4l-3.6,3.6l3.8,4.9h-2.4l-2.8-3.6l-1,1v2.6h-2V22.4z"/>
		<path class="st0" d="M111,22.4h6.7v1.7H113v1.7h4.2v1.7H113v1.8h4.8v1.7H111V22.4z"/>
		<path class="st0" d="M120.4,22.4h1.8l4.2,5.2v-5.2h1.9v8.5h-1.7l-4.3-5.4v5.4h-1.9V22.4z"/>
		<path class="st0" d="M133.1,24.1h-2.7v-1.7h7.4v1.7H135v6.8h-2V24.1z"/>
		<path class="st0" d="M144.3,29.7l1.2-1.3c0.8,0.6,1.6,1,2.7,1c0.8,0,1.3-0.3,1.3-0.8v0c0-0.5-0.3-0.7-1.8-1.1
			c-1.8-0.4-3-0.9-3-2.6v0c0-1.5,1.3-2.6,3.1-2.6c1.3,0,2.4,0.4,3.3,1.1l-1,1.4c-0.8-0.5-1.6-0.8-2.3-0.8c-0.8,0-1.1,0.3-1.1,0.7v0
			c0,0.6,0.4,0.7,1.9,1.1c1.8,0.4,2.8,1.1,2.8,2.5v0c0,1.7-1.4,2.6-3.3,2.6C146.7,31,145.4,30.6,144.3,29.7z"/>
		<path class="st0" d="M155.7,24.1H153v-1.7h7.4v1.7h-2.7v6.8h-2V24.1z"/>
		<path class="st0" d="M164.7,22.4h1.8l3.8,8.5h-2.1l-0.8-1.9h-3.8l-0.8,1.9h-2L164.7,22.4z M166.7,27.4l-1.2-2.8l-1.2,2.8H166.7z"
			/>
		<path class="st0" d="M173.5,24.1h-2.7v-1.7h7.4v1.7h-2.7v6.8h-2V24.1z"/>
		<path class="st0" d="M180.3,22.4h6.7v1.7h-4.8v1.7h4.2v1.7h-4.2v1.8h4.8v1.7h-6.8V22.4z"/>
	</g>
	<g>
		<path class="st0" d="M103.7,57.4c-1.4-0.5-2.7-1.3-3.8-2.4l2.1-2.5c1,0.9,2,1.5,3,1.9s2.1,0.6,3.3,0.6c1.1,0,1.9-0.2,2.5-0.7
			c0.6-0.5,0.9-1.1,0.9-1.8v-0.1c0-0.5-0.1-0.9-0.4-1.2c-0.2-0.3-0.7-0.6-1.3-0.9c-0.6-0.3-1.6-0.6-2.8-0.8
			c-1.5-0.4-2.7-0.8-3.7-1.2c-0.9-0.4-1.6-1-2.1-1.8c-0.5-0.7-0.7-1.7-0.7-2.9v-0.1c0-1.1,0.3-2.1,0.9-3c0.6-0.9,1.4-1.5,2.4-2
			c1-0.5,2.2-0.7,3.5-0.7c1.4,0,2.7,0.2,3.9,0.6c1.2,0.4,2.3,1,3.3,1.9l-1.9,2.6c-1.8-1.4-3.6-2-5.3-2c-1,0-1.8,0.2-2.3,0.7
			c-0.6,0.4-0.9,1-0.9,1.7v0.1c0,0.5,0.1,1,0.4,1.3c0.3,0.3,0.7,0.6,1.4,0.9c0.7,0.3,1.6,0.6,2.9,0.9c2.2,0.5,3.8,1.2,4.8,2.1
			c1,0.9,1.5,2.1,1.5,3.7v0.1c0,1.2-0.3,2.2-0.9,3.1c-0.6,0.9-1.4,1.6-2.5,2c-1.1,0.5-2.3,0.7-3.7,0.7
			C106.6,58.2,105.1,57.9,103.7,57.4z"/>
		<path class="st0" d="M117.5,41.4v-3.2h16v3.2h-6.2v16.5h-3.5V41.4H117.5z"/>
		<path class="st0" d="M139.2,56c-1.5-1.5-2.2-3.6-2.2-6.4V38.2h3.5v11.2c0,1.8,0.4,3.2,1.3,4.2c0.9,1,2.1,1.5,3.7,1.5
			s2.8-0.5,3.6-1.4s1.3-2.3,1.3-4.1V38.2h3.5v11.2c0,2.9-0.8,5.1-2.3,6.6c-1.5,1.5-3.6,2.3-6.2,2.3C142.8,58.2,140.7,57.5,139.2,56z
			"/>
		<path class="st0" d="M165.8,38.2c2,0,3.8,0.4,5.4,1.3s2.8,2,3.7,3.5c0.9,1.5,1.3,3.2,1.3,5V48c0,1.8-0.4,3.5-1.3,5
			s-2.1,2.7-3.7,3.5c-1.6,0.9-3.4,1.3-5.4,1.3h-7.3V38.2H165.8z M169.3,53.9c1-0.6,1.8-1.4,2.4-2.4c0.6-1,0.8-2.1,0.8-3.4V48
			c0-1.3-0.3-2.4-0.8-3.4c-0.6-1-1.4-1.8-2.4-2.4c-1-0.6-2.2-0.9-3.6-0.9h-3.9v13.4h3.9C167.1,54.7,168.3,54.4,169.3,53.9z"/>
		<path class="st0" d="M194.9,38.2v3.1h-11.1v5.1h9.9v3.1h-9.9v5.3H195v3.1h-14.8V38.2H194.9z"/>
		<path class="st0" d="M202.5,38.2L213,51.8V38.2h3.4v19.7h-2.9l-10.9-14v14h-3.4V38.2H202.5z"/>
		<path class="st0" d="M219.7,41.4v-3.2h16v3.2h-6.2v16.5h-3.5V41.4H219.7z"/>
		<path class="st0" d="M104.9,64.9l6,9.3l6-9.3h3.7v19.7h-3.5V70.5l-6.2,9.3h-0.1l-6.2-9.2v14.1h-3.4V64.9H104.9z"/>
		<path class="st0" d="M139.9,64.9V68h-11.1v5.1h9.9v3.1h-9.9v5.3h11.3v3.1h-14.8V64.9H139.9z"/>
		<path class="st0" d="M151.7,64.9c2,0,3.8,0.4,5.4,1.3s2.8,2,3.7,3.5c0.9,1.5,1.3,3.2,1.3,5v0.1c0,1.8-0.4,3.5-1.3,5
			s-2.1,2.7-3.7,3.5c-1.6,0.9-3.4,1.3-5.4,1.3h-7.3V64.9H151.7z M155.3,80.6c1-0.6,1.8-1.4,2.4-2.4c0.6-1,0.8-2.1,0.8-3.4v-0.1
			c0-1.3-0.3-2.4-0.8-3.4c-0.6-1-1.4-1.8-2.4-2.4c-1-0.6-2.2-0.9-3.6-0.9h-3.9v13.4h3.9C153,81.5,154.2,81.2,155.3,80.6z"/>
		<path class="st0" d="M169.6,64.9v19.7h-3.5V64.9H169.6z"/>
		<path class="st0" d="M184,64.8l8.7,19.8h-3.7l-2-4.8h-9.3l-2,4.8h-3.5l8.7-19.8H184z M182.4,68.9l-3.4,7.9h6.8L182.4,68.9z"/>
	</g>
</g>
</svg>
