<?xml version="1.0" encoding="utf-8"?>
<!-- Generator: Adobe Illustrator 21.0.2, SVG Export Plug-In . SVG Version: 6.00 Build 0)  -->
<svg version="1.1" xmlns="http://www.w3.org/2000/svg" xmlns:xlink="http://www.w3.org/1999/xlink" x="0px" y="0px"
	 viewBox="0 0 502.888 221.019" style="enable-background:new 0 0 502.888 221.019;" xml:space="preserve">
<style type="text/css">
	.st0{fill:#FFFFFF;}
</style>
<g id="Layer_2">
</g>
<g id="Layer_4">
</g>
<g id="Layer_1">
</g>
<g id="Layer_3">
	<path class="st0" d="M163.264,34.082c-6.536-7.006-51.481,0.225-60.624,1.935c0,0-1.102-5.603-1.612-8.333
		c-0.724-3.871-8.595-4.585-14.643-3.454c-5.184,0.969-11.748,4.203-11.024,8.074c0.33,1.763,1.508,8.353,1.508,8.353
		c-9.143,1.71-53.664,11.206-57.228,20.101c-2.514,6.275,3.888,15.581,3.888,15.581L95.121,63.13l70.147-13.116
		C165.267,50.015,167.875,39.025,163.264,34.082z"/>
	<path class="st0" d="M155.731,158.779c-3.318,0.62-6.712-1.464-7.371-4.988c-0.711-3.803,1.688-7.041,5.006-7.662
		c1.013-0.189,11.569-2.163,24.628-4.605c1.184-4.301,1.553-8.4,0.859-12.108c-0.072-0.384-0.155-0.827-0.246-1.313
		c-14.465,2.705-26.634,4.98-27.646,5.169c-3.318,0.62-6.712-1.464-7.371-4.988c-0.711-3.803,1.688-7.041,5.006-7.662
		c1.09-0.204,13.228-2.473,27.646-5.169c-0.694-3.71-1.461-7.814-2.249-12.027c-14.465,2.705-26.634,4.98-27.646,5.169
		c-3.318,0.62-6.712-1.464-7.371-4.988c-0.711-3.803,1.688-7.041,5.006-7.662c1.09-0.204,13.228-2.473,27.646-5.169
		c-2.478-13.254-4.607-24.641-4.607-24.641L27.623,92.202c0,0,2.092,11.349,4.547,24.652c14.664-2.742,72.685-13.59,75.13-14.047
		c3.318-0.62,6.725,1.532,7.436,5.335c0.659,3.524-1.753,6.694-5.071,7.314c-2.266,0.424-60.516,11.315-75.158,14.053
		c0.775,4.194,1.533,8.294,2.225,12.032c14.58-2.726,72.734-13.599,75.181-14.057c3.318-0.62,6.725,1.532,7.436,5.335
		c0.659,3.524-1.753,6.694-5.071,7.314c-2.268,0.424-60.622,11.335-75.198,14.06c0.068,0.363,0.133,0.712,0.193,1.034
		c0.717,3.833,2.564,7.61,5.243,11.255c18.232-3.409,69.863-13.062,72.166-13.493c3.318-0.62,6.725,1.532,7.436,5.335
		c0.659,3.524-1.753,6.694-5.071,7.314c-1.856,0.347-41.293,7.721-63.537,11.88c19.467,15.4,50.84,25.977,64.513,23.421
		c13.975-2.613,39.095-23.954,51.632-45.137C162.825,157.453,156.451,158.645,155.731,158.779z"/>
	<g>
		<path class="st0" d="M217.802,71.515c-2.146,0-3.364-1.682-3.364-3.596V35.145c0.058-1.972,1.218-3.596,3.364-3.596h12.646
			c7.193,0,11.834,4.293,11.834,11.137c0,2.61-1.334,5.917-5.453,7.483c5.279,1.334,7.541,5.859,7.541,9.107
			c0,6.613-4.815,12.24-12.762,12.24H217.802z M229.636,47.5c2.204,0,3.712-1.856,3.712-4.235c0-2.494-1.276-4.235-3.771-4.235
			h-6.613V47.5H229.636z M222.965,54.229v9.803h8.179c2.842,0,4.293-2.61,4.293-4.989c0-2.262-1.45-4.815-4.467-4.815H222.965z"/>
		<path class="st0" d="M259.627,64.09h11.543c1.914,0,3.48,1.682,3.48,3.712c0,1.914-1.624,3.655-3.48,3.712h-16.648
			c-2.146,0-3.365-1.624-3.365-3.596V35.203c0.058-2.088,2.03-3.944,4.235-3.944c2.32,0,4.235,1.798,4.235,3.944V64.09z"/>
		<path class="st0" d="M289.502,62.06l-2.726,7.309c-0.754,1.972-3.19,2.9-5.336,2.204c-2.088-0.696-3.249-3.306-2.552-5.279
			l11.543-31.092c0.928-2.436,2.784-3.944,5.743-3.944h0.348c2.958,0,4.815,1.508,5.743,3.944l11.543,31.092
			c0.696,1.972-0.464,4.583-2.552,5.279c-2.146,0.696-4.582-0.232-5.336-2.204l-2.726-7.309H289.502z M300.408,54.693l-4.061-13.922
			l-4.061,13.922H300.408z"/>
		<path class="st0" d="M337.883,31.084c5.685,0,10.615,2.088,14.154,5.511c1.508,1.392,1.102,4.35-0.522,5.801
			c-1.624,1.392-4.003,1.334-5.453,0.058c-2.088-1.972-4.93-3.132-8.179-3.132c-6.613,0-11.601,5.453-11.601,12.239
			c0,6.787,4.989,12.24,11.601,12.24c3.249,0,6.091-1.16,8.179-3.132c1.45-1.276,3.829-1.334,5.453,0.058
			c1.624,1.45,2.03,4.409,0.522,5.801c-3.539,3.423-8.469,5.511-14.154,5.511c-11.427,0-20.07-9.107-20.07-20.477
			C317.812,40.191,326.455,31.084,337.883,31.084z"/>
		<path class="st0" d="M387.946,65.193c1.45,1.392,1.218,4.061-0.406,5.511c-1.508,1.45-4.235,1.45-5.511,0L370.776,58v9.861
			c0,2.146-1.914,3.945-4.235,3.945c-2.204,0-4.235-1.856-4.235-3.945V35.203c0.058-2.088,2.03-3.944,4.235-3.944
			c2.32,0,4.235,1.798,4.235,3.944v9.455l8.527-11.833c1.102-1.624,3.596-2.03,5.279-0.986c1.856,1.16,2.726,3.538,1.392,5.221
			l-10.905,14.27L387.946,65.193z"/>
		<path class="st0" d="M215.018,115.139c2.262-0.87,4.409,0.348,5.221,2.03c0.87,1.798,2.842,3.77,6.439,3.77
			c3.422,0,5.801-1.624,5.859-4.235c0.058-1.798-0.754-3.364-4.815-4.524l-4.815-1.334c-8.817-2.726-10.325-7.773-10.325-11.369
			c0-7.135,6.091-11.95,13.748-11.95c5.743,0,10.035,2.494,12.181,6.671c0.986,1.914,0.174,3.77-1.276,4.699
			c-2.088,1.334-3.944,0.754-5.336-0.986c-1.682-2.146-3.887-2.784-5.685-2.784c-2.958,0-5.163,1.74-5.163,4.118
			c0,1.044,0.406,2.958,4.292,4.061l4.757,1.392c9.687,2.784,11.079,8.237,10.963,12.066c-0.116,7.947-7.309,11.717-14.386,11.717
			s-12.182-3.423-13.922-8.585C212.117,117.866,213.045,115.893,215.018,115.139z"/>
		<path class="st0" d="M271.113,127.785c-1.682,0.406-3.538,0.696-5.395,0.696c-11.311,0-20.245-9.165-20.245-20.419
			c0-11.369,8.933-20.535,20.245-20.535c11.369,0,20.302,9.165,20.302,20.535c0,6.903-3.364,13.052-8.585,16.764l2.726,4.409
			c0.928,1.508,0,3.538-1.74,4.35c-1.624,0.87-3.364,0.348-4.467-1.218L271.113,127.785z M273.085,117.692
			c2.726-2.262,4.467-5.743,4.467-9.629c0-6.671-5.047-12.297-11.834-12.297c-6.787,0-11.776,5.627-11.776,12.297
			s4.989,12.181,11.776,12.181h0.812l-2.03-3.364c-0.87-1.624,0-3.538,1.74-4.35c1.624-0.87,3.538-0.348,4.467,1.218
			L273.085,117.692z"/>
		<path class="st0" d="M308.182,128.481c-8.237,0-15.546-5.801-15.546-14.85V91.646c0.058-2.088,2.03-3.944,4.235-3.944
			c2.32,0,4.234,1.798,4.234,3.944v21.985c0,4.118,3.48,6.845,7.077,6.845c3.48,0,6.961-2.726,6.961-6.845V91.646
			c0-2.146,1.914-3.944,4.235-3.944c2.204,0,4.176,1.856,4.235,3.944v21.985c0,9.049-7.309,14.85-15.546,14.85H308.182z"/>
		<path class="st0" d="M341.945,124.304c0,2.146-1.914,3.945-4.235,3.945c-2.204,0-4.235-1.856-4.235-3.945V91.646
			c0.058-2.088,2.03-3.944,4.235-3.944c2.32,0,4.235,1.798,4.235,3.944V124.304z"/>
		<path class="st0" d="M373.792,112.819l6.497,9.339c1.16,1.74,0.406,4.35-1.566,5.511c-1.856,1.102-4.409,0.58-5.511-1.16
			l-7.657-12.646h-3.887v10.441c0,2.146-1.914,3.945-4.235,3.945c-2.204,0-4.235-1.856-4.235-3.945V92.342
			c0.058-2.378,1.508-4.35,4.061-4.35h12.24c8.933,0,13.168,6.381,13.284,12.878C382.609,106.09,379.708,111.079,373.792,112.819z
			 M361.668,95.475v11.254h7.599c3.306,0,5.047-3.017,5.047-5.627c0-2.494-1.624-5.627-4.815-5.627H361.668z"/>
		<path class="st0" d="M411.441,112.819l6.497,9.339c1.16,1.74,0.406,4.35-1.566,5.511c-1.856,1.102-4.409,0.58-5.511-1.16
			l-7.657-12.646h-3.887v10.441c0,2.146-1.914,3.945-4.235,3.945c-2.204,0-4.235-1.856-4.235-3.945V92.342
			c0.058-2.378,1.508-4.35,4.061-4.35h12.24c8.933,0,13.168,6.381,13.284,12.878C420.258,106.09,417.357,111.079,411.441,112.819z
			 M399.317,95.475v11.254h7.599c3.306,0,5.047-3.017,5.047-5.627c0-2.494-1.624-5.627-4.815-5.627H399.317z"/>
		<path class="st0" d="M450.366,87.992c1.914,0,3.48,1.682,3.48,3.77c0,1.914-1.624,3.712-3.48,3.712h-13.342v9.165h11.543
			c1.914,0,3.48,1.624,3.48,3.655c0,1.914-1.624,3.655-3.48,3.655h-11.543v8.585h13.864c1.914,0,3.48,1.682,3.48,3.712
			c0,1.914-1.624,3.712-3.48,3.712H431.92c-2.146,0-3.306-1.624-3.365-3.596V91.588c0.058-1.972,1.218-3.596,3.365-3.596H450.366z"
			/>
		<path class="st0" d="M472.063,120.534h11.543c1.914,0,3.48,1.682,3.48,3.712c0,1.914-1.624,3.655-3.48,3.712h-16.648
			c-2.146,0-3.364-1.624-3.364-3.596V91.646c0.058-2.088,2.03-3.944,4.235-3.944c2.32,0,4.235,1.798,4.235,3.944V120.534z"/>
		<path class="st0" d="M234.914,169.262l6.497,9.339c1.16,1.74,0.406,4.35-1.566,5.511c-1.856,1.102-4.409,0.58-5.511-1.16
			l-7.657-12.646h-3.887v10.441c0,2.146-1.914,3.945-4.235,3.945c-2.204,0-4.235-1.856-4.235-3.945v-31.962
			c0.058-2.378,1.508-4.35,4.061-4.35h12.24c8.933,0,13.168,6.381,13.284,12.878C243.732,162.533,240.831,167.522,234.914,169.262z
			 M222.791,151.918v11.254h7.599c3.306,0,5.047-3.017,5.047-5.627c0-2.494-1.624-5.627-4.815-5.627H222.791z"/>
		<path class="st0" d="M258.701,174.947l-2.726,7.309c-0.754,1.972-3.19,2.9-5.336,2.204c-2.088-0.696-3.249-3.306-2.552-5.279
			l11.543-31.092c0.928-2.436,2.784-3.944,5.743-3.944h0.348c2.958,0,4.815,1.508,5.743,3.944l11.543,31.092
			c0.696,1.972-0.464,4.583-2.552,5.279c-2.146,0.696-4.582-0.232-5.336-2.204l-2.726-7.309H258.701z M269.606,167.58l-4.061-13.922
			l-4.061,13.922H269.606z"/>
		<path class="st0" d="M292.057,184.402c-2.146,0-3.364-1.682-3.364-3.596v-32.774c0.058-1.972,1.218-3.596,3.364-3.596h12.297
			c11.485,0,18.04,8.701,18.04,20.07c0,11.311-6.555,19.896-18.04,19.896H292.057z M297.162,176.977h7.193
			c6.381,0,9.571-5.917,9.571-12.472c0-6.613-3.191-12.588-9.571-12.588h-7.193V176.977z"/>
		<path class="st0" d="M338.755,180.748c0,2.146-1.914,3.945-4.235,3.945c-2.204,0-4.235-1.856-4.235-3.945v-32.658
			c0.058-2.088,2.03-3.944,4.235-3.944c2.32,0,4.235,1.798,4.235,3.944V180.748z"/>
		<path class="st0" d="M365.845,143.971c11.369,0,20.302,9.165,20.302,20.535c0,11.253-8.933,20.419-20.302,20.419
			c-11.311,0-20.245-9.165-20.245-20.419C345.601,153.136,354.534,143.971,365.845,143.971z M365.845,176.687
			c6.787,0,11.834-5.511,11.834-12.181s-5.047-12.297-11.834-12.297c-6.787,0-11.776,5.627-11.776,12.297
			S359.058,176.687,365.845,176.687z"/>
	</g>
	<g>
	</g>
	<g>
	</g>
	<g>
	</g>
	<g>
	</g>
	<g>
	</g>
	<g>
	</g>
</g>
</svg>
