<?xml version="1.0" encoding="utf-8"?>
<!-- Generator: Adobe Illustrator 21.0.2, SVG Export Plug-In . SVG Version: 6.00 Build 0)  -->
<svg version="1.1" id="Layer_1" xmlns="http://www.w3.org/2000/svg" xmlns:xlink="http://www.w3.org/1999/xlink" x="0px" y="0px"
	 viewBox="0 0 1589 899" style="enable-background:new 0 0 1589 899;" xml:space="preserve">
<style type="text/css">
	.st0{fill:#FFFFFF;}
	.st1{fill:#F2F2F2;}
</style>
<path class="st0" d="M1564,874H13V20h1551V874z M58,829h1462V65H58V829z"/>
<g>
	<path class="st1" d="M206.1,187.8h-44.5v-31.5h123.8v31.5H241v220.3h-34.9V187.8z"/>
	<path class="st1" d="M332,156.4h34.9v103.3h50.3V156.4H452v251.7h-34.9V289.4h-50.3v118.7H332V156.4z"/>
	<path class="st1" d="M601.5,156.4v29.8h-56.8v73.5h56.8v29.8h-56.8v88.9h56.8v29.8h-91.7V156.4H601.5z"/>
	<path class="st0" d="M751.3,156.4h48.9c56.4,0,70.5,36.6,70.5,62.9c0,27.7-9.9,43.4-33.9,54c28.7,9.2,39.3,32.8,39.3,61.6
		c0,23.3-8.9,73.2-74.2,73.2h-50.6V156.4z M786.2,259.7h5.5c25,0,44.1-9.2,44.1-36.9c0-23.6-12-36.6-42.8-36.6h-6.8V259.7z
		 M786.2,378.4c36.3,0,53.4-12,53.4-44.5c0-31.1-16.1-46.2-48.2-46.2h-5.1V378.4z"/>
	<path class="st0" d="M1048.9,345.9c0,51.6-25.3,67.4-59.5,67.4c-34.9,0-60.2-15.7-60.2-67.4V156.4h34.9v189.2
		c0,15.7,3.8,36.3,25.3,36.3c20.9,0,24.6-20.5,24.6-36.3V156.4h34.9V345.9z"/>
	<path class="st0" d="M1108.7,156.4h56.4c38,0,65,27,65,69.1c0,25.7-14.4,54.4-43.1,62.3l51,120.4h-40l-46.2-115.3h-8.2v115.3h-34.9
		V156.4z M1143.6,263.1c34.2,0,49.9-10.6,49.9-40c0-20.9-13.3-36.9-38-36.9h-12V263.1z"/>
	<path class="st0" d="M1286.6,156.4h56.4c38,0,65,27,65,69.1c0,25.7-14.4,54.4-43.1,62.3l51,120.4h-40l-46.2-115.3h-8.2v115.3h-34.9
		V156.4z M1321.5,263.1c34.2,0,49.9-10.6,49.9-40c0-20.9-13.3-36.9-38-36.9h-12V263.1z"/>
	<path class="st1" d="M219.6,496.2l50.6,167.9h0.7l50.6-167.9h37.6v251.7H326V580.3h-0.7l-41.4,143h-26.7l-41.4-143h-0.7v167.6H182
		V496.2H219.6z"/>
	<path class="st1" d="M482.3,496.2l56.8,251.7h-36.6l-9.9-52h-55.1l-9.9,52h-33.2l53-251.7H482.3z M487.4,667.9L465.5,553h-0.7
		L443,667.9H487.4z"/>
	<path class="st1" d="M656.7,559.5c-3.1-23.3-10.9-36.9-25.7-36.9c-18.1,0-30.1,25.3-30.1,105c0,51,4.8,94.1,30.1,94.1
		c23.6,0,28.7-34.9,30.1-87.2h-35.6v-31.5h70.5V632c0,60.5-11.6,121.1-65,121.1c-60.5,0-66.7-66-66.7-131c0-69.4,12.3-131,66.7-131
		c34.9,0,51.6,22.9,59.5,55.8L656.7,559.5z"/>
	<path class="st1" d="M814.1,496.2l56.8,251.7h-36.6l-9.9-52h-55.1l-9.9,52h-33.2l53-251.7H814.1z M819.2,667.9L797.3,553h-0.7
		l-21.9,114.9H819.2z"/>
	<path class="st1" d="M1019.3,496.2l-78.7,222h72.2v29.8h-119l79-222h-71.1v-29.8H1019.3z"/>
	<path class="st1" d="M1059,496.2h34.9v251.7H1059V496.2z"/>
	<path class="st1" d="M1180.7,496.2l51.3,159.4h0.7V496.2h33.2v251.7H1231l-51.3-159.4h-0.7v159.4h-33.2V496.2H1180.7z"/>
	<path class="st1" d="M1405.1,496.2v29.8h-56.8v73.5h56.8v29.8h-56.8v88.9h56.8v29.8h-91.7V496.2H1405.1z"/>
</g>
</svg>
