<?xml version="1.0" encoding="utf-8"?>
<!-- Generator: Adobe Illustrator 21.0.2, SVG Export Plug-In . SVG Version: 6.00 Build 0)  -->
<svg version="1.1" id="Layer_1" xmlns="http://www.w3.org/2000/svg" xmlns:xlink="http://www.w3.org/1999/xlink" x="0px" y="0px"
	 viewBox="0 0 585.6 151" style="enable-background:new 0 0 585.6 151;" xml:space="preserve">
<style type="text/css">
	.st0{fill:#FFFFFF;}
</style>
<g>
	<g>
		<path class="st0" d="M17.3,125.3c0-34.4,0-68.6,0-102.9c182.1,0,364.2,0,546.2,0c0,34.3,0,68.6,0,102.9
			C381.5,125.3,199.4,125.3,17.3,125.3z M128.7,113.4c-0.4-0.7-0.6-1.2-0.8-1.7c-7.7-15.2-15.3-30.4-23-45.6
			c-0.5-0.9-0.4-1.5,0.2-2.3c6.8-9.5,13.6-19.1,20.4-28.6c0.3-0.4,0.5-0.8,0.9-1.4c-0.7,0-1.1,0-1.5,0c-4.7,0-9.4,0-14.2,0
			c-1,0-1.5,0.3-2,1.1c-6.6,10-13.3,20-20,30.1c-0.2,0.3-0.5,0.7-0.7,1c-0.1,0-0.2-0.1-0.3-0.1c0-10.7,0-21.3,0-32
			c-4.5,0-8.9,0-13.2,0c-1.1,0-1.3,0.3-1.3,1.4c0,6.9,0,13.8,0,20.6c0,18.8,0,37.5,0,56.3c0,1.1,0.3,1.4,1.4,1.4
			c3.4-0.1,6.7,0,10.1,0c1,0,2,0,3.1,0c0-0.7,0.1-1.2,0.1-1.8c0-7.5,0-15,0-22.4c0-0.8,0.3-1.6,0.7-2.3c1.5-2.2,3.1-4.3,4.7-6.5
			c0.5-0.6,0.9-1.2,1.5-2c0.4,0.7,0.7,1.3,0.9,1.9c5.3,10.7,10.7,21.4,15.9,32.1c0.4,0.9,0.9,1.1,1.8,1.1c2.4-0.1,4.7,0,7.1,0
			C123.2,113.4,125.8,113.4,128.7,113.4z M297.2,87.4c-0.4,0.3-0.7,0.5-1.1,0.7c-2.4,1.7-4.8,3.5-7.2,5.2c-2.8,2-2.8,2-1.2,5.1
			c3.7,7.1,9,12.5,16.8,15c7.1,2.2,14.2,2,21.2-0.5c6.4-2.3,10.8-6.8,13.1-13.3c1.4-3.9,1.7-7.8,1.3-11.9
			c-0.6-5.7-2.8-10.5-7.3-14.2c-3-2.5-6.5-4.1-10.1-5.5c-4.1-1.6-8.4-2.9-12.4-4.6c-1.7-0.7-3.4-1.8-4.7-3
			c-4.4-4.3-2.5-11.7,3.4-13.2c1.9-0.5,4.1-0.6,6-0.2c5.8,1,9.8,4.8,12.8,9.7c0.2,0.4,0.5,0.8,0.7,1.2c0.2-0.1,0.3-0.1,0.4-0.2
			c3.1-2.8,6.2-5.7,9.2-8.6c0.2-0.2,0.2-0.9,0.1-1.2c-2.2-4-5.1-7.6-8.8-10.3c-6.5-4.8-13.9-6.2-21.7-4.9c-7.5,1.2-13.1,5-16.4,12
			c-2.1,4.4-2.6,9.1-2.2,13.9c0.4,4.8,2,9.2,5.5,12.7c2.8,2.8,6.1,4.6,9.7,6c3.7,1.4,7.5,2.6,11.2,4.1c2.5,1,5.1,2.1,7.2,3.7
			c5.4,4,4.1,12.2-2.2,14.7c-2.8,1.1-5.6,1.2-8.5,0.8c-5.6-0.9-9.6-4.2-12.6-8.9C298.8,90.3,298.1,88.9,297.2,87.4z M390.3,75.1
			c0.7-0.6,1.2-1,1.7-1.5c3.6-3,7.5-5.1,12.2-5.6c4.1-0.5,6.8,1,7.5,4.5c0.2,0.8,0.1,1.6,0.2,2.4c0.1,1-0.4,1.2-1.2,1.3
			c-1.3,0.1-2.7,0.3-4,0.5c-4.9,0.8-9.6,2-14,4.3c-4.8,2.6-8.3,6.2-9.7,11.6c-0.7,2.7-0.9,5.5-0.7,8.3c0.6,9.1,8.2,14.9,17.1,13
			c4.6-1,8.3-3.5,11.3-7c0.4-0.4,0.7-0.9,1.1-1.3c0.4,2.4,0.7,4.5,1,6.7c0.1,0.9,0.5,1.2,1.4,1.2c4,0,8,0,12,0
			c0.3,0,0.7-0.1,0.8-0.1c-0.3-3-0.8-5.8-0.9-8.7c-0.1-9,0-18.1-0.2-27.1c0-3.1-0.3-6.2-0.9-9.2c-1.3-6.4-4.6-11.2-11.3-12.9
			c-1.6-0.4-3.2-0.6-4.9-0.6c-9.1-0.4-17,2.4-23.6,8.9c-1,1-1.1,1.6-0.3,2.8C386.8,69.3,388.5,72.1,390.3,75.1z M193.5,64.3
			c0-2.4,0-4.7,0-7c0-1-0.3-1.4-1.4-1.4c-3.8,0.1-7.7,0-11.5,0c-1.6,0-1.6,0-1.6,1.6c0,18.1,0,36.2,0,54.3c0,0.5,0,0.9,0,1.5
			c4.8,0,9.5,0,14.4,0c0-0.6,0.1-1.1,0.1-1.7c0-11.8,0-23.7,0-35.5c0-0.5,0-1.2,0.3-1.5c2.2-2.4,4.7-4.5,8-5.2c4-0.8,6.5,0.9,7,4.7
			c0.2,1.2,0.2,2.5,0.2,3.7c0,11.3,0,22.6,0,33.9c0,0.5,0,1,0,1.5c4.9,0,9.5,0,14.3,0c0-0.6,0-1.1,0-1.6c0-13.3,0-26.6,0-39.9
			c0-1.9-0.2-3.8-0.5-5.6c-1-6.3-5.2-10.6-11-11.2c-5.6-0.6-10.4,1.1-14.4,5C196.1,61.2,194.9,62.7,193.5,64.3z M515.6,89.4
			c0-1.9,0.1-3.7,0-5.5c-0.2-5.4-0.9-10.7-2.9-15.8c-4-10.3-13.3-15.3-23.7-12.7c-8.2,2.1-13.6,7.5-16.5,15.4c-3,8.3-3,16.8-1,25.2
			c1.2,5.3,3.6,9.9,7.8,13.5c4.6,3.9,10.1,5.2,16.1,5.1c7.3-0.2,13.5-2.8,18.8-7.8c0.6-0.6,0.7-1,0.3-1.7c-1.6-2.8-3-5.7-4.6-8.6
			c-0.2-0.3-0.4-0.5-0.7-1c-0.4,0.5-0.6,0.9-1,1.2c-3.3,3.1-7.1,5.2-11.7,5.8c-4.3,0.5-8.1-1.4-10-5.3c-0.8-1.6-1.1-3.4-1.6-5.1
			c-0.2-0.7-0.2-1.5-0.3-2.5C495.1,89.4,505.3,89.4,515.6,89.4z M172.4,89.5c0-3.3,0.1-6.3,0-9.3c-0.3-4.8-1.3-9.4-3.3-13.8
			c-4.2-9.1-13-13.4-22.7-11c-8.4,2-13.8,7.5-16.7,15.4c-3,8.2-2.9,16.7-1,25.1c1.2,5.3,3.5,9.9,7.7,13.5c4.7,4,10.3,5.3,16.3,5.1
			c7.2-0.2,13.4-2.9,18.6-7.9c0.6-0.6,0.6-1,0.2-1.7c-1.5-2.8-3-5.7-4.6-8.6c-0.1-0.3-0.3-0.5-0.6-0.8c-0.4,0.4-0.7,0.7-1,1
			c-3.2,3.1-6.9,5.2-11.5,5.7c-7.1,0.8-13.2-5.5-12-12.7C152.1,89.5,162.3,89.5,172.4,89.5z M349.7,68.7c0,0.7,0,1.2,0,1.7
			c0,8.7,0,17.4,0,26.2c0,2.4,0.2,4.7,0.4,7.1c0.6,5.4,3.6,8.7,8.8,9.9c5.1,1.1,10.3,0.7,15.4,0c0.7-0.1,0.9-0.5,0.9-1.2
			c0-3.6,0-7.1,0-10.7c0-0.3-0.1-0.5-0.1-0.4c-2.4,0-4.6,0.1-6.8,0c-2-0.1-3.3-1.3-3.8-3.3c-0.2-0.7-0.3-1.5-0.4-2.2
			c0-8.6-0.1-17.3-0.1-25.9c0-0.8,0.3-1.1,1.1-1.1c3.2,0,6.5,0,9.7,0c1,0,1.3-0.3,1.3-1.3c0-3.4,0-6.8,0-10.2c0-1-0.3-1.3-1.3-1.3
			c-3.1,0-6.2,0-9.4,0c-1.2,0-1.5-0.4-1.5-1.5c0.1-5.6,0-11.2,0-16.8c0-1.1-0.3-1.4-1.4-1.4c-3.9,0.1-7.8,0.1-11.6,0
			c-1.1,0-1.4,0.3-1.4,1.4c0.1,5.6,0,11.1,0,16.7c0,1.5,0,1.5-1.6,1.5c-1.6,0-3.3,0.1-4.9,0c-1,0-1.3,0.3-1.3,1.3
			c0.1,3.4,0,6.9,0,10.3c0,0.3,0,0.7,0.1,1.1C344.6,68.7,347,68.7,349.7,68.7z M439.9,36.4c0,0.5,0,0.9,0,1.4c0,5.6,0,11.1,0,16.7
			c0,1.3-0.4,1.5-1.6,1.5c-1.8-0.1-3.6,0-5.4,0c-0.7,0-1,0.3-1,1c0,3.7,0,7.4,0,11.2c0,0.2,0.1,0.4,0.2,0.7c2.6,0,5.1,0,7.7,0
			c0,0.4,0.1,0.6,0.1,0.8c0,8.5,0,17,0,25.6c0,2.6,0.1,5.1,0.3,7.7c0.4,5.8,3.3,9.3,8.7,10.6c5.2,1.3,10.4,0.7,15.6,0.1
			c0.8-0.1,0.9-0.6,0.9-1.3c0-3.1,0-6.2,0-9.4c0-0.6,0-1.3,0-2c-0.5,0.1-0.8,0.1-1.1,0.1c-1.9,0.1-3.9,0.3-5.8,0.2
			c-1.9-0.1-3.3-1.2-3.8-3.2c-0.3-1.2-0.5-2.4-0.5-3.7c0-8.2,0-16.3,0-24.5c0-0.3,0-0.7,0.1-1.2c4,0,7.9,0,11.9,0c0-4,0-7.7,0-11.5
			c0-1-0.3-1.2-1.2-1.2c-3.1,0-6.2,0-9.4,0c-0.5,0-0.9-0.1-1.5-0.1c0-0.6,0-1.1,0-1.6c0-5.6,0-11.2,0-16.8c0-0.9-0.2-1.2-1.1-1.2
			c-4,0-8.1,0-12.1,0C440.6,36.3,440.3,36.4,439.9,36.4z M235.5,55.9c-2.3,0-4.5,0-6.6,0c-1,0-1.3,0.3-1.3,1.3
			c0.1,3.4,0.1,6.8,0,10.2c0,1.1,0.3,1.4,1.4,1.3c2.1-0.1,4.3,0,6.6,0c0,0.6,0,1.1,0,1.6c0,7.4,0,14.9,0,22.3c0,3.3,0.1,6.6,0.3,9.9
			c0.3,6,3.4,9.7,9,10.9c5.1,1.2,10.2,0.7,15.4,0c0.8-0.1,0.9-0.6,0.9-1.3c0-3.5,0-7,0-10.4c0-0.3-0.1-0.6-0.1-0.6
			c-2.3,0-4.5,0.1-6.7,0c-2.2-0.1-3.5-1.3-4-3.5c-0.3-1.2-0.4-2.4-0.4-3.7c0-8,0-16.1,0-24.1c0-0.4,0-0.8,0.1-1.3c4,0,8,0,12,0
			c0-3.9,0-7.7,0-11.4c0-1-0.3-1.3-1.3-1.3c-3.1,0.1-6.2,0-9.4,0c-0.5,0-0.9-0.1-1.5-0.1c0-6.6,0-13,0-19.4c-4.8,0-9.5,0-14.2,0
			C235.5,42.9,235.5,49.3,235.5,55.9z M536.3,64.8c0-2.6,0-5.1,0-7.7c0-1-0.3-1.3-1.3-1.3c-4,0-7.9,0-11.9,0c-1,0-1.3,0.4-1.3,1.3
			c0,18.3,0,36.6,0,54.9c0,0.9,0.2,1.3,1.2,1.2c4-0.1,8.1,0,12.1,0c0.3,0,0.7-0.1,1.1-0.1c0-0.6,0-1.1,0-1.6c0-10.9,0-21.8,0-32.7
			c0-0.5,0.1-1.2,0.3-1.6c3.5-5.2,8.3-8,14.7-7.1c1,0.1,1.2-0.2,1.2-1c0-4,0-7.9,0.1-11.9c0-0.8,0-1.6,0-2.5
			C544.9,54.6,540,58.7,536.3,64.8z M22.5,84.2c0.3,0,0.5,0.1,0.7,0.1c12.4,0,24.7,0,37.1,0c0.8,0,1-0.3,1-1.1c0-1.9-0.1-3.8,0-5.8
			c0.1-1.2-0.2-1.6-1.5-1.6c-5.8,0.1-11.7,0-17.5,0c-0.4,0-0.8,0-1.2-0.1c-1.1-0.5-2.1-3.8-1.7-4.9c0.5-1,1.4-1.1,2.3-1.1
			c5.9,0,11.8,0,17.8,0c1.7,0,1.7,0,1.7-1.7c0-1.8-0.1-3.5,0-5.3c0.1-1.2-0.4-1.5-1.6-1.5c-6.6,0.1-13.2,0-19.8,0
			c-0.9,0-1.8,0.1-2.6,0.2c-2.3,0.4-3.8,1.7-4.2,4c-0.8,3.4,0.3,6.5,2.4,9.2c0.3,0.3,0.5,0.7,1,1.2c-4.8,0-9.3,0-13.9,0
			C22.5,78.8,22.5,81.5,22.5,84.2z M52.1,40.9c3.7,2.1,4.8,3.7,3.8,6c-0.8,1.9-3.7,3.1-6.2,2.5c0-4.8,0-9.7,0-14.6
			c-4.3-0.2-8.5-0.2-12.3,2.2c-1.3,0.8-2.5,2-3.3,3.4c-3.6,6.2-0.5,14.1,6.2,16.4c3.5,1.2,7.1,1.2,10.7,0.7
			c6.6-0.9,10.1-4.7,10.6-11.2c0.3-5-2.2-9.3-6.8-11.2c-0.3-0.1-0.6-0.2-0.9-0.3C53.3,36.8,52.7,38.8,52.1,40.9z M28.9,104.7
			c0.7,0,1.2,0,1.6,0c9.7,0,19.4,0,29.1,0c1.6,0,1.6,0,1.6-1.7c0-1.9-0.1-3.8,0-5.8c0.1-1.1-0.3-1.4-1.4-1.4c-9.8,0-19.7,0-29.5,0
			c-0.5,0-0.9,0-1.5,0c0-2.8,0-5.4,0-8c-2.2,0-4.2,0-6.3,0c-0.1,0.2-0.1,0.3-0.1,0.4c0,7.9,0,15.7,0,23.6c0,0.7,0.4,0.9,1,0.9
			c1.3,0,2.6-0.1,4,0c1.2,0.1,1.6-0.2,1.6-1.5C28.8,109.1,28.9,107,28.9,104.7z"/>
		<path class="st0" d="M411.8,85.7c0,0.6,0.1,1,0.1,1.4c0,2.5-0.1,5,0,7.5c0,1.2-0.3,2-1.2,2.8c-3,2.7-6.5,3.8-10.5,3.5
			c-2-0.2-3.6-1.7-3.9-3.7c-0.5-3,0.3-5.6,2.9-7.5c2.4-1.8,5.3-2.6,8.1-3.3C408.8,86.2,410.2,86,411.8,85.7z"/>
		<path class="st0" d="M485,78.9c-0.1-3.8,2.3-9.4,5.7-10.9c3.6-1.6,7.9-0.3,9.9,3.2c1.4,2.4,1.8,5,2.1,7.8
			C496.8,78.9,490.9,78.9,485,78.9z"/>
		<path class="st0" d="M159.7,79c-5.9,0-11.8,0-17.8,0c0.1-0.7,0.2-1.4,0.3-2c0.5-2.3,1.2-4.5,2.6-6.4c3.6-4.8,10.4-4.3,13.2,1
			C158.9,73.5,159.7,76.5,159.7,79z"/>
		<path class="st0" d="M44.8,49.9c-1.7-0.5-3.3-0.7-4.7-1.3c-1.2-0.5-1.7-1.6-1.6-2.9c0.1-1.3,0.8-2.1,2-2.4
			c1.4-0.4,2.8-0.6,4.4-0.9C44.8,44.9,44.8,47.2,44.8,49.9z"/>
	</g>
</g>
</svg>
