<?xml version="1.0" encoding="utf-8"?>
<!-- Generator: Adobe Illustrator 21.0.2, SVG Export Plug-In . SVG Version: 6.00 Build 0)  -->
<svg version="1.1" id="Layer_1" xmlns="http://www.w3.org/2000/svg" xmlns:xlink="http://www.w3.org/1999/xlink" x="0px" y="0px"
	 viewBox="0 0 630.6 197.8" style="enable-background:new 0 0 630.6 197.8;" xml:space="preserve">
<style type="text/css">
	.st0{fill:#FFFFFF;}
</style>
<g>
	<g>
		<path class="st0" d="M352.6,93.2c-0.6-1.3-1.1-2.7-1.8-4c-6.2-13.2-16.5-20.6-30.9-22.3c-14.5-1.7-30.4,5.6-38,20.6
			c-1.8,3.6-3.3,7.4-4.1,11.3c0,0.2-0.1,0.4-0.2,0.6c-16.1,0-32.1,0-48.1,0c0,0,0,0,0-0.1c4.3-0.6,8.7-1.2,13-1.7
			c11.3-1.3,22.6-2.6,34-3.8c0.6-0.1,1.3-0.1,1.9-0.3c0.4-0.2,0.9-0.6,1-1c0.1-0.3-0.3-0.9-0.6-1.2c-0.4-0.3-1-0.5-1.5-0.7
			c-3.6-1.1-6.8-2.9-9.7-5.4c-1.8-1.5-3.8-2.9-5.6-4.4c-3.3-2.7-7-3.9-11.2-4.3c-2.7-0.2-5.5-0.6-8.2-1.2c-5-1-8.2-4.2-9.9-9.2
			c0.9,0.8,1.7,1.5,2.5,2.2c2.2,1.9,4.8,2.9,7.7,2.8c2.9-0.1,5.8-0.2,8.6-0.6c5.9-0.7,11.1,0.3,15.8,4.2c4.4,3.6,9.8,5,15.3,5.7
			c0.5,0.1,1,0,1.4-0.1c1.1-0.3,1.4-1.1,0.9-2.1c-0.2-0.5-0.6-0.9-1-1.4c-10-11.9-19.9-23.8-29.9-35.7c-0.4-0.5-0.8-1.1-1.1-1.7
			c0.1-0.1,0.2-0.2,0.3-0.3c0.4,0.2,0.9,0.4,1.3,0.7c12.5,9.4,25,18.8,37.4,28.3c1,0.7,2.1,1.6,3.2,0.8c1.1-0.8,0.6-2.1,0.2-3.1
			c-2.4-5.8-2.9-11.8-3.5-17.9c-0.3-2.5-1.3-4.7-2.7-6.7c-2.7-3.8-5.3-7.7-7.9-11.6c-1.6-2.4-1.1-7.9,0.8-10.1
			c0.1,0.4,0.2,0.7,0.2,1c0,4.6,1.7,8.4,5.2,11.4c2.7,2.4,5.5,4.8,8.3,7.1c1.5,1.3,2.5,2.8,3,4.7c1,3.4,1.9,6.9,3,10.2
			c1,3.1,2.3,6.1,4.3,8.7c0.5,0.7,1.2,1.4,1.9,2c1.1,0.8,1.9,0.6,2.3-0.7c0.4-1.4,0.7-2.9,0.9-4.3c0.9-9.1,1.7-18.1,2.7-27.2
			c0.6-5.2,1.4-10.4,2.1-15.6c0.1-0.5,0.3-1,0.5-1.5c0.1,0,0.2,0,0.3,0c0.2,1.7,0.5,3.4,0.7,5.2c1.2,10.4,2.4,20.9,3.6,31.3
			c0.4,3.6,0.7,7.2,1,10.7c0,0.2,0,0.5,0.1,0.7c0.4,0.6,0.7,1.5,1.3,1.7c0.4,0.1,1.3-0.5,1.7-0.9c0.5-0.5,0.8-1.2,1-1.9
			c1-3.5,2.9-6.5,5.1-9.3c1.8-2.2,3.5-4.5,5.3-6.7c3.3-4.1,4.7-8.8,5-14c0.1-1.5,0.5-3,0.8-4.5c1.1-4.8,4.8-6.8,9-8.5
			c-0.5,0.6-0.9,1.2-1.4,1.7c-4.3,4.1-5.5,9.1-4.8,14.8c0.4,3.6,0.3,7.3-0.3,10.9c-0.5,2.8-2.1,5-3.6,7.3c-2.3,3.7-4.5,7.4-5.2,11.7
			c-0.1,0.8-0.4,1.6-0.3,2.4c0,0.7,0.2,1.6,0.7,2c0.4,0.3,1.4,0,1.9-0.4c1.9-1.3,3.8-2.8,5.7-4.2c11-8.4,22-16.9,33.1-25.3
			c0.3-0.3,0.7-0.5,1-0.7c0.1,0.1,0.2,0.1,0.2,0.2c-0.4,0.6-0.7,1.2-1.2,1.7c-7.7,9.3-15.3,18.7-23,28c-2.1,2.6-4.3,5.2-6.4,7.8
			c-0.1,0.2-0.3,0.3-0.4,0.5c-0.2,0.6-0.7,1.5-0.4,1.8c0.3,0.4,1.2,0.7,1.8,0.7c1.2-0.1,2.5-0.3,3.6-0.8c3.6-1.4,7.4-1.9,11.3-2.2
			c6-0.4,11.4-2.2,16.2-5.9c1.9-1.5,4.1-2.8,6.2-4c4.2-2.4,8.5-1.8,12.9-0.2c0.1,0,0.2,0.1,0.3,0.2c0,0,0,0.1,0,0.2
			c-1.6,0.1-3.1,0.3-4.7,0.4c-4,0.4-7.3,2.2-9.9,5.2c-1.5,1.8-3,3.6-4.6,5.4c-2.5,3-5.8,4.8-9.6,5.8c-3.9,1-7.8,2-11.6,3.4
			c-2,0.7-3.7,2.1-5.5,3.3C352.4,91.4,352.2,92.3,352.6,93.2L352.6,93.2z"/>
		<path class="st0" d="M74.2,175.5c0-13.1,0-26.2,0-39.3c0.4,0,0.8-0.1,1.2-0.1c5.4,0,10.9-0.1,16.3,0c5.1,0.1,9.9,1.6,13.7,5.1
			c5.7,5.2,7.6,11.7,5.9,19c-1.7,7.5-6.6,12.2-14,14.3c-2.1,0.6-4.3,0.9-6.5,0.9c-5.3,0.1-10.6,0-16,0
			C74.7,175.5,74.5,175.5,74.2,175.5z M81.6,168.5c3.2,0,6.4,0,9.5,0c1,0,2.1-0.1,3.1-0.3c5.8-1.1,10.2-5.9,10.4-11.5
			c0.3-6.3-3.3-11.4-9.3-13c-1.5-0.4-3.1-0.6-4.7-0.7c-3-0.1-6,0-9,0C81.6,151.6,81.6,160,81.6,168.5z"/>
		<path class="st0" d="M276,175.5c0-13.1,0-26.2,0-39.3c0.4,0,0.7-0.1,1.1-0.1c5.4,0,10.9-0.1,16.3,0c5,0.1,9.6,1.5,13.4,4.8
			c5.9,5.1,8,11.6,6.4,19.1c-1.6,7.6-6.6,12.5-14,14.6c-2.1,0.6-4.4,0.9-6.6,0.9c-5.2,0.1-10.5,0-15.7,0
			C276.6,175.5,276.4,175.5,276,175.5z M283.4,143c0,8.6,0,17,0,25.6c1.5,0,2.9,0,4.3,0c2.7-0.1,5.5,0.1,8.1-0.3
			c6.1-1,10.3-5.9,10.6-11.9c0.2-6-3.5-11-9.5-12.7C292.5,142.4,288,143.3,283.4,143z"/>
		<path class="st0" d="M119.6,136.1c10.1,0,20.1,0,30.1,0c0,2.2,0,4.5,0,6.8c-7.6,0-15.1,0-22.8,0c0,3,0,5.9,0,8.9
			c5.3,0,10.5,0,15.9,0c0,2.4,0,4.6,0,6.9c-5.3,0-10.5,0-15.9,0c0,3.3,0,6.4,0,9.7c7.6,0,15.1,0,22.8,0c0,2.4,0,4.7,0,7
			c-10,0-20,0-30.1,0c0-5.5,0-11,0-16.6c-1.6,0-3.1,0-4.7,0c0-2.4,0-4.6,0-6.9c1.5,0,3,0,4.6,0C119.6,146.6,119.6,141.4,119.6,136.1
			z"/>
		<path class="st0" d="M197.3,136.1c10.1,0,20.1,0,30.2,0c0,2.3,0,4.5,0,6.8c-7.5,0-15.1,0-22.7,0c0,3,0,5.9,0,8.9
			c5.3,0,10.5,0,15.8,0c0,2.4,0,4.6,0,7c-5.3,0-10.5,0-15.8,0c0,3.3,0,6.4,0,9.7c7.6,0,15.1,0,22.7,0c0,2.4,0,4.6,0,7
			c-10,0-20,0-30.1,0c0-5.5,0-11,0-16.6c-1.6,0-3.1,0-4.6,0c0-2.3,0-4.6,0-6.9c1.5,0,2.9,0,4.6,0
			C197.3,146.5,197.3,141.4,197.3,136.1z"/>
		<path class="st0" d="M351.5,175.5c-10,0-20,0-30.1,0c0-5.5,0-11,0-16.7c-1.6,0-3.1,0-4.6,0c0-2.3,0-4.6,0-6.9c1.5,0,3,0,4.6,0
			c0-5.3,0-10.5,0-15.7c10.1,0,20.1,0,30.1,0c0,2.3,0,4.5,0,6.8c-7.6,0-15.1,0-22.7,0c0,3,0,5.8,0,8.8c5.2,0,10.5,0,15.8,0
			c0,2.4,0,4.6,0,7c-5.2,0-10.5,0-15.8,0c0,3.3,0,6.4,0,9.7c7.6,0,15.1,0,22.7,0C351.5,170.9,351.5,173.2,351.5,175.5z"/>
		<path class="st0" d="M153.2,163.1c0-2.4,0-4.6,0-6.9c1.5,0,3,0,4.6,0c0-6.7,0-13.3,0-20.1c0.5,0,0.8-0.1,1.1-0.1
			c6.1,0,12.2-0.1,18.4,0c4,0.1,7.6,1.3,10.2,4.4c3.6,4.2,4.1,9.1,2.3,14.2c-1.8,5-5.7,7.7-10.9,8.1c-3.8,0.3-7.7,0.2-11.5,0.2
			c-0.7,0-1.4,0-2.3,0c0,4.1,0,8.2,0,12.4c-2.5,0-4.8,0-7.3,0c0-4.1,0-8.1,0-12.3C156.3,163.1,154.8,163.1,153.2,163.1z M165.2,156
			c4.3,0,8.4,0.2,12.5-0.1c3.6-0.2,5.8-2.9,5.8-6.3c0-3.4-2.2-6.1-5.8-6.4c-3.8-0.3-7.7-0.2-11.5-0.2c-0.3,0-0.6,0-0.9,0.1
			C165.2,147.5,165.2,151.8,165.2,156z"/>
		<path class="st0" d="M575.3,135.6c0,13.2,0,26.5,0,39.8c-2.4,0-4.8,0-7.3,0c0-8,0-15.9,0-24.2c-3.5,3.6-6.8,7.1-10.2,10.6
			c-3.4-3.5-6.7-6.9-10.2-10.5c0,8.2,0,16.1,0,24.2c-2.5,0-4.8,0-7.2,0c0-13.3,0-26.6,0-39.5c5.7,5.5,11.6,11.2,17.4,16.7
			C563.6,147,569.4,141.3,575.3,135.6z"/>
		<path class="st0" d="M31.6,135.3c8.4,8.3,16.7,16.5,25.2,24.8c0-8.1,0-16,0-24c2.5,0,4.8,0,7.3,0c0,13.3,0,26.6,0,40.1
			c-8.4-8.3-16.7-16.4-25.3-24.8c0,8.2,0,16.1,0,24c-2.5,0-4.8,0-7.2,0C31.6,162.1,31.6,148.8,31.6,135.3z"/>
		<path class="st0" d="M267.1,176.3c-8.4-8.3-16.7-16.5-25.2-24.8c0,8.1,0,16,0,24c-2.5,0-4.8,0-7.3,0c0-13.3,0-26.6,0-40.1
			c8.4,8.3,16.7,16.4,25.2,24.8c0-8,0-15.9,0-23.9c2.5,0,4.9,0,7.3,0C267.1,149.5,267.1,162.8,267.1,176.3z"/>
		<path class="st0" d="M358.7,135.3c8.5,8.3,16.8,16.5,25.3,24.9c0-8.2,0-16.1,0-24c2.5,0,4.8,0,7.2,0c0,13.3,0,26.6,0,40.1
			c-8.4-8.3-16.7-16.4-25.2-24.7c0,8.1,0,15.9,0,23.9c-2.5,0-4.9,0-7.3,0C358.7,162.1,358.7,148.8,358.7,135.3z"/>
		<path class="st0" d="M581.5,169c1.8-1.6,3.6-3.3,5.5-5c1.9,1.9,4.1,3.5,6.7,4.4c3.9,1.4,7.7,1.3,11.4-0.5c0.9-0.4,1.7-1.2,2.3-2
			c1.5-2.2,0.8-4.8-1.7-5.7c-2.1-0.8-4.5-1.1-6.7-1.6c-3.1-0.6-6.2-1-9.2-1.9c-3.9-1.1-6.4-3.8-6.9-8c-0.5-4.2,1.1-7.5,4.5-10
			c3.7-2.7,8-3.5,12.5-3.4c5.7,0.1,10.8,1.8,15,6c-1.8,1.6-3.6,3.2-5.3,4.8c-1.2-0.9-2.3-1.8-3.5-2.6c-3.5-2.2-7.3-2.6-11.3-1.5
			c-1.7,0.5-3.1,1.4-3.9,3.1c-0.9,2-0.2,4.1,2,4.9c2.2,0.8,4.6,1.1,7,1.6c2.9,0.6,5.9,0.9,8.7,1.7c9.2,2.6,8.8,12.9,4.3,17.5
			c-2.9,3-6.5,4.6-10.6,5.2c-7.8,1.1-14.5-1-20.2-6.5C581.8,169.3,581.6,169.2,581.5,169z"/>
		<path class="st0" d="M473.9,151.8c0,2.4,0,4.6,0,6.9c-5.3,0-10.5,0-15.9,0c0,5.7,0,11.2,0,16.7c-2.5,0-4.9,0-7.3,0
			c0-5.5,0-11,0-16.6c-1.6,0-3.1,0-4.6,0c0-2.4,0-4.6,0-6.9c1.5,0,2.9,0,4.5,0c0-5.3,0-10.5,0-15.7c10.1,0,20.2,0,30.2,0
			c0,2.3,0,4.5,0,6.8c-7.6,0-15.1,0-22.7,0c0,3,0,5.8,0,8.8C463.4,151.8,468.6,151.8,473.9,151.8z"/>
		<path class="st0" d="M533.6,175.5c-10,0-19.9,0-29.9,0c0-13.1,0-26.1,0-39.3c2.4,0,4.7,0,7.2,0c0,10.7,0,21.5,0,32.3
			c5.2,0,10.2,0,15.4,0c0-3.1,0-6.1,0-9.2c2.5,0,4.8,0,7.3,0C533.6,164.6,533.6,170,533.6,175.5z"/>
		<path class="st0" d="M427.2,136.1c0,2.3,0,4.5,0,6.9c-3.8,0-7.5,0-11.4,0c0,5.5,0,10.9,0,16.3c0,5.4,0,10.7,0,16.2
			c-2.4,0-4.8,0-7.3,0c0-10.8,0-21.5,0-32.4c-3.9,0-7.6,0-11.5,0c0-2.3,0-4.6,0-6.9C407.1,136.1,417.1,136.1,427.2,136.1z"/>
		<path class="st0" d="M344.3,99.6c0.1-3.7-0.9-6.9-4.2-9c-2.2-1.4-4.6-2.1-7.3-1.8c1.1,1.7,2.3,3.4,3.3,5.1
			c0.9,1.7,1.7,3.6,2.6,5.6c-15.8,0-31.2,0-46.9,0c1.1-3.9,3-7.4,5.7-10.6c-3.3-0.3-6,0.7-8.2,2.9c-2.2,2.2-2.9,5-3,8
			c-2.6,0-5.1,0-7.8,0c1.9-8.2,5.4-15.5,11.3-21.5c6.9-7,15.5-10.2,25.2-10.1c22.9,0.3,34.9,16.1,36.9,31.4c-0.3,0-0.6,0.1-0.9,0.1
			C348.7,99.6,346.6,99.6,344.3,99.6z M304.1,73.6c0.4-0.2,0.6-0.4,0.9-0.5c3.4-1.2,7-1.9,10.6-1.8c7.3,0.2,13.9,2.5,19.7,6.9
			c2.8,2.1,5.2,4.5,7.2,7.3c0.5,0.7,0.7,1.4-0.2,2.1c-0.6-0.7-1.1-1.3-1.7-1.9c-3.7-4.1-7.7-7.9-13.1-10c-11.8-4.6-22.5-2.7-32.2,5
			c-4,3.1-6.8,7.3-9.4,11.6c-1.2,2.1-1.9,4.5-2,6.9c0.6,0,1.1,0,1.6,0c0.9-7,4-10.6,9.5-11c2.7-0.2,5.4,0.3,7.6,1.9
			c3,2.1,4,5.3,4.2,8.9c0.9,0,1.6,0,2.4,0c0-1,0.3-1.9,1.5-1.9c1.2,0,1.4,0.9,1.4,1.9c2.1,0,4.2,0,6.3,0c0-1,0.2-1.9,1.4-1.9
			c1.2,0,1.4,0.9,1.4,1.9c0.7,0,1.4,0,2,0c0.9-6.5,5-10.7,10.6-10.8c6.7-0.1,10,3.1,11.4,10.9c2.1,0,4.1,0,6.2,0
			c-3.7-20.6-19.9-31.7-39.7-30.5c-8.2,0.5-15.4,3.6-21.4,9.4c-6,5.9-9.5,13.1-11.5,21.2c1.2,0,2.3,0,3.4,0c0.8-6,7.5-18.6,9.2-17.5
			c0,0.3,0.1,0.7,0.1,1.2c4.2-4,8.9-6.7,13.8-9.2C305,73.7,304.7,73.7,304.1,73.6z"/>
		<path class="st0" d="M487.3,128.4c-1.5,0-3,0-4.5,0c0-2.5,0-5.1,0-7.8c-1,0-2,0-3,0c0-1.5,0-2.9,0-4.4c0.9,0,1.9,0,2.9,0
			c0-4.3,0-8.4,0-12.6c0.3-0.1,0.5-0.1,0.7-0.1c4,0,7.9-0.1,11.9,0c5.6,0.1,9.3,4.9,8.2,10.3c-0.5,2.5-2.2,4.3-5.5,5.9
			c2,2.9,4,5.8,6.2,8.9c-1.9,0-3.7,0-5.4,0c-0.3,0-0.7-0.4-1-0.8c-1.4-2-2.8-4.1-4.1-6.2c-0.4-0.7-0.9-1-1.8-0.9
			c-1.5,0.1-2.9,0-4.5,0C487.3,123.2,487.3,125.8,487.3,128.4z M487.4,116c2.8,0,5.6,0.2,8.3-0.1c2.1-0.2,3.2-1.8,3.2-3.9
			c0-2-1.2-3.8-3.3-3.9c-2.7-0.2-5.5-0.1-8.3-0.1C487.4,110.6,487.4,113.3,487.4,116z"/>
		<path class="st0" d="M465,117.8c-3.4,0-6.6,0-10,0c0,2.1,0,4.1,0,6.2c4.8,0,9.5,0,14.4,0c0,1.5,0,2.9,0,4.4c-6.4,0-12.7,0-19.1,0
			c0-3.5,0-7,0-10.5c-1,0-1.9,0-2.8,0c0-1.5,0-2.9,0-4.4c0.9,0,1.8,0,2.8,0c0-3.4,0-6.6,0-9.9c6.4,0,12.8,0,19.2,0
			c0,1.4,0,2.8,0,4.3c-4.8,0-9.5,0-14.3,0c0,1.9,0,3.7,0,5.6c3.3,0,6.6,0,10,0C465,114.9,465,116.3,465,117.8z"/>
		<path class="st0" d="M62,113.3c0,1.6,0,3,0,4.4c-3.4,0-6.7,0-10,0c0,2.1,0,4.1,0,6.3c4.8,0,9.6,0,14.4,0c0,1.5,0,2.8,0,4.3
			c-6.3,0-12.6,0-19.1,0c0-3.5,0-6.9,0-10.5c-1,0-1.9,0-2.9,0c0-1.5,0-2.9,0-4.4c0.9,0,1.8,0,2.8,0c0-3.4,0-6.6,0-9.9
			c6.4,0,12.8,0,19.2,0c0,1.4,0,2.8,0,4.3c-4.8,0-9.6,0-14.4,0c0,1.9,0,3.6,0,5.5C55.3,113.3,58.6,113.3,62,113.3z"/>
		<path class="st0" d="M282.3,124.1c4.9,0,9.6,0,14.4,0c0,1.5,0,2.8,0,4.3c-6.4,0-12.7,0-19.2,0c0-3.5,0-7,0-10.5c-1,0-1.9,0-2.9,0
			c0-1.5,0-2.9,0-4.4c0.9,0,1.8,0,2.9,0c0-3.4,0-6.6,0-9.9c6.4,0,12.8,0,19.2,0c0,1.4,0,2.8,0,4.3c-4.8,0-9.5,0-14.4,0
			c0,1.9,0,3.7,0,5.6c3.3,0,6.6,0,10,0c0,1.5,0,2.9,0,4.4c-3.3,0-6.6,0-10,0C282.3,119.9,282.3,121.9,282.3,124.1z"/>
		<path class="st0" d="M83.5,113.1c0,5.3,0,10.3,0,15.3c-1.6,0-3,0-4.5,0c0-8.4,0-16.8,0-25.5c5.4,5.3,10.6,10.4,16,15.7
			c0-5.2,0-10.1,0-15.1c1.6,0,3.1,0,4.7,0c0,8.4,0,16.8,0,25.4C94.3,123.7,89,118.5,83.5,113.1z"/>
		<path class="st0" d="M177.2,109.8c-1.7-1.7-3.6-2.9-6-2.9c-1.4,0-2.9,0.3-4.3,0.8c-1.2,0.4-1.8,1.5-1.6,2.8c0.1,1.2,1.1,1.8,2.1,2
			c1.7,0.4,3.5,0.6,5.3,1c1.3,0.2,2.6,0.4,3.9,0.8c4.9,1.5,6.4,7.3,2.9,11.1c-2.4,2.6-5.5,3.4-8.9,3.5c-4.1,0.1-8.5-1.8-11-4.7
			c1.1-1,2.3-2.1,3.5-3.2c1.7,1.7,3.6,2.9,5.9,3.3c1.8,0.3,3.5,0.1,5.2-0.6c1.5-0.7,2.4-1.8,2.2-3.2c-0.2-1.5-1.4-2-2.6-2.3
			c-2.3-0.5-4.7-0.8-7.1-1.2c-0.6-0.1-1.2-0.3-1.9-0.5c-2.3-0.8-4-2.2-4.5-4.7c-0.5-2.6,0.3-4.7,2.3-6.4c4.6-3.9,13.8-3.3,17.8,1.3
			C179.5,107.8,178.3,108.8,177.2,109.8z"/>
		<path class="st0" d="M534.4,106.8c-1.2,1-2.2,2-3.4,3c-0.5-0.4-1-0.8-1.5-1.2c-2.3-1.7-4.9-2.2-7.7-1.4c-0.6,0.2-1.1,0.4-1.6,0.8
			c-0.9,0.6-1.3,1.5-1.2,2.6c0.1,1.1,0.9,1.7,1.8,1.9c1.9,0.4,3.8,0.7,5.6,1.1c1,0.2,2,0.3,2.9,0.5c2.7,0.7,5,1.9,5.5,5
			c0.6,3.3-0.6,5.9-3.3,7.8c-4.7,3.2-11.7,2.9-16.5-0.8c-0.6-0.5-1.2-1-1.9-1.6c1.2-1.1,2.4-2.1,3.6-3.2c2.2,2.2,4.7,3.6,7.8,3.3
			c1.3-0.1,2.7-0.5,3.9-1.1c1.1-0.5,1.7-1.6,1.6-2.9c-0.1-1.2-1-1.8-2-2.1c-2.1-0.5-4.2-0.8-6.3-1.2c-1-0.2-2-0.4-2.9-0.7
			c-2.5-0.7-4.3-2.3-4.7-5c-0.4-2.9,0.7-5.1,3.1-6.7C522.1,101.6,530,102.4,534.4,106.8z"/>
		<path class="st0" d="M493.6,175.5c-2.4,0-4.7,0-7.1,0c0-13.1,0-26.2,0-39.4c2.4,0,4.7,0,7.1,0
			C493.6,149.3,493.6,162.3,493.6,175.5z"/>
		<path class="st0" d="M21.7,175.5c-2.4,0-4.7,0-7.1,0c0-13.1,0-26.2,0-39.3c2.4,0,4.7,0,7.1,0C21.7,149.3,21.7,162.3,21.7,175.5z"
			/>
		<path class="st0" d="M240.6,128.4c-1.5,0-2.9,0-4.3,0c-0.3,0-0.7-0.4-0.8-0.7c-0.5-1-0.9-2-1.2-3c-0.3-0.8-0.6-1.1-1.5-1
			c-2.8,0.1-5.7,0.1-8.5,0c-0.8,0-1.1,0.2-1.4,0.9c-0.5,1.3-0.8,3.1-1.7,3.5c-1.3,0.6-3,0.2-4.8,0.2c3-6.9,6-13.7,9.1-20.8
			c-2,0-3.7,0-5.6,0c0-1.4,0-2.7,0-4.2c0.6,0,1.1,0,1.6,0c2.6,0,5.2,0,7.8,0c0.4,0,0.9,0.3,1.1,0.6c3.4,8,6.8,15.9,10.2,23.9
			C240.6,128.1,240.6,128.2,240.6,128.4z M225,119.4c2.4,0,4.7,0,7.1,0c-1.2-2.9-2.3-5.7-3.5-8.7C227.3,113.8,226.2,116.6,225,119.4
			z"/>
		<path class="st0" d="M380.6,103.5c1.7,0,3.1,0,4.6,0c0,8.4,0,16.8,0,25.4c-5.3-5.2-10.6-10.4-16-15.7c0,5.2,0,10.1,0,15.2
			c-1.6,0-3,0-4.6,0c0-8.4,0-16.8,0-25.4c5.3,5.2,10.6,10.4,16,15.7C380.6,113.5,380.6,108.5,380.6,103.5z"/>
		<path class="st0" d="M35.3,103.4c-3.3,3.8-6.5,7.4-9.6,11c3.3,4.6,6.6,9.2,10,14c-2,0-3.8,0-5.6,0c-0.3,0-0.6-0.4-0.8-0.7
			c-1.9-2.8-3.9-5.5-5.7-8.3c-0.8-1.3-1.7-1.8-3.1-1.6c-0.3,0-0.6,0-1,0c0,3.5,0,7,0,10.6c-1.6,0-3.1,0-4.7,0c0-3.5,0-6.9,0-10.5
			c-1,0-1.9,0-2.9,0c0-1.5,0-2.9,0-4.4c0.9,0,1.8-0.1,2.8-0.1c0-3.3,0-6.5,0-9.8c1.6,0,3.1,0,4.7,0c0,3.3,0,6.5,0,9.7
			c1.1,0.3,1.8,0.1,2.5-0.7c2.3-2.8,4.6-5.6,7-8.3c0.3-0.4,1-0.7,1.5-0.7C31.9,103.4,33.4,103.4,35.3,103.4z"/>
		<path class="st0" d="M328.3,103.5c1.5,0,2.9,0,4.5,0c0,0.4,0.1,0.8,0.1,1.2c0,3.9,0,7.8,0,11.6c0,1,0.1,1.9,0.2,2.9
			c0.6,3.2,3.1,5.3,6.2,5.3c3.1,0,5.6-2.1,6.3-5.2c0.2-0.9,0.2-1.8,0.2-2.7c0-4.3,0-8.6,0-13c1.5,0,3,0,4.5,0c0,0.3,0.1,0.7,0.1,1.1
			c0,4.5,0,9,0,13.4c0,6-3.9,10.3-10.1,10.8c-5.8,0.5-10.7-2.8-11.9-8.5c-0.1-0.7-0.2-1.3-0.2-2c0-4.7,0-9.4,0-14.1
			C328.2,104,328.2,103.8,328.3,103.5z"/>
		<path class="st0" d="M416.3,103.4c1.6,0,3-0.1,4.4,0c0.4,0,0.8,0.5,1,0.9c1.8,4.5,3.6,9,5.4,13.6c0.1,0.1,0.1,0.3,0.3,0.6
			c0.3-0.9,0.6-1.5,0.9-2.2c1.6-3.9,3.1-7.9,4.7-11.8c0.3-0.9,0.8-1.2,1.7-1.1c1.2,0.1,2.4,0,3.8,0c-3.7,8.5-7.3,16.9-11.1,25.6
			C423.7,120.4,420.1,112,416.3,103.4z"/>
		<path class="st0" d="M123.5,128.4c-1.6,0-3.1,0-4.7,0c0-6.8,0-13.6,0-20.5c-2.4,0-4.8,0-7.2,0c0-1.5,0-2.9,0-4.4
			c6.3,0,12.6,0,19,0c0,1.4,0,2.8,0,4.3c-2.3,0-4.6,0-7.1,0C123.5,114.7,123.5,121.5,123.5,128.4z"/>
		<path class="st0" d="M585.5,107.8c-2.3,0-4.7,0-7.1,0c0,6.9,0,13.7,0,20.6c-1.6,0-3.1,0-4.7,0c0-6.8,0-13.6,0-20.5
			c-2.5,0-4.9,0-7.3,0c0-1.5,0-2.9,0-4.4c6.4,0,12.7,0,19.1,0C585.5,104.9,585.5,106.3,585.5,107.8z"/>
		<path class="st0" d="M607.4,128.4c-1.6,0-3,0-4.6,0c0-0.5,0-1,0-1.6c0-1.1-0.1-2.3,0-3.4c0.6-4.3-0.7-7.9-3.3-11.3
			c-2-2.7-3.7-5.7-5.7-8.7c1.8,0,3.5,0,5.1,0c0.3,0,0.6,0.5,0.8,0.8c1.8,2.9,3.5,5.8,5.4,8.8c1.8-2.9,3.5-5.6,5.1-8.4
			c0.5-0.9,1.1-1.4,2.2-1.3c1.2,0.1,2.5,0,3.9,0c-0.2,0.4-0.4,0.7-0.6,1c-2.6,4-5.2,8.1-7.7,12.1c-0.4,0.6-0.6,1.3-0.6,2
			C607.4,121.8,607.4,125,607.4,128.4z"/>
		<path class="st0" d="M211,107.9c-2.5,0-4.8,0-7.3,0c0,6.9,0,13.7,0,20.5c-1.6,0-3,0-4.6,0c0-6.8,0-13.6,0-20.5c-2.5,0-4.8,0-7.3,0
			c0-1.5,0-2.9,0-4.4c6.4,0,12.7,0,19.1,0C211,104.9,211,106.3,211,107.9z"/>
		<path class="st0" d="M257.7,128.4c-1.6,0-3,0-4.6,0c0-6.8,0-13.6,0-20.5c-2.4,0-4.8,0-7.2,0c0-1.5,0-2.9,0-4.3
			c6.3,0,12.6,0,19.1,0c0,1.3,0,2.7,0,4.3c-2.4,0-4.8,0-7.3,0C257.7,114.8,257.7,121.5,257.7,128.4z"/>
		<path class="st0" d="M352.5,93.3c1,0.4,2,0.9,3,1c7,0.8,14.1,1.5,21.1,2.2c8.4,0.9,16.7,1.8,25.1,2.8c0,0.1,0,0.2,0,0.3
			c-15.8,0-31.7,0-47.6,0C353.6,97.5,353.1,95.4,352.5,93.3C352.6,93.2,352.5,93.3,352.5,93.3z"/>
		<path class="st0" d="M548.8,128.3c0-8.3,0-16.5,0-24.8c1.5,0,2.9,0,4.5,0c0,8.2,0,16.5,0,24.8
			C551.9,128.3,550.4,128.3,548.8,128.3z"/>
		<path class="st0" d="M400.3,128.4c0-8.3,0-16.5,0-24.8c1.5,0,3,0,4.5,0c0,8.3,0,16.5,0,24.8C403.3,128.4,401.9,128.4,400.3,128.4z
			"/>
		<path class="st0" d="M304.1,73.6c0.6,0.1,0.9,0.1,1.2,0.1c-4.9,2.6-9.6,5.3-13.8,9.2c0-0.6-0.1-0.9-0.1-1.2
			c-1.7-1.1-8.3,11.6-9.2,17.5c-1.1,0-2.2,0-3.4,0c1.9-8.2,5.5-15.4,11.5-21.2c5.9-5.8,13.2-8.9,21.4-9.4c19.8-1.2,36,9.9,39.7,30.5
			c-2.1,0-4.1,0-6.2,0c-1.4-7.8-4.7-11-11.4-10.9c-5.5,0.1-9.6,4.2-10.6,10.8c-0.6,0-1.3,0-2,0c0-0.9-0.2-1.9-1.4-1.9
			c-1.2,0-1.4,0.9-1.4,1.9c-2.1,0-4.2,0-6.3,0c0-1-0.3-1.9-1.4-1.9c-1.2,0-1.5,0.9-1.5,1.9c-0.8,0-1.6,0-2.4,0
			c-0.2-3.5-1.2-6.7-4.2-8.9c-2.3-1.6-4.9-2.1-7.6-1.9c-5.5,0.3-8.6,3.9-9.5,11c-0.5,0-1,0-1.6,0c0.2-2.5,0.8-4.9,2-6.9
			c2.5-4.3,5.4-8.5,9.4-11.6c9.8-7.7,20.5-9.7,32.2-5c5.4,2.1,9.4,5.9,13.1,10c0.6,0.6,1.1,1.3,1.7,1.9c1-0.7,0.7-1.3,0.2-2.1
			c-2-2.9-4.4-5.3-7.2-7.3c-5.8-4.4-12.5-6.6-19.7-6.9c-3.6-0.1-7.2,0.6-10.6,1.8C304.8,73.2,304.6,73.4,304.1,73.6z M315,95.3
			c5.9,0.1,10.7-4.7,10.8-10.6c0.1-5.8-4.7-10.7-10.6-10.8c-5.9-0.1-10.7,4.7-10.8,10.6C304.4,90.4,309.1,95.2,315,95.3z
			 M326.8,88.2c1.2-1.4,1.4-4.7,0.4-6.1C327.1,84.1,327,86.2,326.8,88.2z"/>
		<path class="st0" d="M315,95.3c-5.9-0.1-10.6-4.8-10.6-10.8c0-5.9,4.9-10.6,10.8-10.6c5.9,0.1,10.7,5,10.6,10.8
			C325.7,90.6,320.9,95.4,315,95.3z M325.1,83c0-3.9-4.3-7.6-9-7.9c-5-0.3-10,3.4-10.6,7.7C312.1,80.2,318.6,80.3,325.1,83z
			 M316.5,87.2c0.2-0.2,0.3-0.3,0.5-0.4c1.1-0.4,1.7-1,0.9-2.2c-0.1-0.2,0.1-0.6,0.2-0.9c0.1-0.3,0.3-0.5,0.5-0.7
			c-0.3-0.2-0.7-0.5-1-0.5c-1.9-0.1-3.8-0.1-5.6,0c-0.9,0-1.8,0.3-1.8,1.5c0,0.3-0.3,0.6-0.5,0.9c-0.6,0.6-0.5,1.7,0.2,2.1
			c0.4,0.3,0.9,0.6,1.4,0.9c-0.2,0.3-0.4,0.5-0.5,0.7c-0.2,0.4-0.5,0.9-0.3,1.1c0.2,0.3,0.7,0.4,1.1,0.4c0.6,0,1.2-0.1,1.8-0.2
			c1.4-0.2,2.9-0.3,4.7-0.5C317.4,88.5,317,87.9,316.5,87.2z M317.2,90.7c-0.7-0.1-1.1-0.2-1.6-0.1c-0.9,0.1-1.7,0.4-2.6,0.6
			c-0.6,0.2-1.2,0.3-2,0.5c1.3,1.5,2.7,1.6,4.1,1.6c1.2,0,1.3-0.9,1.4-1.8C316.6,91.3,316.9,91.1,317.2,90.7z"/>
		<path class="st0" d="M326.8,88.2c0.1-2,0.3-4.1,0.4-6.1C328.2,83.5,328,86.8,326.8,88.2z"/>
		<path class="st0" d="M325.1,83c-6.5-2.7-13-2.8-19.5-0.2c0.5-4.4,5.6-8,10.6-7.7C320.8,75.3,325,79.1,325.1,83z"/>
		<path class="st0" d="M316.5,87.2c0.5,0.7,0.9,1.3,1.5,2.2c-1.8,0.2-3.2,0.4-4.7,0.5c-0.6,0.1-1.2,0.2-1.8,0.2
			c-0.4,0-1-0.1-1.1-0.4c-0.1-0.2,0.2-0.7,0.3-1.1c0.1-0.2,0.3-0.4,0.5-0.7c-0.5-0.3-1-0.6-1.4-0.9c-0.7-0.5-0.8-1.5-0.2-2.1
			c0.2-0.3,0.5-0.6,0.5-0.9c0-1.2,0.9-1.5,1.8-1.5c1.9-0.1,3.8,0,5.6,0c0.3,0,0.7,0.3,1,0.5c-0.2,0.2-0.4,0.5-0.5,0.7
			c-0.1,0.3-0.3,0.7-0.2,0.9c0.8,1.2,0.2,1.8-0.9,2.2C316.9,86.9,316.7,87.1,316.5,87.2z"/>
		<path class="st0" d="M317.2,90.7c-0.3,0.4-0.6,0.6-0.6,0.8c-0.1,0.9-0.3,1.8-1.4,1.8c-1.4,0-2.8-0.1-4.1-1.6
			c0.8-0.2,1.4-0.4,2-0.5c0.9-0.2,1.7-0.5,2.6-0.6C316.1,90.5,316.5,90.6,317.2,90.7z"/>
	</g>
</g>
</svg>
