<?xml version="1.0" encoding="utf-8"?>
<!-- Generator: Adobe Illustrator 21.0.2, SVG Export Plug-In . SVG Version: 6.00 Build 0)  -->
<svg version="1.1" id="Layer_1" xmlns="http://www.w3.org/2000/svg" xmlns:xlink="http://www.w3.org/1999/xlink" x="0px" y="0px"
	 viewBox="0 0 641 354.5" style="enable-background:new 0 0 641 354.5;" xml:space="preserve">
<style type="text/css">
	.st0{fill:#FFFFFF;}
</style>
<g>
	<path class="st0" d="M110.8,276.7c0-0.7,0-1.4,0-2.1c0-26.1,0-52.2,0-78.3c0-3,0.2-3.3,3.3-3.3c5.9,0,11.9,0,17.8,0
		c0.4,0,0.8,0,1.2,0c1.5,0.1,1.9,0.6,2,2.1c0,0.4,0,0.8,0,1.2c0,40.3,0,80.7,0,121c0,3-0.2,3.2-3.1,3.2c-6.2,0-12.4,0-18.5,0
		c-1.6,0-2.6-0.5-3.6-1.9c-18.7-26.9-37.5-53.8-56.3-80.7c-0.3-0.4-0.6-0.8-1-1.4c-0.5,0.6-0.3,1.3-0.3,1.8c0,9.6,0,19.2,0,28.8
		c0,16.7,0,33.3,0,50c0,0.5,0,1.1,0,1.6c-0.1,1-0.6,1.4-1.5,1.6c-0.4,0.1-0.8,0-1.2,0c-6.4,0-12.7,0-19.1,0c-0.3,0-0.7,0-1,0
		c-1-0.1-1.4-0.6-1.5-1.6c0-0.4,0-0.8,0-1.2c0-40.6,0-81.2,0-121.9c0-0.3,0-0.7,0-1c0.1-1.2,0.5-1.7,1.7-1.8c0.3,0,0.7,0,1,0
		c6.3,0,12.6,0,18.9,0c1.6,0,2.6,0.5,3.6,1.9c18.7,26.8,37.5,53.6,56.2,80.3c0.4,0.6,0.8,1.1,1.2,1.6
		C110.5,276.8,110.6,276.8,110.8,276.7z"/>
	<path class="st0" d="M321.9,110.3c0-0.6,0-1.2,0-1.9c0-26.3,0-52.6,0-78.9c0-2.8,0.2-3.1,3.1-3.1c6.1,0,12.1,0,18.2,0
		c0.5,0,1.1,0,1.6,0.1c0.8,0.2,1.4,0.6,1.4,1.6c0,0.5,0,0.9,0,1.4c0,40.5,0,81,0,121.5c0,2.8-0.2,3-3,3c-6.3,0-12.6,0-18.9,0
		c-1.4,0-2.3-0.5-3.2-1.6c-18.7-26.9-37.5-53.7-56.2-80.6c-0.4-0.6-0.8-1.2-1.3-1.8c-0.1,0-0.3,0.1-0.4,0.1c0,0.6,0,1.2,0,1.8
		c0,26.3,0,52.6,0,78.9c0,3-0.2,3.1-3.2,3.1c-6.1,0-12.1,0-18.2,0c-0.3,0-0.7,0-1,0c-1.4-0.1-1.9-0.5-2-1.9c0-0.4,0-0.8,0-1.2
		c0-40.4,0-80.9,0-121.3c0-2.9,0.2-3.1,3.1-3.1c6.2,0,12.5,0,18.7,0c1.5,0,2.4,0.5,3.3,1.7c18.8,26.9,37.7,53.8,56.6,80.8
		c0.3,0.5,0.7,0.9,1,1.4C321.6,110.3,321.7,110.3,321.9,110.3z"/>
	<path class="st0" d="M354.3,268.9c-0.8,0-1.4,0-2,0c-5.6,0-11.2,0-16.8,0c-0.5,0-0.9,0-1.4,0c-1.7-0.1-2-0.4-2.1-2.1
		c0-5.1,0-10.3,0-15.4c0-0.9,0-1.7,0-2.6c0.1-1.2,0.6-1.8,1.8-1.9c0.3,0,0.7,0,1,0c13.8,0,27.5,0,41.3,0c0.3,0,0.7,0,1,0
		c1.2,0.1,1.6,0.6,1.7,1.8c0,0.4,0,0.8,0,1.2c0,22.8,0,45.6,0,68.4c0,2.8-0.2,3-3,3c-5.2,0-10.5,0-15.7,0c-0.4,0-0.8,0-1.2,0
		c-1.3-0.1-1.7-0.6-1.8-1.9c-0.2-3.3-0.4-6.5-0.6-9.8c0-0.3-0.1-0.6-0.1-1.1c-0.4,0.3-0.7,0.5-1,0.8c-7.9,8.5-17.9,12.5-29.4,13.1
		c-9.4,0.5-18.5-0.7-27.3-4.1c-16.6-6.5-27.6-18.4-33.6-35c-3.7-10.5-4.9-21.4-3.9-32.5c1.1-13.7,5.9-26.1,14.8-36.7
		c10.1-12.1,23.1-19.4,38.7-21.9c16.6-2.6,32,0.6,46,9.9c3.3,2.2,6.3,4.7,9.1,7.6c1.3,1.3,1.3,1.8,0.1,3c-4.5,4.5-9.1,9-13.6,13.6
		c-1.1,1.1-2.5,1.1-3.6,0c-6.1-5.9-13.4-9.7-21.8-10.9c-18.1-2.6-38.3,6.3-44,29c-2.5,10.2-2.1,20.5,1.4,30.5
		c3.9,11.2,11.6,18.5,23,21.9c9.7,2.8,19.3,2.9,28.8-1.1c5.2-2.2,9.7-5.4,13.6-9.4c0.5-0.5,0.8-1,0.8-1.8c0-4.9,0-9.8,0-14.7
		C354.4,269.6,354.4,269.3,354.3,268.9z"/>
	<path class="st0" d="M424.3,245c-0.4-0.7-0.7-1.2-1-1.7c-5.6-8.8-11.1-17.5-16.7-26.3c-0.6-1-0.9-1.9-0.9-3.1c0-6,0-12,0-18
		c0-2.6,0.3-2.9,2.9-2.9c10.7,0,21.4,0,32.2,0c3.7,0,7.4-0.1,11,0.2c9.2,0.7,17.9,3.1,25.7,8.2c9.1,6.1,13.8,14.7,14.7,25.5
		c0.4,4.8,0.1,9.5-1,14.2c-2.1,8.4-6.8,14.8-14,19.5c-3,1.9-6.1,3.4-9.4,4.5c-0.6,0.2-1.2,0.4-2,0.7c0.4,0.7,0.7,1.3,1.1,1.8
		c10.3,16.5,20.6,32.9,30.8,49.4c0.3,0.5,0.6,1,0.9,1.5c0.4,0.9,0,1.6-1,1.8c-0.5,0.1-0.9,0.1-1.4,0.1c-7.5,0-14.9,0-22.4,0
		c-1.7,0-2.6-0.5-3.5-2c-9.9-15.9-19.9-31.8-29.8-47.7c-0.5-0.7-0.9-1.5-1.4-2.1c-3,0-5.8,0-8.9,0c0,0.8,0,1.5,0,2.3
		c0,15.4,0,30.9,0,46.3c0,3-0.1,3.2-3.1,3.2c-6.1,0-12.2,0-18.4,0c-0.5,0-0.9,0-1.4,0c-1-0.1-1.4-0.6-1.5-1.6c0-0.5,0-0.9,0-1.4
		c0-23.2,0-46.4,0-69.6c0-0.2,0-0.3,0-0.5c0-2.1,0.4-2.4,2.5-2.4c4.7,0,9.4,0,14.2,0C422.9,245,423.4,245,424.3,245z M434.1,216.9
		c0.1,0.4,0.2,0.6,0.3,0.9c5.5,8.7,11,17.5,16.5,26.2c0.4,0.6,0.9,0.8,1.6,0.8c2.3-0.1,4.6-0.6,6.8-1.4c5.4-2.1,8.4-5.9,8.7-11.7
		c0.3-6.1-2.2-10.3-7.2-12.7c-2.3-1.1-4.7-1.8-7.2-1.8c-6.2-0.2-12.5-0.2-18.7-0.2C434.6,216.8,434.4,216.9,434.1,216.9z"/>
	<path class="st0" d="M182.1,216.3c0,9.7,0,19.1,0,28.7c0.8,0,1.5,0,2.1,0c15.4,0,30.8,0,46.2,0c0.5,0,0.9,0,1.4,0
		c1.4,0.1,1.9,0.5,1.9,1.9c0,6.5,0,12.9,0,19.4c0,1.3-0.5,1.7-1.8,1.8c-0.5,0-0.9,0-1.4,0c-15.4,0-30.8,0-46.2,0c-0.7,0-1.4,0-2.2,0
		c0,9.6,0,19.1,0,28.7c0.8,0,1.6,0,2.3,0c18.7,0,37.4,0,56.1,0c0.6,0,1.2,0,1.7,0c1.5,0.1,1.9,0.6,2,2.1c0,1.3,0,2.7,0,4
		c0,5,0,10,0,15c0,2.2-0.3,2.6-2.5,2.6c-5.1,0-10.1,0-15.2,0c-21.9,0-43.8,0-65.7,0c-3.1,0-3.3-0.1-3.3-3.2c0-40.3,0-80.7,0-121
		c0-3.1,0.2-3.3,3.2-3.3c26.2,0,52.3,0,78.5,0c3.2,0,3.4,0.2,3.4,3.3c0,5.5,0,11.1,0,16.6c0,0.4,0,0.8,0,1.2c-0.1,1.4-0.6,1.9-2.1,2
		c-0.5,0-0.9,0-1.4,0c-18.3,0-36.6,0-54.9,0C183.6,216.3,182.9,216.3,182.1,216.3z"/>
	<path class="st0" d="M137.3,68.1c0,10.6,0,21.2,0,31.8c0,3.2,0.1,6.4,0.5,9.6c1.6,12.1,9.8,20.4,21.8,22.1
		c5.3,0.8,10.6,0.7,15.8-0.6c8.7-2.2,14.6-7.5,17.8-15.8c1.4-3.6,2.1-7.4,2.1-11.3c0.1-24.9,0.2-49.9,0.2-74.8c0-0.3,0-0.6,0-0.9
		c0.1-1.4,0.6-1.8,2-1.8c1.1,0,2.2,0,3.3,0c5.3,0,10.6,0,15.9,0c0.5,0,0.9,0,1.4,0c1.1,0.1,1.5,0.6,1.6,1.7c0,0.5,0,0.9,0,1.4
		c0,24,0.1,47.9,0,71.9c0,10.6-2.5,20.6-7.9,29.7c-7.5,13-18.9,20.7-33.5,23.5c-9.8,1.9-19.6,1.6-29.2-1.1
		c-15.8-4.5-26.4-14.8-32.3-30c-2.8-7.3-4.2-14.9-4.2-22.7c0-23.8,0-47.6,0-71.3c0-2.8,0.2-3.1,3.1-3.1c6.5,0,12.9,0,19.4,0
		c1.9,0,2,0.1,2.1,1.9c0,4.6,0,9.2,0,13.8C137.3,50.9,137.3,59.5,137.3,68.1C137.3,68.1,137.3,68.1,137.3,68.1z"/>
	<path class="st0" d="M412.9,80.1c-0.4,1-0.6,1.7-0.8,2.3c-6.8,19.4-13.5,38.8-20.3,58.2c-1.3,3.8-2.8,7.7-4.2,11.5
		c-0.6,1.7-0.8,1.9-2.7,1.9c-7.1,0-14.1,0-21.2,0c-0.3,0-0.7,0-1,0c-1.2-0.2-1.6-0.9-1.2-2c0.1-0.3,0.3-0.7,0.4-1
		c16.2-41.9,32.5-83.8,48.7-125.7c0.1-0.4,0.3-0.8,0.4-1.1c0.3-0.9,0.9-1.3,1.8-1.3c0.9,0,1.5,0.5,1.8,1.4c0.1,0.3,0.3,0.7,0.4,1
		c16.3,42,32.5,83.9,48.8,125.9c0.1,0.2,0.1,0.3,0.2,0.5c0.6,1.7,0.2,2.5-1.6,2.5c-7.3,0-14.6,0-21.9,0c-1.4,0-1.9-0.8-2.3-1.9
		c-4.7-13.2-9.4-26.5-14.1-39.7c-3.6-10.2-7.2-20.4-10.8-30.6C413.4,81.4,413.2,80.9,412.9,80.1z"/>
	<path class="st0" d="M555.8,247.1c-0.2,0.6-0.4,1.2-0.6,1.8c-8,23-16.1,45.9-24.1,68.9c-1,2.9-0.8,2.9-4.1,2.8
		c-6.4,0-12.8,0-19.2,0c-0.3,0-0.6,0-0.9,0c-2.4,0-2.8-0.6-1.9-2.9c16.3-42.1,32.6-84.1,48.9-126.2c0.4-1,0.7-2.2,2.2-2.1
		c1.5,0,1.7,1.2,2.1,2.2c16,41.3,32,82.6,48.1,123.9c0.4,1,0.8,2.1,1.2,3.1c0.4,1.1-0.1,1.8-1.2,1.9c-0.3,0-0.7,0-1,0
		c-6.9,0-13.9,0-20.8,0c-2.1,0-2.2-0.1-2.9-2.1c-8.3-23.4-16.5-46.8-24.8-70.2c-0.2-0.4-0.3-0.9-0.5-1.3
		C556,247.1,555.9,247.1,555.8,247.1z"/>
	<path class="st0" d="M52.2,130.3c1,0,1.6,0,2.3,0c13.5,0,27,0,40.6,0c0.5,0,0.9,0,1.4,0c1.4,0.1,1.9,0.6,1.9,1.9
		c0,6.6,0,13.2,0,19.8c0,1.4-0.6,1.9-2,2c-0.4,0-0.8,0-1.2,0c-21.4,0-42.8,0-64.2,0c-3.2,0-3.3-0.1-3.3-3.2c0-40.4,0-80.8,0-121.2
		c0-3,0.2-3.1,3.2-3.1c6.1,0,12.1,0,18.2,0c0.5,0,0.9,0,1.4,0c1.1,0.1,1.6,0.6,1.7,1.7c0,0.5,0,1,0,1.6c0,32.7,0,65.4,0,98.1
		C52.2,128.6,52.2,129.3,52.2,130.3z"/>
</g>
</svg>
