<?xml version="1.0" standalone="no"?>
<!DOCTYPE svg PUBLIC "-//W3C//DTD SVG 20010904//EN"
 "http://www.w3.org/TR/2001/REC-SVG-20010904/DTD/svg10.dtd">
<svg version="1.0" xmlns="http://www.w3.org/2000/svg"
 width="449.000000pt" height="449.000000pt" viewBox="0 0 449.000000 449.000000"
 preserveAspectRatio="xMidYMid meet">
<metadata>
Created by potrace 1.11, written by Peter Selinger 2001-2013
</metadata>
<g transform="translate(0.000000,449.000000) scale(0.100000,-0.100000)"
fill="#000000" stroke="none">
<path d="M2170 3913 c-205 -24 -377 -75 -562 -168 -93 -46 -224 -126 -238
-145 -3 -4 -12 -11 -21 -16 -42 -23 -177 -148 -255 -235 -35 -40 -144 -185
-144 -193 0 -3 -14 -25 -30 -50 -27 -40 -119 -225 -125 -251 -1 -5 -7 -23 -14
-40 -15 -36 -59 -196 -67 -245 -26 -145 -31 -212 -28 -355 2 -88 5 -172 8
-187 15 -95 20 -119 33 -173 16 -68 40 -150 53 -180 4 -11 14 -36 21 -55 49
-134 176 -345 284 -470 48 -55 177 -180 215 -209 19 -14 37 -29 40 -32 3 -3
42 -31 88 -62 210 -142 496 -247 744 -274 142 -15 361 -7 491 18 29 5 64 12
79 14 32 6 183 52 213 65 221 96 345 168 480 280 51 42 182 174 145 146 -93
-72 -105 -82 -108 -88 -2 -5 -8 -8 -13 -8 -5 0 -32 -15 -61 -34 -174 -111
-377 -185 -603 -220 -90 -14 -385 -15 -450 -1 -16 3 -61 12 -99 20 -148 31
-240 68 -371 148 -276 170 -510 481 -594 787 -110 400 -52 794 166 1135 78
122 244 299 336 360 8 6 35 24 58 40 24 17 70 44 101 60 59 31 72 44 22 24
-16 -7 -32 -12 -36 -11 -3 1 -64 -28 -135 -63 -283 -143 -491 -350 -630 -630
-43 -85 -97 -225 -87 -225 4 0 2 -6 -4 -12 -8 -11 -17 -44 -37 -148 -2 -8 -4
-21 -4 -28 -1 -7 -6 -10 -11 -7 -10 6 -7 211 6 305 65 504 398 966 859 1190
274 134 538 183 835 155 110 -10 122 -11 140 -18 8 -3 32 -8 53 -12 21 -3 46
-8 55 -11 43 -14 -18 15 -73 34 -220 76 -488 104 -725 75z"/>
<path d="M2785 3400 c3 -6 11 -8 16 -5 5 4 9 1 9 -4 0 -6 3 -10 8 -10 17 3 72
-14 72 -23 0 -5 5 -6 10 -3 6 3 10 1 10 -5 0 -6 5 -8 10 -5 6 3 10 1 10 -5 0
-6 4 -9 9 -5 5 3 16 -1 24 -9 8 -8 17 -12 21 -9 3 4 6 1 6 -5 0 -7 7 -12 15
-12 8 0 15 -5 15 -11 0 -5 5 -7 10 -4 6 3 13 -1 16 -9 3 -9 10 -13 15 -10 5 3
9 0 9 -5 0 -6 7 -11 15 -11 9 0 18 -7 21 -15 4 -8 10 -15 15 -15 8 0 57 -42
104 -90 66 -67 80 -83 80 -91 0 -4 9 -15 20 -23 11 -9 16 -16 10 -16 -6 0 -6
-3 1 -8 16 -11 75 -104 62 -97 -7 4 -4 -1 6 -9 11 -9 16 -16 12 -16 -4 0 0 -7
8 -16 9 -8 14 -20 11 -25 -4 -5 -1 -9 4 -9 6 0 11 -7 11 -15 0 -9 7 -30 16
-46 8 -17 17 -40 20 -50 2 -10 6 -28 8 -39 3 -11 7 -24 10 -28 6 -11 18 -68
20 -102 1 -14 5 -30 8 -35 7 -12 2 -289 -5 -325 -3 -14 -8 -38 -11 -55 -4 -16
-9 -42 -12 -57 -3 -16 -9 -28 -14 -28 -5 0 -7 -9 -5 -20 2 -11 -1 -20 -7 -20
-6 0 -9 -3 -5 -6 3 -4 -2 -23 -13 -44 -11 -21 -16 -40 -13 -44 4 -3 1 -6 -6
-6 -7 0 -9 -4 -6 -10 3 -5 1 -10 -4 -10 -6 0 -10 -3 -9 -7 3 -14 -20 -59 -36
-72 -9 -7 -13 -17 -11 -22 3 -4 -3 -12 -12 -18 -10 -6 -13 -11 -8 -11 6 0 3
-5 -5 -10 -8 -5 -15 -14 -15 -19 0 -29 -213 -244 -258 -260 -7 -2 -33 -19 -59
-38 -27 -18 -48 -30 -48 -27 0 4 -8 0 -17 -9 -10 -8 -21 -16 -26 -16 -4 0 -21
-8 -37 -16 -17 -9 -30 -12 -30 -8 0 5 -4 2 -9 -5 -4 -7 -18 -14 -29 -15 -12
-1 -22 -4 -22 -7 0 -4 -6 -7 -12 -8 -15 -1 -52 -10 -55 -12 -4 -3 -20 -7 -33
-9 -5 0 -10 -5 -10 -9 0 -8 14 -8 120 2 70 7 117 15 148 27 14 5 27 7 30 4 3
-2 11 0 19 6 7 6 13 8 13 4 0 -4 7 -2 15 5 8 6 19 9 25 5 5 -3 10 -1 10 5 0 6
4 9 9 5 5 -3 12 -1 16 5 4 6 11 8 16 5 5 -4 9 -2 9 4 0 10 38 27 53 23 4 -1 7
2 7 8 0 6 3 9 8 8 4 -1 17 3 28 10 12 6 25 8 29 4 5 -4 5 -2 2 4 -4 7 6 17 24
24 16 7 47 28 67 46 20 19 40 34 44 34 3 0 24 17 45 37 21 21 41 37 46 35 4
-1 6 1 5 5 -2 5 14 26 34 48 60 64 68 75 61 75 -3 0 4 9 16 19 12 11 22 21 21
23 -4 8 24 58 32 58 5 0 6 5 3 10 -3 6 -1 10 5 10 6 0 8 5 5 10 -3 6 0 13 9
16 8 3 13 11 10 19 -3 7 2 19 10 28 8 8 12 17 9 21 -4 3 -1 6 5 6 7 0 11 3 10
8 -2 12 14 66 25 80 5 6 6 12 2 12 -4 0 -2 6 4 14 6 8 11 18 10 22 -1 5 0 11
1 14 1 3 3 14 5 25 2 11 6 31 9 45 8 34 17 126 19 180 0 46 -15 201 -23 220
-2 7 -8 31 -15 64 -3 16 -10 36 -14 45 -5 9 -10 21 -12 26 -1 6 -4 17 -6 25
-2 8 -5 20 -5 25 -1 6 -8 16 -15 23 -7 8 -11 18 -8 23 4 5 1 9 -5 9 -6 0 -8 5
-5 10 3 6 1 10 -5 10 -6 0 -8 5 -5 10 3 6 1 10 -4 10 -6 0 -11 9 -11 20 0 11
-5 20 -11 20 -5 0 -8 4 -5 9 3 5 -1 12 -10 15 -8 3 -13 10 -10 15 3 5 -1 12
-10 15 -9 4 -14 9 -11 13 4 3 -3 14 -15 24 -11 11 -17 19 -12 19 5 0 1 5 -9
11 -9 6 -14 16 -11 22 4 7 4 9 -1 5 -7 -7 -35 14 -35 26 0 3 -23 29 -52 58
-29 29 -48 46 -44 38 5 -8 -2 -5 -15 7 -60 55 -69 63 -69 56 -1 -5 -8 1 -18
13 -9 11 -21 21 -27 22 -5 1 -17 8 -25 15 -19 16 -20 16 -47 23 -13 4 -23 11
-23 16 0 5 -4 6 -10 3 -5 -3 -10 -2 -10 3 0 5 -6 9 -12 9 -15 1 -81 26 -88 33
-5 5 -15 8 -50 15 -8 2 -15 4 -15 5 0 4 -106 24 -188 35 -25 4 -36 2 -32 -5z"/>
<path d="M2295 3075 c-92 -20 -154 -44 -227 -86 -82 -48 -183 -145 -236 -225
-14 -22 -34 -67 -32 -73 1 -2 -2 -7 -7 -10 -5 -3 -19 -33 -31 -66 l-21 -60 42
50 c101 120 171 172 337 255 19 9 114 36 160 44 288 55 590 -54 788 -287 44
-52 40 -30 -13 80 -37 75 -61 109 -123 171 -42 42 -88 85 -102 95 -43 31 -162
85 -225 102 -81 21 -235 26 -310 10z"/>
</g>
</svg>
